/* XPM */
static char * ion128_xpm[] = {
"128 128 18 1",
" 	c None",
".	c #000000",
"+	c #25A9E0",
"@	c #26A9E0",
"#	c #27AAE1",
"$	c #25AAE0",
"%	c #26A8E0",
"&	c #25A8DF",
"*	c #26AAE0",
"=	c #26A9DF",
"-	c #26ABE1",
";	c #26A9E1",
">	c #25A9E2",
",	c #25A9E1",
"'	c #27A9E0",
")	c #27A8DF",
"!	c #26A8DF",
"~	c #27A9E1",
"                                                                                                                                ",
"                                                                                                                                ",
"                                                                                                                                ",
"                                                                                                                                ",
"                                                                                                                                ",
"                                                                                                                                ",
"                                                                                           ......                               ",
"                                                                  ....                  ...........                             ",
"                                                         ......................        ..............                           ",
"                                                     ..............................  .................                          ",
"                                                  .....................................................                         ",
"                                               .........................................................                        ",
"                                             ............................................................                       ",
"                                           ..............................................................                       ",
"                                         .................................................................                      ",
"                                       ...................................................................                      ",
"                                     .......................                ..............................                      ",
"                                    ....................                         .........................                      ",
"                                  ...................                             ........................                      ",
"                                 .................                                ........................                      ",
"                                ...............                                   ........................                      ",
"                               ..............                                     ........................                      ",
"                              ..............                                      ........................                      ",
"                            ..............                                         .........................                    ",
"                           ..............                                          ..........................                   ",
"                           ............                                             .........................                   ",
"                          ............                                               .........................                  ",
"                         ............                                                ..........................                 ",
"                        ............                                                   .........................                ",
"                       ...........                                                      ...........   ...........               ",
"                      ...........                                                          ......      ...........              ",
"                      ...........                                                                       ..........              ",
"                     ...........                                                                         ..........             ",
"                    ...........                                                                          ...........            ",
"                    ..........                                                                            ..........            ",
"                   ..........                                                                              ..........           ",
"                  ..........                                                                                ..........          ",
"                  ..........                                                                                ..........          ",
"                 ..........                                                                                  ..........         ",
"                 ..........                                                                                   .........         ",
"                ..........                                                                                    ..........        ",
"                .........                                                                                      .........        ",
"                .........                                                                                      .........        ",
"               .........                                                                                        .........       ",
"               .........                                                                                        .........       ",
"              .........                                                                                          .........      ",
"              .........                                                                                          .........      ",
"              .........                                                                                          .........      ",
"             .........                                           +@#$$%&                                          .........     ",
"             .........                                        *@$$$$$$$$$$=                                       .........     ",
"             .........                                      -$$$$$$$$$$$$$$$@                                      ........     ",
"             ........                                      @$$$$$$$$$$$$$$$$$$@                                    ........     ",
"            .........                                     @$$$$$$$$$$$$$$$$$$$$=                                   .........    ",
"            .........                                    @$$$$$$$$$$$$$$$$$$$$$$$                                  .........    ",
"            .........                                   %$$$$$$$$$$$$$$$$$$$$$$$$+                                  ........    ",
"          ...........                                  +$$$$$$$$$$$$$$$$$$$$$$$$$$                                  ........    ",
"        ...............                                $$$$$$$$$$$$$$$$$$$$$$$$$$$;                                 ........    ",
"       .................                              +$$$$$$$$$$$$$$$$$$$$$$$$$$$$                                 ........    ",
"      ...................                             $$$$$$$$$$$$$$$$$$$$$$$$$$$$$#                                .........   ",
"     .....................                           >$$$$$$$$$$$$$$$$$$$$$$$$$$$$$$                                .........   ",
"     .....................                           ,$$$$$$$$$$$$$$$$$$$$$$$$$$$$$$                                .........   ",
"    .......................                          $$$$$$$$$$$$$$$$$$$$$$$$$$$$$$$;                               .........   ",
"    .......................                          $$$$$$$$$$$$$$$$$$$$$$$$$$$$$$$@                               .........   ",
"   ........................                          $$$$$$$$$$$$$$$$$$$$$$$$$$$$$$$$                               .........   ",
"   .........................                         $$$$$$$$$$$$$$$$$$$$$$$$$$$$$$$$                                ........   ",
"   .........................                         $$$$$$$$$$$$$$$$$$$$$$$$$$$$$$$@                               .........   ",
"   .........................                         $$$$$$$$$$$$$$$$$$$$$$$$$$$$$$$+                               .........   ",
"   .........................                         %$$$$$$$$$$$$$$$$$$$$$$$$$$$$$$'                               .........   ",
"   .........................                         ,$$$$$$$$$$$$$$$$$$$$$$$$$$$$$$                                .........   ",
"    .......................                           $$$$$$$$$$$$$$$$$$$$$$$$$$$$$$                                .........   ",
"    .......................                           ;$$$$$$$$$$$$$$$$$$$$$$$$$$$$,                                ........    ",
"    .......................                            $$$$$$$$$$$$$$$$$$$$$$$$$$$$                                 ........    ",
"     .....................                             =$$$$$$$$$$$$$$$$$$$$$$$$$$%                                 ........    ",
"     ....................                               $$$$$$$$$$$$$$$$$$$$$$$$$)                                  ........    ",
"      ...................                                $$$$$$$$$$$$$$$$$$$$$$$@                                  .........    ",
"       .................                                 *$$$$$$$$$$$$$$$$$$$$$$                                   .........    ",
"        ..............                                    !$$$$$$$$$$$$$$$$$$$%                                    ........     ",
"          ............                                      ~$$$$$$$$$$$$$$$$@                                     ........     ",
"             .........                                        @$$$$$$$$$$$$,                                      .........     ",
"             .........                                          %@$$$$$$~'                                        .........     ",
"              .........                                                                                           ........      ",
"              .........                                                                                          .........      ",
"              .........                                                                                          .........      ",
"               .........                                                                                         ........       ",
"               .........                                                                                        .........       ",
"               ..........                                                                                       .........       ",
"                .........                                                                                      .........        ",
"                ..........                                                                                     .........        ",
"                 .........                                                                                    .........         ",
"                 ..........                                                                                  ..........         ",
"                  .........                                                                                  .........          ",
"                  ..........                                                                                ..........          ",
"                   ..........                                                                              ..........           ",
"                   ...........                                                                             ..........           ",
"                    ..........                                                                            ..........            ",
"                     ..........                                                                          ..........             ",
"                     ...........                                                                        ...........             ",
"                      ...........                                                                      ...........              ",
"                       ...........                                                       .........    ...........               ",
"                        ...........                                                    ............. ...........                ",
"                        ............                                                  ..........................                ",
"                         ............                                                ..........................                 ",
"                          .............                                             ..........................                  ",
"                           .............                                           ..........................                   ",
"                            .............                                          .........................                    ",
"                             ..............                                       .........................                     ",
"                              ..............                                      ........................                      ",
"                               ...............                                    ........................                      ",
"                                ................                                  ........................                      ",
"                                  .................                               ........................                      ",
"                                   ...................                           .........................                      ",
"                                     .....................                     ...........................                      ",
"                                      ..........................        ..................................                      ",
"                                        ..................................................................                      ",
"                                          ...............................................................                       ",
"                                            .............................................................                       ",
"                                              ..........................................................                        ",
"                                                 .......................................................                        ",
"                                                   ....................................................                         ",
"                                                       ..........................     ................                          ",
"                                                             ..............            .............                            ",
"                                                                                         .........                              ",
"                                                                                                                                ",
"                                                                                                                                ",
"                                                                                                                                ",
"                                                                                                                                ",
"                                                                                                                                ",
"                                                                                                                                "};
