/* XPM */
static char * ion16_xpm[] = {
"16 16 6 1",
" 	c None",
".	c #000000",
"+	c #26AAE0",
"@	c #26A9DF",
"#	c #25AAE0",
"$	c #26A9E0",
"                ",
"      .......   ",
"    ..    ...   ",
"   ..      ...  ",
"  ..         .. ",
"  .           . ",
" ..     +@    . ",
" ..    ###     .",
"...    ###     .",
" ..    @$$    . ",
"  .           . ",
"  ..         .. ",
"   .       ...  ",
"    ..    ...   ",
"      .......   ",
"                "};
