/* XPM */
static char * ion32_xpm[] = {
"32 32 8 1",
" 	c None",
".	c #000000",
"+	c #26AADF",
"@	c #26A9E0",
"#	c #25A9E0",
"$	c #25AAE0",
"%	c #25A8DF",
"&	c #26A8E0",
"                                ",
"                                ",
"             .............      ",
"          ................      ",
"         .....      .......     ",
"        ...          ......     ",
"       ...           ......     ",
"      ...             ..  ..    ",
"     ...                  ...   ",
"    ...                    ...  ",
"    ..                      ..  ",
"    ..                      ..  ",
"   ...          +@@          .. ",
"   ..         #$$$$@         .. ",
"  ....        $$$$$$@        .. ",
" ......      $$$$$$$$        .. ",
" ......      %$$$$$$$        .. ",
" ......       $$$$$$&        .. ",
"  ....        #$$$$$         .. ",
"   ...         @&$@          .. ",
"    ..                      ..  ",
"    ..                      ..  ",
"    ...                    ...  ",
"     ...                   ..   ",
"      ..               .  ..    ",
"      ....           .......    ",
"       ....          ......     ",
"         ....       .......     ",
"          ................      ",
"             .............      ",
"                       .        ",
"                                "};
