/* XPM */
static char * ion48_xpm[] = {
"48 48 15 1",
" 	c None",
".	c #000000",
"+	c #26A9E0",
"@	c #26AAE0",
"#	c #25A9E1",
"$	c #26AADF",
"%	c #25AAE0",
"&	c #26A9DF",
"*	c #26A8DF",
"=	c #26A9E1",
"-	c #26A8E0",
";	c #27A8E0",
">	c #25A9DF",
",	c #27AAE1",
"'	c #27A9E1",
"                                                ",
"                                                ",
"                                  ..            ",
"                    ........... ......          ",
"                 ......................         ",
"               .........................        ",
"             ........         ..........        ",
"            ......             .........        ",
"           .....               .........        ",
"          .....                ..........       ",
"         .....                  ..........      ",
"        ....                       .   ....     ",
"        ....                           ....     ",
"       ....                             ....    ",
"      ....                               ....   ",
"      ....                                ...   ",
"      ...                                 ...   ",
"     ....                                 ....  ",
"     ...                ++@#               ...  ",
"     ...              $%%%%%%+             ...  ",
"    ....             +%%%%%%%%&            ...  ",
"   ......           *%%%%%%%%%%            .... ",
"  ........          =%%%%%%%%%%*            ... ",
" .........          %%%%%%%%%%%-            ... ",
" .........          %%%%%%%%%%%;            ... ",
" .........          &%%%%%%%%%%&            ... ",
" .........          @%%%%%%%%%%             ... ",
"  ........           +%%%%%%%%>            ...  ",
"   ......             ,%%%%%%*             ...  ",
"     ...               *'%%-               ...  ",
"     ....                                  ...  ",
"      ...                                 ...   ",
"      ...                                 ...   ",
"      ....                               ....   ",
"       ....                             ....    ",
"        ...                             ...     ",
"        ....                           ....     ",
"         ....                   ..........      ",
"          .....                ..........       ",
"           .....               .........        ",
"            ......             .........        ",
"             .......          ..........        ",
"               .........................        ",
"                 ......................         ",
"                   ...................          ",
"                                 ....           ",
"                                                ",
"                                                "};
