/* XPM */
static char * ion64_xpm[] = {
"64 64 14 1",
" 	c None",
".	c #000000",
"+	c #26A9E0",
"@	c #25A9DF",
"#	c #25A8E0",
"$	c #25AAE0",
"%	c #27A8E0",
"&	c #26A9DF",
"*	c #26ABE1",
"=	c #26A9E1",
"-	c #27ABDF",
";	c #27A9E1",
">	c #26A8E0",
",	c #25A9E0",
"                                                                ",
"                                                                ",
"                                                                ",
"                                             ....               ",
"                           ..............  ........             ",
"                        ............................            ",
"                      ..............................            ",
"                    .................................           ",
"                  ...........          ..............           ",
"                 .........               ............           ",
"                .......                  ............           ",
"               .......                   .............          ",
"             .......                      .............         ",
"             ......                       .............         ",
"            ......                          ............        ",
"           .....                                    .....       ",
"          ......                                     .....      ",
"          .....                                      .....      ",
"         .....                                        .....     ",
"         ....                                          ....     ",
"        .....                                          .....    ",
"        ....                                            ....    ",
"       .....                                            .....   ",
"       ....                                              ....   ",
"       ....                     +@++#                    ....   ",
"      .....                   +$$$$$$$%                  .....  ",
"      .....                  +$$$$$$$$$&                  ....  ",
"     ......                 +$$$$$$$$$$$+                 ....  ",
"    ........               +$$$$$$$$$$$$$*                ....  ",
"   ..........              $$$$$$$$$$$$$$&                ....  ",
"  ...........              $$$$$$$$$$$$$$$                ....  ",
"  ............             $$$$$$$$$$$$$$$                ....  ",
"  ............             $$$$$$$$$$$$$$$                ....  ",
"  ............             $$$$$$$$$$$$$$$                ....  ",
"  ............             $$$$$$$$$$$$$$$                ....  ",
"  ...........              =$$$$$$$$$$$$$-                ....  ",
"   ..........               $$$$$$$$$$$$+                 ....  ",
"   .........                 $$$$$$$$$$$                  ....  ",
"     ......                   +$$$$$$$;                  .....  ",
"      .....                     >$$$,                    ....   ",
"       ....                                              ....   ",
"       .....                                            .....   ",
"        ....                                            ....    ",
"        .....                                          .....    ",
"        .....                                          .....    ",
"         .....                                        .....     ",
"          .....                                       ....      ",
"          .....                                      .....      ",
"           .....                                    .....       ",
"            .....                           ...... .....        ",
"            ......                         .............        ",
"             .......                      .............         ",
"              .......                    .............          ",
"               ........                  ............           ",
"                 ........                ............           ",
"                  ..........            .............           ",
"                    .................................           ",
"                     ................................           ",
"                        ............................            ",
"                           ..............  ........             ",
"                                            ......              ",
"                                                                ",
"                                                                ",
"                                                                "};
