/* XPM */
static char * ion_testnet48_xpm[] = {
"48 48 62 1",
" 	c None",
".	c #004D1F",
"+	c #005A24",
"@	c #005C23",
"#	c #005421",
"$	c #000000",
"%	c #006326",
"&	c #00712C",
"*	c #006E2B",
"=	c #005220",
"-	c #001608",
";	c #005823",
">	c #003514",
",	c #006327",
"'	c #004F1F",
")	c #006126",
"!	c #003F18",
"~	c #005A23",
"{	c #006929",
"]	c #000B04",
"^	c #005C24",
"/	c #006628",
"(	c #001809",
"_	c #005622",
":	c #00A23F",
"<	c #00A440",
"[	c #004C1E",
"}	c #005521",
"|	c #003515",
"1	c #00501F",
"2	c #006F2B",
"3	c #006528",
"4	c #00702B",
"5	c #00A33F",
"6	c #006527",
"7	c #004E1F",
"8	c #004D1E",
"9	c #006A29",
"0	c #005621",
"a	c #006627",
"b	c #00702C",
"c	c #005722",
"d	c #00A540",
"e	c #003314",
"f	c #002F12",
"g	c #001006",
"h	c #00A53E",
"i	c #004E1E",
"j	c #006E2C",
"k	c #005D24",
"l	c #000C05",
"m	c #005520",
"n	c #006025",
"o	c #000502",
"p	c #003616",
"q	c #005F25",
"r	c #003C18",
"s	c #006426",
"t	c #001C0B",
"u	c #000101",
"v	c #001D0B",
"w	c #006427",
"                                                ",
"                                                ",
"                                 .+@#           ",
"                    $$$$$$$$$$$ %&&&&*          ",
"                 $$$$$$$$$$$$$$=&&&&&&*         ",
"               $$$$$$$$$$$$$$$-&&&&&&&&;        ",
"             $$$$$$$$         >&&&&&&&&,        ",
"            $$$$$$            '&&&&&&&&)        ",
"           $$$$$               &&&&&&&&!        ",
"          $$$$$                ~&&&&&&{]$       ",
"         $$$$$                  ^&&&&/($$$      ",
"        $$$$                      #_.  $$$$     ",
"        $$$$                           $$$$     ",
"       $$$$                             $$$$    ",
"      $$$$                               $$$$   ",
"      $$$$                                $$$   ",
"      $$$                                 $$$   ",
"     $$$$                                 $$$$  ",
"     $$$                 :                 $$$  ",
"     $$$               <<<<<<              $$$  ",
"    [}'|              <<<<<<<<             $$$  ",
"  12&&&&3            <<<<<<<<<<            $$$$ ",
"  4&&&&&&)          5<<<<<<<<<<             $$$ ",
" ~&&&&&&&&          <<<<<<<<<<<             $$$ ",
" 6&&&&&&&&7         <<<<<<<<<<<             $$$ ",
" ,&&&&&&&&8         <<<<<<<<<<<             $$$ ",
" }&&&&&&&2           <<<<<<<<<<             $$$ ",
"  9&&&&&&0           :<<<<<<<<             $$$  ",
"   a&&&bc             d<<<<<<              $$$  ",
"     efg                h<<                $$$  ",
"     $$$$                                  $$$  ",
"      $$$                                 $$$   ",
"      $$$                                 $$$   ",
"      $$$$                               $$$$   ",
"       $$$$                             $$$$    ",
"        $$$                             $$$     ",
"        $$$$                       i   $$$$     ",
"         $$$$                   #j&&&kl$$$      ",
"          $$$$$                m&&&&&&no$       ",
"           $$$$$               2&&&&&&&p        ",
"            $$$$$$            .&&&&&&&&q        ",
"             $$$$$$$          r&&&&&&&&s        ",
"               $$$$$$$$$$$$$$$t&&&&&&&&~        ",
"                 $$$$$$$$$$$$$uk&&&&&&&         ",
"                   $$$$$$$$$$$$v{&&&&&=         ",
"                                 _wa^           ",
"                                                ",
"                                                "};
