/* XPM */
static char * ion_regtest64_xpm[] = {
"64 64 182 2",
"  	c None",
". 	c #000010",
"+ 	c #000011",
"@ 	c #000012",
"# 	c #000013",
"$ 	c #00000F",
"% 	c #000014",
"& 	c #000015",
"* 	c #000016",
"= 	c #000017",
"- 	c #000018",
"; 	c #000019",
"> 	c #00001A",
", 	c #00001B",
"' 	c #00003A",
") 	c #0000D1",
"! 	c #0000FE",
"~ 	c #0000F9",
"{ 	c #000095",
"] 	c #000045",
"^ 	c #00008C",
"/ 	c #0000C8",
"( 	c #0000F1",
"_ 	c #0000FC",
": 	c #0000FB",
"< 	c #0000E7",
"[ 	c #0000B5",
"} 	c #000076",
"| 	c #00005C",
"1 	c #0000FD",
"2 	c #0000D9",
"3 	c #000037",
"4 	c #0000AA",
"5 	c #0000FA",
"6 	c #00008F",
"7 	c #0000CD",
"8 	c #0000F6",
"9 	c #00001D",
"0 	c #0000A8",
"a 	c #0000EE",
"b 	c #0000BD",
"c 	c #000098",
"d 	c #000083",
"e 	c #00007E",
"f 	c #000089",
"g 	c #0000A2",
"h 	c #0000CC",
"i 	c #0000F8",
"j 	c #0000ED",
"k 	c #0000D4",
"l 	c #00006C",
"m 	c #000024",
"n 	c #000020",
"o 	c #000021",
"p 	c #00001E",
"q 	c #000077",
"r 	c #000059",
"s 	c #0000C0",
"t 	c #000038",
"u 	c #000022",
"v 	c #00002C",
"w 	c #0000F3",
"x 	c #000027",
"y 	c #000063",
"z 	c #0000EF",
"A 	c #00004D",
"B 	c #000023",
"C 	c #00009C",
"D 	c #0000F0",
"E 	c #000029",
"F 	c #000051",
"G 	c #0000C3",
"H 	c #000099",
"I 	c #0000EB",
"J 	c #000030",
"K 	c #0000A6",
"L 	c #00002A",
"M 	c #00006B",
"N 	c #00007B",
"O 	c #000050",
"P 	c #000026",
"Q 	c #0000E4",
"R 	c #0000D2",
"S 	c #0000E1",
"T 	c #0000AB",
"U 	c #000025",
"V 	c #00001F",
"W 	c #0000EA",
"X 	c #000088",
"Y 	c #0000D0",
"Z 	c #000031",
"` 	c #000033",
" .	c #000028",
"..	c #000061",
"+.	c #0000CF",
"@.	c #00006A",
"#.	c #0000C6",
"$.	c #000043",
"%.	c #0000E2",
"&.	c #00002B",
"*.	c #0000C5",
"=.	c #000073",
"-.	c #000060",
";.	c #0000BC",
">.	c #0000D6",
",.	c #000035",
"'.	c #00002E",
").	c #000047",
"!.	c #000075",
"~.	c #0000A5",
"{.	c #00002D",
"].	c #000056",
"^.	c #000070",
"/.	c #0000C9",
"(.	c #00004B",
"_.	c #000055",
":.	c #000071",
"<.	c #00005D",
"[.	c #0000B2",
"}.	c #000041",
"|.	c #000049",
"1.	c #00006E",
"2.	c #000072",
"3.	c #000074",
"4.	c #000048",
"5.	c #000078",
"6.	c #000046",
"7.	c #000039",
"8.	c #000069",
"9.	c #0000A0",
"0.	c #0000A4",
"a.	c #000079",
"b.	c #000057",
"c.	c #0000D7",
"d.	c #0000D8",
"e.	c #000058",
"f.	c #00006F",
"g.	c #00007F",
"h.	c #000084",
"i.	c #000040",
"j.	c #000034",
"k.	c #000064",
"l.	c #0000AC",
"m.	c #00009D",
"n.	c #00002F",
"o.	c #00005E",
"p.	c #0000DD",
"q.	c #0000F2",
"r.	c #00003E",
"s.	c #00003F",
"t.	c #00007C",
"u.	c #0000B1",
"v.	c #0000AE",
"w.	c #0000B8",
"x.	c #000052",
"y.	c #000097",
"z.	c #0000C1",
"A.	c #00003C",
"B.	c #00001C",
"C.	c #0000E0",
"D.	c #000090",
"E.	c #000053",
"F.	c #0000DE",
"G.	c #000062",
"H.	c #0000AF",
"I.	c #000081",
"J.	c #0000F4",
"K.	c #00003B",
"L.	c #00008A",
"M.	c #0000F7",
"N.	c #0000A9",
"O.	c #00004A",
"P.	c #000054",
"Q.	c #0000BF",
"R.	c #0000A3",
"S.	c #000080",
"T.	c #000067",
"U.	c #0000B3",
"V.	c #00004C",
"W.	c #00008E",
"X.	c #0000E6",
"Y.	c #0000E5",
"                                                                                                                                ",
"        . . . . . . . . . . . . . . . . . . . . . . + + @ @ @ @ @ @ @ @ + + . . . . . . . . . . . . . . . . . . . . . .         ",
"    . . . . . . . . . . . . . . . . . . . . + @ @ @ # # # # # # # # # # # # @ @ @ + . . . . . . . . . . . . . . . . . . . $     ",
"    . . . . . . . . . . . . . . . . . + @ @ @ # # # % % % % % % % % % % % % # # # # @ @ + . . . . . . . . . . . . . . . . .     ",
"  + . . . . . . . . . . . . . . . + @ @ # # % % % & & & & & & & & & & & & & & % % % # # @ @ + . . . . . . . . . . . . . . . .   ",
"  . . . . . . . . . . . . . . . @ @ # # % % & & & * * * = = = = = = = = * * * & & & % % # # @ @ . . . . . . . . . . . . . . .   ",
"  . . . . . . . . . . . . . + @ # # % & & & * * = = = = = = = = = = = = = = = = * * & & & % # # @ + . . . . . . . . . . . . .   ",
"  . . . . . . . . . . . . @ @ # % % & & * = = = = = = - - - - - - - - - - = = = = = = * & & & % # @ @ . . . . . . . . . . . .   ",
"  . . . . . . . . . . . @ # # % & & * = = = = - - - ; > > > > > > > > > > ; - - - = * ; & * & & % # # @ . . . . . . . . . . .   ",
"  . . . . . . . . . . @ # % % & * * = = = - - ; > > , , , , , ; ; > ; ; , , > > ' ) ! ! ~ { = * & % % # @ + . . . . . . . . .   ",
"  . . . . . . . . . @ # % & & * = = = - - > > , , , > ] ^ / ( _ ! ! ! : < [ } | 1 ! ! ! ! ! 2 = * & & % # @ + . . . . . . . .   ",
"  . . . . . . . . @ # % & & * = = = - ; > , , , 3 4 5 ! ! ! ! ! ! ! ! ! ! ! ! ! ! ! ! ! ! ! ! 6 = * & & % # @ . . . . . . . .   ",
"  . . . . . . . @ # % & & * = = - - > , , , ' 7 ! ! ! ! ! ! ! ! ! ! ! ! ! ! ! ! ! ! ! ! ! ! ! 8 * = * & & % # @ . . . . . . .   ",
"  . . . . . . @ # # & & * = = - ; > , , 9 0 ! ! ! ! ! ! ! a b c d e f g h i ! ! ! ! ! ! ! ! ! ! = = = * & & % # @ . . . . . .   ",
"  . . . . . + @ # % & * = = - ; > , , ' j ! ! ! ! ! k l m n n o o n n n n p q ! ! ! ! ! ! ! ! 1 = - = = * & % # @ + . . . . .   ",
"  . . . . . @ # % & * = = - ; > , , r 1 ! ! ! ! s t o u u u u u u u u u u o v ! ! ! ! ! ! ! ! w x ; - = = * & % # @ . . . . .   ",
"  . . . . + # % & * = = - ; > , , y ! ! ! ! z A o u u u u B B B B B B u u u u C ! ! ! ! ! ! ! ! D E ; - = = * & % # @ . . . .   ",
"  . . . . @ # % & * = = - > , , F ! ! ! ! G B u u u B B B m m m m m m B B B u o H 1 ! ! ! 1 ! ! ! I n ; = = * & % # @ + . . .   ",
"  . . . @ # % & * = = - > , , J : ! ! ! K o u u B B m m m m m m m m m m m m B B u L M N O P Q ! ! ! R ; - = = * & % # @ . . .   ",
"  . . . @ # % & = = - ; , , , S ! ! ! T o u u B m m m m U U U U U U U U m m m m B B u u n V U W ! ! ! ^ ; - = = & & # @ + . .   ",
"  . . + # % & * = = - > , , X ! ! ! Y o u B B m m m U U P P P x x P P P U U m m m B B u u n V Z 5 ! ! 1 ` - = = * & % # @ . .   ",
"  . . @ # % & * = - ; , , U _ ! ! i E u B B m m U U P x x  . . . . . .x x P U U m m m B u u n V ..! ! ! +.; - = = & % # @ . .   ",
"  . + @ # & * = = - > , , g ! ! ! @.u u B m m U P x x  .E E L L L L L E  .x x P U m m B B u o n p #.! ! ! $.- = = * & % @ + .   ",
"  . + # % & * = = ; , , p _ ! ! %.o u B m m U P x  .E L L &.&.&.&.&.&.L L E  .x P U m m B u u n V Z ! ! ! *.; - = * & % # @ .   ",
"  . @ # % & = = - > , , =.! ! ! -.u B m m U P x  .E L &.&.&.&.&.&.&.&.&.&.L E  .x P U m m B u o n V ;.! ! ! o - = = & % # @ .   ",
"  . @ # & * = = - > , , >.! ! 8 n u B m m U P  .E L &.&.&.v v v Z ,.'.&.&.&.L E  .x U m m B u u n V ).! ! ! !.- = = * & # @ .   ",
"  + @ % & * = = ; , , 9 1 ! ! ~.u B m m U P x E L &.&.v v {.].} q q q ^.$.&.&.L E x P U m m B u o V 9 8 ! ! /.; = = * & % @ +   ",
"  + # % & * = = ; , , (.! ! ! _.u B m m U x  .L &.&.v v Z :.q q q q q q q <.&.&.L  .x U m m B u o n V [.! ! 5 - - = * & % # +   ",
"  + # % & * = - > , }.) ! ! ! |.u B m U P x  .L &.&.v {.1.q q q q q q q q } O &.L E x P U m B u u n V 2.! ! ! B - = * & % # @   ",
"  @ # % & * = - > ^.! ! ! ! ! ! 3.B m U P x E L &.v {.4.q q 5.5.5.5.q q q q } {.&.E x P U m m u u n V $.! ! ! 6.- = = & % # @   ",
"  @ # % & = = - J 1 ! ! ! ! ! ! ! 7.m U P  .L &.&.v {.8.q 5.5.5.5.5.5.q q q } ).&.L  .P U m m B u n V  .! ! ! ..- = = & % # @   ",
"  @ # % & = = - 9.! ! ! ! ! ! ! ! 0.m U P  .L &.&.v {.} q 5.5.a.a.5.5.q q q } b.&.L  .P U m m B u n V V ! ! ! 1.- = = & % # @   ",
"  @ # % & = = - c.! ! ! ! ! ! ! ! d.m U P  .L &.&.v {.} q 5.5.5.5.5.5.q q q } e.&.L  .P U m m B u n V V ! ! ! f.- = = & % # @   ",
"  @ # % & = = - h ! ! ! ! ! ! ! ! 7 m U P  .L &.&.v {.M q q 5.5.5.5.q q q q } |.&.L  .P U m m B u n V P ! ! ! y - = = & % # @   ",
"  + # % & * = - g.! ! ! ! ! ! ! ! h.m U P x E L &.v {.(.q q q 5.5.q q q q q } '.L E x P U m m u u n V i.! ! ! |.- = * & % # @   ",
"  + # % & * = - , D ! ! ! ! ! ! D U m m P x  .L &.&.v {.:.q q q q q q q q } ].&.L  .x P U m B u u n V 1.! ! ! P - = * & % # +   ",
"  + @ % & * = = ; Z I ! ! ! ! I 3 B m m U P  .E L &.&.v j.3.q q q q q q } k.&.&.L  .P U m m B u o n p l.! ! : = = = * & % # +   ",
"  . @ # & * = = ; > , ..! ! ! m.u u m m U P x  .L &.&.&.v n.o.q q q q 3.(.&.&.L  .x P U m m B u n V 9 w ! ! +.; = = * & % @ +   ",
"  . @ # % & = = - > , , p.! ! q.n u B m m U P x E L &.&.&.&.v v 7.r.` &.&.&.L E x P U m m B u u n V s.! ! ! t.- = = * & # @ .   ",
"  . @ # % & * = - > , , t.! ! ! _.u B m m m U P x E L L &.&.&.&.&.&.&.&.L L E  .x U U m m B u o n p u.! ! ! U - = = & % # @ .   ",
"  . + # % & * = = ; > , o 1 ! ! 2 o u B m m U P P x  .E L L &.&.&.&.L L E  .x P P U m m B u u n V L 1 ! ! +.; = = * & % # + .   ",
"  . . @ # & * = = - > , , v.! ! ! | u u B m m U U P x x  .E E L L E E  . .x P U U m m B u u n V p w.! ! ! A - = = * & # @ + .   ",
"  . . @ # % & * = = ; , , L 1 ! ! w m u u B m m m U P P x x x  . .x x x P P U m m m B u u o n V x.! ! ! 2 ; - = * & % # @ . .   ",
"  . . + # % & * = = - > , , y.! ! ! z.o u u B m m m U U U P P P P P P U U U m m m B u u o n V E 8 ! ! ! A.- = = * & % # + . .   ",
"  . . . @ # % & * = = ; > , B.W ! ! ! y.o u u B B m m m m U U U U U U m m m m m B u u o n V n C.! ! ! m.; = = * & % # @ . . .   ",
"  . . . + # % & * = = - > , , ' 1 ! ! ! D.n u u u B B m m m m m m m m m m m B B u u E.k.7.o c.! ! ! F.; - = = * & % # + . . .   ",
"  . . . . @ # % & * = = - > , , G.! ! ! ! H.n u u u u B B B B m m B B B B u u u I._ ! ! ! : ! ! ! J.P - = = * & % # @ . . . .   ",
"  . . . . + @ # & & * = = - > , , q ! ! ! ! %.K.n u u u u u u u u u u u u u u L.! ! ! ! ! ! ! ! M.` ; = = = & & % # + . . . .   ",
"  . . . . . @ # % & * = = = - > , , 1.! ! ! ! ! N.L n o o u u u u u u o o n  .1 ! ! ! ! ! ! ! 8 Z ; - = = * & % # @ . . . . .   ",
"  . . . . . . @ # % & * = = = - > , , O.8 ! ! ! ! 1 ;.P.p n n n n n n n V V 1.! ! ! ! ! ! ! ! _ = - = = * & % # @ + . . . . .   ",
"  . . . . . . + @ # % & * = = = - > , , B Q.! ! ! ! ! ! 1 2 R.S.l T.^.L.U.I ! ! ! ! ! ! ! ! ! ! = = = * & % # @ + . . . . . .   ",
"  . . . . . . . + # # % & * = = = - ; > , , A S ! ! ! ! ! ! ! ! ! ! ! ! ! ! ! ! ! ! ! ! ! ! ! i * = * & % # # @ . . . . . . .   ",
"  . . . . . . . . @ # # % & * = = = - ; > > , > V.G 1 ! ! ! ! ! ! ! ! ! ! ! ! ! ! ! ! ! ! ! ! C = * & % # # @ . . . . . . . .   ",
"  . . . . . . . . . @ # # % & * * = = = - ; > > , , 9 <.~.C.: ! ! ! ! ! M.+.W.!.! ! ! ! ! ! X.; * & % # # @ . . . . . . . . .   ",
"  . . . . . . . . . . @ @ # % & & * = = = = - - ; > > , , , ; > n u p ; > > > > (.Y.! ! 1 v., & & % # # @ . . . . . . . . . .   ",
"  . . . . . . . . . . . + @ # % & & * * = = = = - - - ; ; > > > > > > ; ; - - - = = 9 x & * & & % # @ @ . . . . . . . . . . .   ",
"  . . . . . . . . . . . . + @ # # % & & * * = = = = = = = - - - - - - = = = = = = = * * & & % # # @ + . . . . . . . . . . . .   ",
"  . . . . . . . . . . . . . . @ @ # % % & & & * * = = = = = = = = = = = = = = * * & & & % % # @ @ . . . . . . . . . . . . . .   ",
"  . . . . . . . . . . . . . . . + @ # # % % & & & & * * * * * * * * * * * * & & & & % % # # @ + . . . . . . . . . . . . . . .   ",
"  . . . . . . . . . . . . . . . . . + @ @ # # % % % & & & & & & & & & & & & % % % # # @ @ + . . . . . . . . . . . . . . . . +   ",
"    . . . . . . . . . . . . . . . . . . + @ @ # # # # % % % % % % % % % % # # # # @ @ + . . . . . . . . . . . . . . . . . .     ",
"      . . . . . . . . . . . . . . . . . . . . + @ @ @ @ # # # # # # # # @ @ @ @ + . . . . . . . . . . . . . . . . . . . .       ",
"        . . . . . . . . . . . . . . . . . . . . . . . + + + + @ @ + + + + . . . . . . . . . . . . . . . . . . . . . . $         ",
"                                                                                                                                "};
