/* XPM */
static char * ion_testnet64_xpm[] = {
"64 64 68 1",
" 	c None",
".	c #00501F",
"+	c #006026",
"@	c #00692A",
"#	c #006929",
"$	c #005E25",
"%	c #004E1F",
"&	c #000000",
"*	c #006627",
"=	c #00712C",
"-	c #006125",
";	c #000904",
">	c #006327",
",	c #00421A",
"'	c #00521F",
")	c #000301",
"!	c #006B2A",
"~	c #006528",
"{	c #001809",
"]	c #006C2B",
"^	c #006326",
"/	c #004A1D",
"(	c #006E2B",
"_	c #001308",
":	c #005522",
"<	c #00702B",
"[	c #002B11",
"}	c #004F1F",
"|	c #006A29",
"1	c #003013",
"2	c #004F1E",
"3	c #00A540",
"4	c #00A440",
"5	c #000101",
"6	c #00A340",
"7	c #005923",
"8	c #006D2A",
"9	c #005521",
"0	c #003C17",
"a	c #00A53F",
"b	c #006F2B",
"c	c #005C24",
"d	c #005B23",
"e	c #00511F",
"f	c #006728",
"g	c #005F24",
"h	c #00501E",
"i	c #005220",
"j	c #006628",
"k	c #005922",
"l	c #004C1E",
"m	c #00A53E",
"n	c #00240E",
"o	c #00220D",
"p	c #001B0B",
"q	c #000602",
"r	c #005C23",
"s	c #006C2A",
"t	c #006828",
"u	c #000A04",
"v	c #003F19",
"w	c #006829",
"x	c #00210D",
"y	c #000703",
"z	c #005621",
"A	c #001307",
"B	c #003E18",
"C	c #005823",
"                                                                ",
"                                                                ",
"                                                                ",
"                                            .+@#$%              ",
"                           &&&&&&&&&&&&&&  *======-             ",
"                        &&&&&&&&&&&&&&&&&;>========>            ",
"                      &&&&&&&&&&&&&&&&&&&,=========='           ",
"                    &&&&&&&&&&&&&&&&&&&&)!==========~           ",
"                  &&&&&&&&&&&          &{============           ",
"                 &&&&&&&&&               ============           ",
"                &&&&&&&                  ===========]           ",
"               &&&&&&&                   ^==========/&          ",
"             &&&&&&&                      =========(_&&         ",
"             &&&&&&                       :=======<[&&&         ",
"            &&&&&&                         }|====~1&&&&&        ",
"           &&&&&                              }2    &&&&&       ",
"          &&&&&&                                     &&&&&      ",
"          &&&&&                                      &&&&&      ",
"         &&&&&                                        &&&&&     ",
"         &&&&                                          &&&&     ",
"        &&&&&                                          &&&&&    ",
"        &&&&                                            &&&&    ",
"       &&&&&                                            &&&&&   ",
"       &&&&                                              &&&&   ",
"       &&&&                       3                      &&&&   ",
"      &&&&&                    4444444                   &&&&&  ",
"      &5&&&                  34444444446                  &&&&  ",
"     7~=890                 a44444444444                  &&&&  ",
"   }b======$                4444444444444                 &&&&  ",
"   <========c              444444444444444                &&&&  ",
"  *==========              444444444444444                &&&&  ",
"  ===========d             444444444444444                &&&&  ",
" '===========~             444444444444444                &&&&  ",
" e===========f             444444444444444                &&&&  ",
"  ===========g             444444444444444                &&&&  ",
"  8==========h              4444444444444                 &&&&  ",
"  i=========j               444444444444a                 &&&&  ",
"   k=======#                 44444444444                  &&&&  ",
"    h#===(l                   a4444444m                  &&&&&  ",
"      nopq&                      444                     &&&&   ",
"       &&&&                                              &&&&   ",
"       &&&&&                                            &&&&&   ",
"        &&&&                                            &&&&    ",
"        &&&&&                                          &&&&&    ",
"        &&&&&                                          &&&&&    ",
"         &&&&&                                        &&&&&     ",
"          &&&&&                                       &&&&      ",
"          &&&&&                                      &&&&&      ",
"           &&&&&                                    &&&&&       ",
"            &&&&&                           r(==sk &&&&&        ",
"            &&&&&&                         (======t{&&&&        ",
"             &&&&&&&                      (========fu&&         ",
"              &&&&&&&                    $==========v&          ",
"               &&&&&&&&                  b==========w           ",
"                 &&&&&&&&                ============           ",
"                  &&&&&&&&&&            x============           ",
"                    &&&&&&&&&&&&&&&&&&&&yb==========@           ",
"                     &&&&&&&&&&&&&&&&&&&&}==========z           ",
"                        &&&&&&&&&&&&&&&&&A8========|            ",
"                           &&&&&&&&&&&&&& B(======|             ",
"                                            c(==sC              ",
"                                                                ",
"                                                                ",
"                                                                "};
