/* XPM */
static char * ion_regtest64_xpm[] = {
"64 64 67 1",
" 	c None",
".	c #890000",
"+	c #A70000",
"@	c #BA0000",
"#	c #B70000",
"$	c #A30000",
"%	c #850000",
"&	c #000000",
"*	c #B20000",
"=	c #C80000",
"-	c #A90000",
";	c #100000",
">	c #B00000",
",	c #AC0000",
"'	c #750000",
")	c #8B0000",
"!	c #050000",
"~	c #BE0000",
"{	c #2B0000",
"]	c #C00000",
"^	c #AD0000",
"/	c #830000",
"(	c #C30000",
"_	c #230000",
":	c #910000",
"<	c #C60000",
"[	c #4C0000",
"}	c #B80000",
"|	c #B10000",
"1	c #530000",
"2	c #870000",
"3	c #860000",
"4	c #FF0000",
"5	c #020000",
"6	c #990000",
"7	c #B40000",
"8	c #C10000",
"9	c #960000",
"0	c #690000",
"a	c #C50000",
"b	c #C70000",
"c	c #9F0000",
"d	c #9D0000",
"e	c #A40000",
"f	c #9B0000",
"g	c #B90000",
"h	c #B60000",
"i	c #840000",
"j	c #3E0000",
"k	c #3C0000",
"l	c #300000",
"m	c #0A0000",
"n	c #9E0000",
"o	c #BF0000",
"p	c #980000",
"q	c #C20000",
"r	c #2A0000",
"s	c #110000",
"t	c #700000",
"u	c #3B0000",
"v	c #0C0000",
"w	c #C40000",
"x	c #8C0000",
"y	c #940000",
"z	c #220000",
"A	c #6A0000",
"B	c #970000",
"                                                                ",
"                                                                ",
"                                                                ",
"                                            .+@#$%              ",
"                           &&&&&&&&&&&&&&  *======-             ",
"                        &&&&&&&&&&&&&&&&&;>========,            ",
"                      &&&&&&&&&&&&&&&&&&&'==========)           ",
"                    &&&&&&&&&&&&&&&&&&&&!~==========>           ",
"                  &&&&&&&&&&&          &{============           ",
"                 &&&&&&&&&               ============           ",
"                &&&&&&&                  ===========]           ",
"               &&&&&&&                   ^==========/&          ",
"             &&&&&&&                      =========(_&&         ",
"             &&&&&&                       :=======<[&&&         ",
"            &&&&&&                         %}====|1&&&&&        ",
"           &&&&&                              23    &&&&&       ",
"          &&&&&&                                     &&&&&      ",
"          &&&&&                                      &&&&&      ",
"         &&&&&                                        &&&&&     ",
"         &&&&                                          &&&&     ",
"        &&&&&                                          &&&&&    ",
"        &&&&                                            &&&&    ",
"       &&&&&                                            &&&&&   ",
"       &&&&                                              &&&&   ",
"       &&&&                      444                     &&&&   ",
"      &&&&&                   444444444                  &&&&&  ",
"      &5&&&                  44444444444                  &&&&  ",
"     67=890                 4444444444444                 &&&&  ",
"   %a======$                4444444444444                 &&&&  ",
"   b========c              444444444444444                &&&&  ",
"  *==========              444444444444444                &&&&  ",
"  ===========d             444444444444444                &&&&  ",
" .===========>             444444444444444                &&&&  ",
" )===========7             444444444444444                &&&&  ",
"  ===========e             444444444444444                &&&&  ",
"  ~==========2             44444444444444                 &&&&  ",
"  )=========*               4444444444444                 &&&&  ",
"   f=======g                 44444444444                  &&&&  ",
"    2h===(i                   444444444                  &&&&&  ",
"      jklm&                     44444                    &&&&   ",
"       &&&&                                              &&&&   ",
"       &&&&&                                            &&&&&   ",
"        &&&&                                            &&&&    ",
"        &&&&&                                          &&&&&    ",
"        &&&&&                                          &&&&&    ",
"         &&&&&                                        &&&&&     ",
"          &&&&&                                       &&&&      ",
"          &&&&&                                      &&&&&      ",
"           &&&&&                                    &&&&&       ",
"            &&&&&                           n(==op &&&&&        ",
"            &&&&&&                         q======}r&&&&        ",
"             &&&&&&&                      (========hs&&         ",
"              &&&&&&&                    $==========t&          ",
"               &&&&&&&&                  <==========h           ",
"                 &&&&&&&&                ============           ",
"                  &&&&&&&&&&            u============           ",
"                    &&&&&&&&&&&&&&&&&&&&vw==========@           ",
"                     &&&&&&&&&&&&&&&&&&&&x==========y           ",
"                        &&&&&&&&&&&&&&&&&z]========g            ",
"                           &&&&&&&&&&&&&& A8======@             ",
"                                            d8==~B              ",
"                                                                ",
"                                                                ",
"                                                                "};
