/* XPM */
static char * ion_regtest48_xpm[] = {
"48 48 57 1",
" 	c None",
".	c #840000",
"+	c #9A0000",
"@	c #9E0000",
"#	c #8F0000",
"$	c #000000",
"%	c #AB0000",
"&	c #C80000",
"*	c #C10000",
"=	c #910000",
"-	c #C30000",
";	c #260000",
">	c #970000",
",	c #5D0000",
"'	c #870000",
")	c #A80000",
"!	c #C70000",
"~	c #6F0000",
"{	c #9C0000",
"]	c #B90000",
"^	c #140000",
"/	c #9F0000",
"(	c #B50000",
"_	c #2A0000",
":	c #920000",
"<	c #FF0000",
"[	c #830000",
"}	c #8C0000",
"|	c #5E0000",
"1	c #C60000",
"2	c #B10000",
"3	c #A70000",
"4	c #AF0000",
"5	c #AC0000",
"6	c #BA0000",
"7	c #940000",
"8	c #B20000",
"9	c #960000",
"0	c #5B0000",
"a	c #530000",
"b	c #1D0000",
"c	c #860000",
"d	c #900000",
"e	c #C40000",
"f	c #A20000",
"g	c #170000",
"h	c #AA0000",
"i	c #090000",
"j	c #5F0000",
"k	c #A40000",
"l	c #690000",
"m	c #AD0000",
"n	c #310000",
"o	c #020000",
"p	c #330000",
"q	c #B80000",
"r	c #AE0000",
"                                                ",
"                                                ",
"                                 .+@#           ",
"                    $$$$$$$$$$$ %&&&&*          ",
"                 $$$$$$$$$$$$$$=&&&&&&-         ",
"               $$$$$$$$$$$$$$$;&&&&&&&&>        ",
"             $$$$$$$$         ,&&&&&&&&%        ",
"            $$$$$$            '&&&&&&&&)        ",
"           $$$$$               !&&&&&&&~        ",
"          $$$$$                {&&&&&&]^$       ",
"         $$$$$                  /&&&&(_$$$      ",
"        $$$$                      #:.  $$$$     ",
"        $$$$                           $$$$     ",
"       $$$$                             $$$$    ",
"      $$$$                               $$$$   ",
"      $$$$                                $$$   ",
"      $$$                                 $$$   ",
"     $$$$                                 $$$$  ",
"     $$$                <<<                $$$  ",
"     $$$              <<<<<<<              $$$  ",
"    [>}|             <<<<<<<<<             $$$  ",
"  '1&&&&2            <<<<<<<<<<            $$$$ ",
"  !&&&&&&3          <<<<<<<<<<<             $$$ ",
" {&&&&&&&&          <<<<<<<<<<<<            $$$ ",
" 4&&&&&&&&'         <<<<<<<<<<<<            $$$ ",
" 5&&&&&&&&.         <<<<<<<<<<<             $$$ ",
" :&&&&&&&1           <<<<<<<<<<             $$$ ",
"  6&&&&&&7           <<<<<<<<<             $$$  ",
"   8&&&19             <<<<<<<              $$$  ",
"     0ab                <<<<               $$$  ",
"     $$$$                                  $$$  ",
"      $$$                                 $$$   ",
"      $$$                                 $$$   ",
"      $$$$                               $$$$   ",
"       $$$$                             $$$$    ",
"        $$$                             $$$     ",
"        $$$$                       c   $$$$     ",
"         $$$$                   de&&&fg$$$      ",
"          $$$$$                =&&&&&&hi$       ",
"           $$$$$               e&&&&&&&j        ",
"            $$$$$$            .&&&&&&&&k        ",
"             $$$$$$$          l&&&&&&&&m        ",
"               $$$$$$$$$$$$$$$n&&&&&&&&{        ",
"                 $$$$$$$$$$$$$ok&&&&&&!         ",
"                   $$$$$$$$$$$$pq&&&&!}         ",
"                                 :r8/           ",
"                                                ",
"                                                "};
