/* XPM */
static char * ion_testnet16_xpm[] = {
"16 16 22 1",
" 	c None",
".	c #000000",
"+	c #003F19",
"@	c #00712C",
"#	c #006A29",
"$	c #005D24",
"%	c #006327",
"&	c #004B1E",
"*	c #000100",
"=	c #00200C",
"-	c #001207",
";	c #004E1E",
">	c #006E2B",
",	c #00A440",
"'	c #005722",
")	c #00501F",
"!	c #005823",
"~	c #00A53F",
"{	c #006025",
"]	c #00471C",
"^	c #004219",
"/	c #006C2A",
"                ",
"      ....+@#   ",
"    ..    $@@   ",
"   ..      %&*  ",
"  ..         .. ",
"  .           . ",
" =-           . ",
";@>    ,,,     .",
"'@@)   ,,,     .",
" !)     ~     . ",
"  .           . ",
"  ..         .. ",
"   .       {].  ",
"    ..    $@@   ",
"      ....^@/   ",
"                "};
