/* XPM */
static char * ion_regtest32_xpm[] = {
"32 32 46 1",
" 	c None",
".	c #8A0000",
"+	c #000000",
"@	c #030000",
"#	c #970000",
"$	c #C80000",
"%	c #9A0000",
"&	c #480000",
"*	c #820000",
"=	c #900000",
"-	c #8B0000",
";	c #620000",
">	c #B50000",
",	c #A30000",
"'	c #050000",
")	c #8F0000",
"!	c #9E0000",
"~	c #8E0000",
"{	c #120000",
"]	c #FF0000",
"^	c #5B0000",
"/	c #4E0000",
"(	c #870000",
"_	c #C50000",
":	c #B90000",
"<	c #C10000",
"[	c #A20000",
"}	c #BA0000",
"|	c #A70000",
"1	c #C30000",
"2	c #7D0000",
"3	c #6B0000",
"4	c #330000",
"5	c #940000",
"6	c #850000",
"7	c #AC0000",
"8	c #930000",
"9	c #020000",
"0	c #890000",
"a	c #570000",
"b	c #860000",
"c	c #510000",
"d	c #830000",
"e	c #070000",
"f	c #A40000",
"g	c #920000",
"                                ",
"                       .        ",
"             +++++++@#$$$%      ",
"          ++++++++++&$$$$$      ",
"         +++++      *$$$$$=     ",
"        +++         -$$$$$;     ",
"       +++           >$$$,'     ",
"      +++             )!~{++    ",
"     +++                  +++   ",
"    +++                    +++  ",
"    ++                      ++  ",
"    ++                      ++  ",
"   +++          ]]           ++ ",
"   ^/          ]]]]]         ++ ",
" (_$$:        ]]]]]]]        ++ ",
" <$$$$[       ]]]]]]]        ++ ",
" $$$$$}       ]]]]]]]        ++ ",
" _$$$$|       ]]]]]]]        ++ ",
" ~$$$1        ]]]]]]         ++ ",
"   234          ]]]          ++ ",
"    ++                      ++  ",
"    ++                      ++  ",
"    +++                    +++  ",
"     +++                   ++   ",
"      ++              (56 ++    ",
"      ++++           7$$$89+    ",
"       ++++         0$$$$$a     ",
"         ++++       b$$$$$=     ",
"          ++++++++++c$$$$$d     ",
"             +++++++ef$$$f      ",
"                      bg6       ",
"                                "};
