/* XPM */
static char * ion_testnet16_xpm[] = {
"16 16 52 1",
" 	c None",
".	c #010C10",
"+	c #010D12",
"@	c #010E13",
"#	c #010F15",
"$	c #011117",
"%	c #010F14",
"&	c #011219",
"*	c #02141B",
"=	c #06394D",
"-	c #0B6D93",
";	c #13BEFE",
">	c #0F98CB",
",	c #010C11",
"'	c #053446",
")	c #02161E",
"!	c #0B7198",
"~	c #021821",
"{	c #021A23",
"]	c #021B24",
"^	c #10A3DA",
"/	c #11AEE8",
"(	c #11A9E2",
"_	c #11ABE4",
":	c #042E3E",
"<	c #021C26",
"[	c #031E29",
"}	c #011016",
"|	c #03202B",
"1	c #03212C",
"2	c #074A63",
"3	c #02171F",
"4	c #031E28",
"5	c #095A78",
"6	c #095977",
"7	c #021820",
"8	c #095876",
"9	c #010D11",
"0	c #08506C",
"a	c #011218",
"b	c #12B0EC",
"c	c #042734",
"d	c #021720",
"e	c #0F91C2",
"f	c #10A4DC",
"g	c #12B1EC",
"h	c #032430",
"i	c #095F7F",
"j	c #074B65",
"k	c #0D7FAA",
"l	c #031B24",
"m	c #11A5DD",
" .....+@@+..... ",
"....@#$$$$#@....",
"...%$&*=-*;>#,..",
"..%$*;;')!;;$#..",
".@$*;~{]]{^/($@.",
".#&_:]<[[<]~;&#.",
"+}*;{<|12|<{3;$+",
"+$;;]415564]7;$+",
"+$;;1416584]7;$+",
"9}*;{<|10|<{3;}+",
".#abc]<44<]~;a#.",
".@$*;d{]]{efg$@.",
"..%$*;;h3i;;$%..",
"...%$a*jkl;m%...",
"....@#}$$}#@....",
" .....9++9..... "};
