/* XPM */
static char * ion_regtest16_xpm[] = {
"16 16 48 1",
" 	c None",
".	c #000010",
"+	c #000012",
"@	c #000013",
"#	c #000015",
"$	c #000017",
"%	c #000014",
"&	c #000019",
"*	c #00001B",
"=	c #00004D",
"-	c #000093",
";	c #0000FE",
">	c #0000CB",
",	c #000011",
"'	c #000046",
")	c #00001E",
"!	c #000098",
"~	c #000021",
"{	c #000023",
"]	c #000024",
"^	c #0000DA",
"/	c #0000E8",
"(	c #0000E2",
"_	c #0000E4",
":	c #00003E",
"<	c #000026",
"[	c #000029",
"}	c #000016",
"|	c #00002B",
"1	c #00002C",
"2	c #000063",
"3	c #00001F",
"4	c #000028",
"5	c #000078",
"6	c #000077",
"7	c #000020",
"8	c #000076",
"9	c #00006C",
"0	c #000018",
"a	c #0000EC",
"b	c #000034",
"c	c #0000C2",
"d	c #0000DC",
"e	c #000030",
"f	c #00007F",
"g	c #000065",
"h	c #0000AA",
"i	c #0000DD",
" .....+@@+..... ",
"....@#$$$$#@....",
"...%$&*=-*;>#,..",
"..%$*;;')!;;$#..",
".@$*;~{]]{^/($@.",
".#&_:]<[[<]~;&#.",
"+}*;{<|12|<{3;$+",
"+$;;]415564]7;$+",
"+$;;1416584]7;$+",
",}*;{<|19|<{3;}+",
".#0ab]<44<]~;0#.",
".@$*;7{]]{cda$@.",
"..%$*;;e3f;;$%..",
"...%$0*gh];i%...",
"....@#}$$}#@....",
" .....,++,..... "};
