/* XPM */
static char * ion_testnet64_xpm[] = {
"64 64 222 2",
"  	c None",
". 	c #010C10",
"+ 	c #010C11",
"@ 	c #010D11",
"# 	c #010D12",
"$ 	c #020D10",
"% 	c #010E13",
"& 	c #010D0F",
"* 	c #010F14",
"= 	c #010F15",
"- 	c #010B10",
"; 	c #011016",
"> 	c #011117",
", 	c #011218",
"' 	c #021319",
") 	c #02131A",
"! 	c #011219",
"~ 	c #02141B",
"{ 	c #021219",
"] 	c #042B3A",
"^ 	c #109CD1",
"/ 	c #13BEFE",
"( 	c #13BAF9",
"_ 	c #0B6F95",
": 	c #053345",
"< 	c #0A698C",
"[ 	c #0F95C8",
"} 	c #12B4F1",
"| 	c #13BDFC",
"1 	c #13BBFB",
"2 	c #11ADE7",
"3 	c #0D87B5",
"4 	c #095876",
"5 	c #07455C",
"6 	c #13BDFD",
"7 	c #10A2D9",
"8 	c #042937",
"9 	c #0D7FAA",
"0 	c #13BBFA",
"a 	c #0B6B8F",
"b 	c #0F99CD",
"c 	c #12B8F6",
"d 	c #02161D",
"e 	c #0D7EA8",
"f 	c #12B2EE",
"g 	c #0E8DBD",
"h 	c #0B7298",
"i 	c #0A6283",
"j 	c #095E7E",
"k 	c #0A6689",
"l 	c #0C79A2",
"m 	c #0F99CC",
"n 	c #13BAF8",
"o 	c #12B1ED",
"p 	c #109ED4",
"q 	c #08516C",
"r 	c #021B24",
"s 	c #021820",
"t 	c #021821",
"u 	c #02161E",
"v 	c #095977",
"w 	c #074359",
"x 	c #0E90C0",
"y 	c #042938",
"z 	c #021922",
"A 	c #03212C",
"B 	c #12B6F3",
"C 	c #031D27",
"D 	c #074A63",
"E 	c #12B3EF",
"F 	c #06394D",
"G 	c #021A23",
"H 	c #0C759C",
"I 	c #12B3F0",
"J 	c #031E29",
"K 	c #063C51",
"L 	c #0F92C3",
"M 	c #021921",
"N 	c #0B7299",
"O 	c #13BEFD",
"P 	c #12B0EB",
"Q 	c #032430",
"R 	c #13BCFB",
"S 	c #0C7CA6",
"T 	c #031F2A",
"U 	c #08506B",
"V 	c #095C7B",
"W 	c #063C50",
"X 	c #031C26",
"Y 	c #11ABE4",
"Z 	c #109DD2",
"` 	c #11A8E1",
" .	c #0D80AB",
"..	c #021B25",
"+.	c #02171F",
"@.	c #12AFEA",
"#.	c #0A6588",
"$.	c #109BD0",
"%.	c #021C26",
"&.	c #032431",
"*.	c #042533",
"=.	c #031C25",
"-.	c #13B9F8",
";.	c #031E28",
">.	c #074961",
",.	c #0F9ACF",
"'.	c #084F6A",
").	c #0F94C6",
"!.	c #053243",
"~.	c #11A9E2",
"{.	c #03202B",
"].	c #0F93C5",
"^.	c #095673",
"/.	c #074760",
"(.	c #0E8DBC",
"_.	c #10A0D6",
":.	c #032531",
"<.	c #042835",
"[.	c #03222E",
"}.	c #053547",
"|.	c #095775",
"1.	c #02151D",
"2.	c #0C7BA5",
"3.	c #03212D",
"4.	c #064056",
"5.	c #085470",
"6.	c #0F96C9",
"7.	c #011319",
"8.	c #05384B",
"9.	c #063F55",
"0.	c #085471",
"a.	c #07455D",
"b.	c #0D85B2",
"c.	c #011118",
"d.	c #053041",
"e.	c #053649",
"f.	c #08526E",
"g.	c #085572",
"h.	c #095774",
"i.	c #053548",
"j.	c #095A78",
"k.	c #053446",
"l.	c #042A39",
"m.	c #084E69",
"n.	c #031D28",
"o.	c #0C78A0",
"p.	c #0C7BA4",
"q.	c #095A79",
"r.	c #064157",
"s.	c #10A1D7",
"t.	c #10A2D8",
"u.	c #064258",
"v.	c #08536F",
"w.	c #0F98CC",
"x.	c #053749",
"y.	c #095F7F",
"z.	c #0A6384",
"A.	c #052F40",
"B.	c #12B4F0",
"C.	c #042431",
"D.	c #042634",
"E.	c #074A64",
"F.	c #0D80AC",
"G.	c #074861",
"H.	c #0C759D",
"I.	c #03232F",
"J.	c #07465E",
"K.	c #109BCF",
"L.	c #11A5DD",
"M.	c #12B5F2",
"N.	c #042E3E",
"O.	c #042633",
"P.	c #042F3F",
"Q.	c #095D7C",
"R.	c #0D85B1",
"S.	c #0D82AE",
"T.	c #0E8AB8",
"U.	c #063A4D",
"V.	c #03202A",
"W.	c #063D52",
"X.	c #10A3D9",
"Y.	c #0B7197",
"Z.	c #0E91C1",
"`.	c #042D3C",
" +	c #02141C",
".+	c #11A7E0",
"++	c #0B6C90",
"@+	c #063E53",
"#+	c #074B64",
"$+	c #11A6DE",
"%+	c #074962",
"&+	c #0D82AF",
"*+	c #0A6081",
"=+	c #13BCFC",
"-+	c #12B6F4",
";+	c #042C3B",
">+	c #0A678A",
",+	c #13B9F7",
"'+	c #0D7EA9",
")+	c #05374A",
"!+	c #0E8CBC",
"~+	c #063F54",
"{+	c #02171E",
"]+	c #0E8FBF",
"^+	c #0C7AA3",
"/+	c #096080",
"(+	c #08506C",
"_+	c #084D67",
":+	c #0D86B3",
"<+	c #02141A",
"[+	c #06394C",
"}+	c #0C749C",
"|+	c #11A8E0",
"1+	c #0F9BCF",
"2+	c #0B6A8E",
"3+	c #11ACE6",
"4+	c #021720",
"5+	c #11ABE5",
"6+	c #01131B",
"7+	c #021D27",
"8+	c #011015",
"9+	c #010B0F",
"                                                                                                                                ",
"        . . . . . . . . . . . . . . . . . . . . . . + @ # # # # # # # # @ + . . . . . . . . . . . . . . . . . . . . . .         ",
"    $ . . . . . . . . . . . . . . . . . . . + # # # % % % % % % % % % % % % # # # + . . . . . . . . . . . . . . . . . . . &     ",
"    . . . . . . . . . . . . . . . . . + # # # % % % * * * * * * * * * * * * % % % % # # + . . . . . . . . . . . . . . . . .     ",
"  + . . . . . . . . . . . . . . . + # # % % * * * = = = = = = = = = = = = = = * * * % % # # + . . . . . . . . . . . . . . . -   ",
"  . . . . . . . . . . . . . . . # # % % * * = = = ; ; ; > > > > > > > > ; ; ; = = = * * % % # # . . . . . . . . . . . . . . .   ",
"  . . . . . . . . . . . . . + # % % * = = = ; ; > > > > > > > > > > > > > > > > ; ; = = = * % % # + . . . . . . . . . . . . .   ",
"  . . . . . . . . . . . . # # % * * = = ; > > > > > > , , , , , , , , , , > > > > > > ; = = = * % # # . . . . . . . . . . . .   ",
"  . . . . . . . . . . . # % % * = = ; > > > > , , , ' ) ) ) ) ) ) ) ) ) ) ' , , , > ; ! = ; = = * % % # . . . . . . . . . . .   ",
"  . . . . . . . . . . # % * * = ; ; > > > , , ' ) ) ~ ~ ~ ~ ~ { { ) { ' ~ ~ ) ) ] ^ / / ( _ > ; = * * % # + . . . . . . . . .   ",
"  . . . . . . . . . # % * = = ; > > > , , ) ) ~ ~ ~ ) : < [ } | / / / 1 2 3 4 5 6 / / / / / 7 > ; = = * % # + . . . . . . . .   ",
"  . . . . . . . . # % * = = ; > > > , ' ) ~ ~ ~ 8 9 0 / / / / / / / / / / / / / / / / / / / / a > ; = = * % # . . . . . . . .   ",
"  . . . . . . . # % * = = ; > > , , ) ~ ~ ~ ] b / / / / / / / / / / / / / / / / / / / / / / / c ; > ; = = * % # . . . . . . .   ",
"  . . . . . . # % % = = ; > > , ! ) ~ ~ d e / / / / / / / f g h i j k l m n / / / / / / / / / / > > > ; = = * % # . . . . . .   ",
"  . . . . . + # % * = ; > > , ' ) ~ ~ ] o / / / / / p q r s s t t s s s s u v / / / / / / / / 6 > , > > ; = * % # + . . . . .   ",
"  . . . . . # % * = ; > > , ' ) ~ ~ w 6 / / / / x y t z z z z z z z z z z t A / / / / / / / / B C ' , > > ; = * % # . . . . .   ",
"  . . . . @ % * = ; > > , ! ) ~ ~ D / / / / E F t z z z z G G G G G G z z z z H / / / / / / / / I J ' , > > ; = * % # . . . .   ",
"  . . . . # % * = ; > > , ) ~ ~ K / / / / L G z z z G G G r r r r r r G G G z M N O / / / 6 / / / P s ! > > ; = * % # + . . .   ",
"  . . . # % * = ; > > , ) ~ ~ Q R / / / S t z z G G r r r r r r r r r r r r G G z T U V W X Y / / / Z { , > > ; = * % # . . .   ",
"  . . . # % * = > > , ' ~ ~ ~ ` / / /  .t z z G r r r r ................r r r r G G z z s +...@./ / / < ' , > > = = % # + . .   ",
"  . . @ % * = ; > > , ) ~ ~ #./ / / $.t z G G r r r ....%.%.%.C C %.%.%.....r r r G G z z s +.&.0 / / O *., > > ; = * % # . .   ",
"  . . # % * = ; > , ' ~ ~ =.| / / -.J z G G r r ....%.C C ;.;.;.;.;.;.C C %.....r r r G z z s +.>./ / / ,.' , > > = * % # . .   ",
"  . + # % = ; > > , ) ~ ~ l / / / '.z z G r r ..%.C C ;.J J T T T T T J ;.C C %...r r G G z t s u )./ / / !., > > ; = * # + .   ",
"  . @ % * = ; > > ' ~ ~ u | / / ~.t z G r r ..%.C ;.J T T {.{.{.{.{.{.T T J ;.C %...r r G z z s +.&./ / / ].' , > ; = * % # .   ",
"  . # % * = > > , ) ~ ~ ^./ / / /.z G r r ..%.C ;.J T {.{.{.{.{.{.{.{.{.{.T J ;.C %...r r G z t s +.(./ / / t , > > = * % # .   ",
"  . # % = ; > > , ) ~ ~ _./ / c s z G r r ..%.;.J T {.{.{.A A A :.<.[.{.{.{.T J ;.C ..r r G z z s +.}./ / / |., > > ; = % # .   ",
"  + # * = ; > > ! ~ ~ 1.O / / 2.z G r r ..%.C J T {.{.A A 3.4.4 v v v 5.!.{.{.T J C %...r r G z t +.1.c / / 6.7.> > ; = * # +   ",
"  + % * = ; > > ' ~ ~ 8./ / / 9.z G r r ..C ;.T {.{.A A &.0.v v v v v v v a.{.{.T ;.C ..r r G z M s +.b./ / 0 c., > ; = * % @   ",
"  @ % * = ; > , ) ~ d.^ / / / e.z G r ..%.C ;.T {.{.A 3.f.v v v v v v v v 4 W {.T J C %...r G z z s +.g./ / / G , > ; = * % #   ",
"  # % * = ; > , ) 5./ / / / / / h.G r ..%.C J T {.A 3.i.v v j.j.j.j.v v v v 4 3.{.J C %...r r z z s +.!./ / / k., > > = * % #   ",
"  # % * = > > , Q O / / / / / / / l.r ..%.;.T {.{.A 3.m.v j.j.j.j.j.j.v v v 4 }.{.T ;.%...r r G z s +.n./ / / >., > > = * % #   ",
"  # % * = > > , o./ / / / / / / / p.r ..%.;.T {.{.A 3.4 v j.j.q.q.j.j.v v v 4 r.{.T ;.%...r r G z s +.+./ / / f., > > = * % #   ",
"  # % * = > > , s./ / / / / / / / t.r ..%.;.T {.{.A 3.4 v j.j.j.j.j.j.v v v 4 u.{.T ;.%...r r G z s +.+./ / / v., > > = * % #   ",
"  # % * = > > , w./ / / / / / / / b r ..%.;.T {.{.A 3.U v v j.j.j.j.v v v v 4 x.{.T ;.%...r r G z s +.X / / / D , > > = * % #   ",
"  @ % * = ; > , y./ / / / / / / / z.r ..%.C J T {.A 3.8.v v v j.j.v v v v v 4 [.T J C %...r r z z s +.A./ / / e., > ; = * % #   ",
"  + % * = ; > , ~ I / / / / / / B...r r %.C ;.T {.{.A 3.0.v v v v v v v v 4 4.{.T ;.C %...r G z z s +.f./ / / X , > ; = * % @   ",
"  + # * = ; > > ' C.P / / / / P 8 G r r ..%.;.J T {.{.A D.h.v v v v v v 4 E.{.{.T ;.%...r r G z t s u F./ / R > > > ; = * % +   ",
"  . # % = ; > > ! ) ~ G./ / / H.z z r r ..%.C ;.T {.{.{.A I.J.v v v v h.8.{.{.T ;.C %...r r G z s +.1.B / / K.! > > ; = * # +   ",
"  . # % * = > > , ) ~ ~ L./ / M.s z G r r ..%.C J T {.{.{.{.A A l.N.O.{.{.{.T J C %...r r G z z s +.P./ / / Q., > > ; = % # .   ",
"  . # % * = ; > , ) ~ ~ Q./ / / 9.z G r r r ..%.C J T T {.{.{.{.{.{.{.{.T T J ;.C ....r r G z t s u R./ / / =., > > = * % # .   ",
"  . + % * = ; > > ! ) ~ t 6 / / 7 t z G r r ..%.%.C ;.J T T {.{.{.{.T T J ;.C %.%...r r G z z s +.T 6 / / K.! > > ; = * % @ .   ",
"  . . # % = ; > > , ) ~ ~ S./ / / 5 z z G r r ....%.C C ;.J J T T J J ;.;.C %.....r r G z z s +.u T./ / / U., > > ; = % # + .   ",
"  . . # % * = ; > > ! ~ ~ V.6 / / B r z z G r r r ..%.%.C C C ;.;.C C C %.%...r r r G z z t s +.W./ / / X.! , > ; = * % # . .   ",
"  . . + % * = ; > > , ) ~ ~ Y./ / / Z.t z z G r r r ......%.%.%.%.%.%.......r r r G z z M s +.J c / / / `., > > ; = * % @ . .   ",
"  . . . # % * = ; > > ! ) ~  +@./ / / Y.t z z G G r r r r ............r r r r r G z z t s +.s .+/ / / H.! > > ; = * % # . . .   ",
"  . . . @ % * = ; > > , ) ~ ~ ] 6 / / / ++s z z z G G r r r r r r r r r r r G G z z @+#+l.t s./ / / $+' , > > ; = * % @ . . .   ",
"  . . . . # % * = ; > > , ) ~ ~ %+/ / / / &+s z z z z G G G G r r G G G G z z z *+=+/ / / R / / / -+X , > > ; = * % # . . . .   ",
"  . . . . + # % = = ; > > , ) ~ ~ v / / / / ~.;+s z z z z z z z z z z z z z z >+/ / / / / / / / ,+O.! > > > = = * % @ . . . .   ",
"  . . . . . # % * = ; > > > , ) ~ ~ f./ / / / / '+T s t M z z z z z z M t s ;.6 / / / / / / / c C.! , > > ; = * % # . . . . .   ",
"  . . . . . . # % * = ; > > > , ) ~ ~ )+c / / / / O !+~+{+s s s s s s s +.+.f./ / / / / / / / =+> , > > ; = * % # + . . . . .   ",
"  . . . . . . + # % * = ; > > > , ) ~ ~ G ]+/ / / / / / 6 X.^+/+(+_+5.>+:+P / / / / / / / / / / > > > ; = * % # @ . . . . . .   ",
"  . . . . . . . @ % % * = ; > > > , ' ) ~ ~ U.` / / / / / / / / / / / / / / / / / / / / / / / n ; > ; = * % % # . . . . . . .   ",
"  . . . . . . . . # % % * = ; > > > , ! ) ) ~ <+[+L 6 / / / / / / / / / / / / / / / / / / / / }+> ; = * % % # . . . . . . . .   ",
"  . . . . . . . . . # % % * = ; ; > > > , ! ) ) ~ ~ 1.a.2.|+R / / / / / ,+1+2+|./ / / / / / 3+! ; = * % % # . . . . . . . . .   ",
"  . . . . . . . . . . # # % * = = ; > > > > , , ' ) ) ~ ~ ~ ' ) 4+z u { ) ) ) ) 8.5+/ / 6 S.6+= = * % % # . . . . . . . . . .   ",
"  . . . . . . . . . . . @ # % * = = ; ; > > > > , , , ! ' ) ) ) ) ) ) ' ! , , , > > d 7+8+; = = * % # # . . . . . . . . . . .   ",
"  . . . . . . . . . . . . + # % % * = = ; ; > > > > > > > , , , , , , > > > > > > > ; ; = = * % % # + . . . . . . . . . . . .   ",
"  . . . . . . . . . . . . . . # # % * * = = = ; ; > > > > > > > > > > > > > > ; ; = = = * * % # # . . . . . . . . . . . . . .   ",
"  . . . . . . . . . . . . . . . + # % % * * = = = = ; ; ; ; ; ; ; ; ; ; ; ; = = = = * * % % # + . . . . . . . . . . . . . . .   ",
"  . . . . . . . . . . . . . . . . . + # # % % * * * = = = = = = = = = = = = * * * % % # # @ . . . . . . . . . . . . . . . . +   ",
"    . . . . . . . . . . . . . . . . . . + # # % % % % * * * * * * * * * * % % % % # # + . . . . . . . . . . . . . . . . . .     ",
"      . . . . . . . . . . . . . . . . . . . . + # # # # % % % % % % % % # # # # + . . . . . . . . . . . . . . . . . . . .       ",
"        . . . . . . . . . . . . . . . . . . . . . . . + + @ @ # # @ @ + + . . . . . . . . . . . . . . . . . . . . . . 9+        ",
"                                                                                                                                "};
