/* XPM */
static char * ion_testnet32_xpm[] = {
"32 32 49 1",
" 	c None",
".	c #005120",
"+	c #000000",
"@	c #000200",
"#	c #005722",
"$	c #00712C",
"%	c #005A23",
"&	c #002910",
"*	c #004A1C",
"=	c #005420",
"-	c #00521F",
";	c #003815",
">	c #006728",
",	c #005C24",
"'	c #000301",
")	c #005521",
"!	c #005320",
"~	c #000A04",
"{	c #00A23F",
"]	c #003414",
"^	c #002C11",
"/	c #00A440",
"(	c #00A53F",
"_	c #004F1E",
":	c #00702B",
"<	c #006929",
"[	c #006E2B",
"}	c #005D25",
"|	c #00692A",
"1	c #006026",
"2	c #006E2A",
"3	c #00481C",
"4	c #003C17",
"5	c #001C0C",
"6	c #00A33F",
"7	c #004E1F",
"8	c #005621",
"9	c #004F1F",
"0	c #006327",
"a	c #000101",
"b	c #00501F",
"c	c #003214",
"d	c #004D1E",
"e	c #002E12",
"f	c #000401",
"g	c #005D24",
"h	c #005F25",
"i	c #005020",
"j	c #005522",
"                                ",
"                       .        ",
"             +++++++@#$$$%      ",
"          ++++++++++&$$$$$      ",
"         +++++      *$$$$$=     ",
"        +++         -$$$$$;     ",
"       +++           >$$$,'     ",
"      +++             ),!~++    ",
"     +++                  +++   ",
"    +++                    +++  ",
"    ++                      ++  ",
"    ++                      ++  ",
"   +++           {           ++ ",
"   ]^          ////(         ++ ",
" _:$$<        //////         ++ ",
" [$$$$}       ///////        ++ ",
" $$$$$|       ///////        ++ ",
" :$$$$1       //////         ++ ",
" !$$$2         /////         ++ ",
"   345          6/           ++ ",
"    ++                      ++  ",
"    ++                      ++  ",
"    +++                    +++  ",
"     +++                   ++   ",
"      ++              789 ++    ",
"      ++++           0$$$!a+    ",
"       ++++         b$$$$$c     ",
"         ++++       d$$$$$=     ",
"          ++++++++++e$$$$$      ",
"             +++++++fg$$$h      ",
"                      ij7       ",
"                                "};
