/* XPM */
static char * ion_regtest48_xpm[] = {
"48 48 136 2",
"  	c None",
". 	c #000011",
"+ 	c #00000F",
"@ 	c #000010",
"# 	c #000012",
"$ 	c #000013",
"% 	c #000014",
"& 	c #000015",
"* 	c #000016",
"= 	c #000017",
"- 	c #000018",
"; 	c #000019",
"> 	c #00001A",
", 	c #00001C",
"' 	c #000041",
") 	c #00001B",
"! 	c #00004D",
"~ 	c #00007B",
"{ 	c #000093",
"] 	c #0000DB",
"^ 	c #0000FE",
"/ 	c #0000CB",
"( 	c #000026",
"_ 	c #0000AE",
": 	c #0000FD",
"< 	c #0000A6",
"[ 	c #000027",
"} 	c #0000E0",
"| 	c #000098",
"1 	c #0000F8",
"2 	c #000099",
"3 	c #000046",
"4 	c #000020",
"5 	c #00001E",
"6 	c #00001F",
"7 	c #000045",
"8 	c #0000E1",
"9 	c #0000D4",
"0 	c #00002D",
"a 	c #000021",
"b 	c #000022",
"c 	c #0000FC",
"d 	c #0000F0",
"e 	c #000040",
"f 	c #000023",
"g 	c #00004F",
"h 	c #0000E2",
"i 	c #0000E9",
"j 	c #000024",
"k 	c #00003A",
"l 	c #0000DA",
"m 	c #0000FB",
"n 	c #0000D2",
"o 	c #0000E8",
"p 	c #00009B",
"q 	c #000025",
"r 	c #000029",
"s 	c #000028",
"t 	c #0000E4",
"u 	c #00003E",
"v 	c #00003B",
"w 	c #0000E5",
"x 	c #00002A",
"y 	c #0000D0",
"z 	c #00002B",
"A 	c #0000CE",
"B 	c #0000B6",
"C 	c #0000B7",
"D 	c #0000F6",
"E 	c #00002C",
"F 	c #000048",
"G 	c #000064",
"H 	c #000063",
"I 	c #000047",
"J 	c #0000F5",
"K 	c #000090",
"L 	c #000031",
"M 	c #000077",
"N 	c #000076",
"O 	c #00002F",
"P 	c #00008E",
"Q 	c #00001D",
"R 	c #000097",
"S 	c #000057",
"T 	c #0000BB",
"U 	c #00004B",
"V 	c #000078",
"W 	c #000049",
"X 	c #000087",
"Y 	c #0000C3",
"Z 	c #000067",
"` 	c #00009D",
" .	c #000068",
"..	c #00009E",
"+.	c #0000DF",
"@.	c #00004C",
"#.	c #000089",
"$.	c #00003F",
"%.	c #0000EB",
"&.	c #000036",
"*.	c #00005A",
"=.	c #0000E6",
"-.	c #000034",
";.	c #000032",
">.	c #0000F2",
",.	c #00006C",
"'.	c #0000F1",
").	c #0000BF",
"!.	c #0000C0",
"~.	c #000030",
"{.	c #0000C4",
"].	c #0000C2",
"^.	c #0000EC",
"/.	c #0000F9",
"(.	c #0000AC",
"_.	c #0000DE",
":.	c #0000DD",
"<.	c #00002E",
"[.	c #0000B9",
"}.	c #0000DC",
"|.	c #0000F7",
"1.	c #000043",
"2.	c #0000ED",
"3.	c #0000FA",
"4.	c #0000B0",
"5.	c #000080",
"6.	c #00007F",
"7.	c #000033",
"8.	c #0000EF",
"9.	c #000035",
"0.	c #0000C7",
"a.	c #0000B4",
"b.	c #000065",
"c.	c #000094",
"d.	c #0000AA",
"e.	c #000058",
"        . + + + + + + + + + + + + + + + + + . . . . + + + + + + + + + + + + + + + + + @         ",
"    @ @ @ @ @ @ @ @ @ @ @ @ @ @ @ @ . # # # $ $ $ $ # # # . @ @ @ @ @ @ @ @ @ @ @ @ @ @ @ @     ",
"  @ @ @ @ @ @ @ @ @ @ @ @ @ @ . # $ $ $ % % % % % % % % $ $ $ # . @ @ @ @ @ @ @ @ @ @ @ @ @ @   ",
"  @ @ @ @ @ @ @ @ @ @ @ @ # # $ % % & & & & * * * * & & & & % % $ # # @ @ @ @ @ @ @ @ @ @ @ @   ",
"  @ @ @ @ @ @ @ @ @ @ . # $ % & & * * = = = = = = = = = = * * & & % $ # . @ @ @ @ @ @ @ @ @ @   ",
"  @ @ @ @ @ @ @ @ @ # $ % & & * = = = = = - - - - - - = = = = = * & & % $ # @ @ @ @ @ @ @ @ @   ",
"  @ @ @ @ @ @ @ @ # $ % & * = = = - - ; > > > > > > > > ; - - , ' ; * & % $ # @ @ @ @ @ @ @ @   ",
"  @ @ @ @ @ @ @ # $ % & * = = - ; > ) ) ) ) ! ~ { { ~ ! ) > ] ^ ^ ^ / * & & $ # . @ @ @ @ @ @   ",
"  @ @ @ @ @ @ # $ & * = = - ; > ) ) ( _ : ^ ^ ^ ^ ^ ^ ^ ^ ^ ^ ^ ^ ^ ^ < = * & % # @ @ @ @ @ @   ",
"  @ @ @ @ @ # $ & * = = - > ) ) [ } ^ ^ ^ ^ ^ ^ ^ ^ ^ ^ ^ ^ ^ ^ ^ ^ ^ ^ = = * & $ # @ @ @ @ @   ",
"  @ @ @ @ # $ % * = = - > ) ) | ^ ^ ^ ^ 1 2 3 4 5 5 6 7 | ^ ^ ^ ^ ^ ^ ^ - = = * & $ # @ @ @ @   ",
"  @ @ @ . $ % & = = - > ) ) 8 ^ ^ ^ 9 0 a b b b b b b a 4 c ^ ^ ^ ^ ^ : ; - = = & % $ . @ @ @   ",
"  @ @ @ # % & * = - > ) ) d ^ ^ c e b b b f f f f f f b b g ^ ^ ^ ^ ^ ^ d ; - = * & % # @ @ @   ",
"  @ @ . $ & * = = > ) ) h ^ ^ i a b b f j j j j j j j j f b k l m n o ^ ^ h > - = * & $ # @ @   ",
"  @ @ # % & = = ; ) ) p ^ ^ i a b f j j j q q q q q q j j j f b b 4 5 o ^ ^ p ; = = & % # @ @   ",
"  @ . $ % * = - > ) r ^ ^ c a b f j j q ( ( [ [ [ [ ( ( q j j f b b 4 5 c ^ ^ s - = * & $ . @   ",
"  @ # $ & = = ; ) ) t ^ ^ u b f j j q ( [ s r r r r s [ ( q j j f b a 6 v ^ ^ w ; = = & % # @   ",
"  @ # % & = - > ) x ^ ^ y b f j j q [ s r x z z z z x r s [ ( j j f b 4 6 A ^ ^ s - = * % $ @   ",
"  . $ & * = - > ) B ^ ^ z b j j q [ s x z z z z z z z z x s [ q j j b b 4 [ ^ ^ C - = * & $ .   ",
"  # $ & * = ; ) ) ^ ^ D b f j q ( s x z z E E F G H I z z x s ( q j f b 4 6 J ^ ^ ; = = & $ #   ",
"  # % & = = > ) 5 ^ ^ K b f j q [ r z z E L M M M M M N O z r [ q j j b a 6 P ^ ^ Q = = & % #   ",
"  # % & = - > [ h ^ ^ R b j j ( s x z E 0 M M M M M M M N z x s ( j j b b 6 k ^ ^ S - = & % #   ",
"  # % & = - a ^ ^ ^ ^ ^ T j q ( s x z E U M V V V V M M M W z s ( q j f b 4 , ^ ^ X - = * % #   ",
"  # % & = - Y ^ ^ ^ ^ ^ ^ j q [ r z z 0 Z M V V V V M M M Z z r [ q j f b 4 Q ^ ^ ` - = * % $   ",
"  # % & = - m ^ ^ ^ ^ ^ ^ ! q [ r z z 0  .M V V V V M M M Z z r [ q j f b 4 Q ^ ^ ..- = * % #   ",
"  # % & = - +.^ ^ ^ ^ ^ ^ E q ( s x z E ! M M V V V M M N @.x s ( q j f b 4 , ^ ^ #.- = * % #   ",
"  # % & = = $.^ ^ ^ ^ ^ %.j j ( s x z E 0 M M M M M M M N z x s ( j j b a 6 &.^ ^ *.- = & % #   ",
"  # $ & = = ; G ^ ^ ^ =.b f j q [ r z z E -.M M M M M N ;.z r [ q j f b a 6 X ^ ^ 6 = = & % #   ",
"  . $ & * = ; ) ) ^ ^ >.b f j q ( [ x z z E E g ,.,.g z z x s ( q j f b 4 6 '.^ ^ ; = * & $ #   ",
"  . $ % * = - > ) ).^ ^ ( b f j q ( s x x z z z z z z z x s ( q j j b a 6 f ^ ^ !.- = * & $ .   ",
"  @ # % & = = > ) ~.^ ^ {.b f j j q ( [ r x x x z x x r s ( q j j f b 4 6 ].^ ^ O = = & % # @   ",
"  @ # $ & * = - ) ) ^.^ ^ -.b f j j q ( [ [ s s s s s [ ( q j j f b a 6 L ^ ^ ^.- = * & $ # @   ",
"  @ . $ % * = - > ) ~.^ ^ /.4 b f j j q q ( ( ( ( ( ( q q j j f b a 4 5 /.^ ^ O - = * % $ . @   ",
"  @ @ # % & * = - > ) (.^ ^ _.a b f f j j j q q q q j j j f f b a 4 6 :.^ ^ (.- = = & % # @ @   ",
"  @ @ . $ % * = = ; ) ) ^.^ ^ :.4 b b f f j j j j j j f f b <.].>.[.}.^ ^ ^.; = = * % $ . @ @   ",
"  @ @ @ # $ & * = - > ) ) |.^ ^ /.;.a b b b b f f b b b b 1.^ ^ ^ ^ ^ ^ |.> - = * & $ # @ @ @   ",
"  @ @ @ @ $ % & * = - > ) ) 2.^ ^ ^ ).f 4 a b b b b a 4 4 3.^ ^ ^ ^ ^ : > - = * & % $ . @ @ @   ",
"  @ @ @ @ # $ % & = = - > ) ) 4.^ ^ ^ ^ 2.5.~.Q 6 6 Q O 6.^ ^ ^ ^ ^ ^ ^ - = = & % $ # @ @ @ @   ",
"  @ @ @ @ @ # $ % & = = - ; > ) 7.8.^ ^ ^ ^ ^ ^ ^ ^ ^ ^ ^ ^ ^ ^ ^ ^ ^ ^ = = & % $ # @ @ @ @ @   ",
"  @ @ @ @ @ @ # $ % & * = = - > ) ) 9.0.^ ^ ^ ^ ^ ^ ^ ^ ^ ^ ^ ^ ^ ^ ^ a.* & % $ # @ @ @ @ @ @   ",
"  @ @ @ @ @ @ @ # $ % & * = = = - > > ) ) q b.c.d.d.c.b.j ; i ^ ^ ^ :.* & % $ # @ @ @ @ @ @ @   ",
"  @ @ @ @ @ @ @ @ # $ % & & * = = = - - ; > > > > > > ; - - = x e.j & & % $ # @ @ @ @ @ @ @ @   ",
"  @ @ @ @ @ @ @ @ @ . # $ % & * * = = = = = = - - - = = = = = * * & % $ $ # @ @ @ @ @ @ @ @ @   ",
"  @ @ @ @ @ @ @ @ @ @ @ # $ $ % & & * * = = = = = = = = * * & & % $ $ # . @ @ @ @ @ @ @ @ @ @   ",
"  @ @ @ @ @ @ @ @ @ @ @ @ . # $ $ % % & & & & & & & & & & % % $ $ # . @ @ @ @ @ @ @ @ @ @ @ @   ",
"  . @ @ @ @ @ @ @ @ @ @ @ @ @ . # # $ $ $ % % % % % % $ $ $ # # . @ @ @ @ @ @ @ @ @ @ @ @ @ @   ",
"      @ @ @ @ @ @ @ @ @ @ @ @ @ @ @ @ . # # # # # # # # . . @ @ @ @ @ @ @ @ @ @ @ @ @ @ @ @     ",
"                                                                                                "};
