/* XPM */
static char * ion_regtest32_xpm[] = {
"32 32 85 1",
" 	c None",
".	c #000010",
"+	c #000011",
"@	c #00000F",
"#	c #000012",
"$	c #000013",
"%	c #000014",
"&	c #000015",
"*	c #000016",
"=	c #000017",
"-	c #000018",
";	c #000019",
">	c #00001A",
",	c #00001B",
"'	c #0000A0",
")	c #000045",
"!	c #0000AC",
"~	c #0000FE",
"{	c #0000E2",
"]	c #0000C8",
"^	c #0000F7",
"/	c #0000FC",
"(	c #00004C",
"_	c #0000F3",
":	c #000023",
"<	c #000021",
"[	c #000022",
"}	c #000020",
"|	c #0000E1",
"1	c #00005D",
"2	c #00002F",
"3	c #0000EF",
"4	c #000024",
"5	c #000025",
"6	c #00001F",
"7	c #0000E5",
"8	c #0000B6",
"9	c #000026",
"0	c #000027",
"a	c #000055",
"b	c #0000A6",
"c	c #000028",
"d	c #00002A",
"e	c #00001E",
"f	c #0000F9",
"g	c #000029",
"h	c #00002B",
"i	c #00002C",
"j	c #0000F8",
"k	c #000030",
"l	c #000077",
"m	c #000054",
"n	c #000049",
"o	c #000059",
"p	c #0000FA",
"q	c #00002D",
"r	c #00003E",
"s	c #0000F2",
"t	c #000043",
"u	c #000078",
"v	c #0000F6",
"w	c #000044",
"x	c #0000D0",
"y	c #0000D1",
"z	c #000042",
"A	c #0000CB",
"B	c #0000BA",
"C	c #0000FD",
"D	c #000033",
"E	c #00005C",
"F	c #00005F",
"G	c #0000F5",
"H	c #000098",
"I	c #00001D",
"J	c #0000D8",
"K	c #0000C5",
"L	c #000070",
"M	c #00005E",
"N	c #0000DA",
"O	c #0000F4",
"P	c #0000FB",
"Q	c #00001C",
"R	c #0000C6",
"S	c #0000D6",
"T	c #0000B9",
"  .............++............@  ",
" .........+#$$%%%%$$#+......... ",
"........+$%%&******&&%$+.......@",
".......#%&*====--====*&%#.......",
"......$%&==-;>,,,,>;,')*%$+.....",
".....$&*=->,>!~~~~~{~~~]*&$+....",
"....$&*=;,,^~~~~/~~~~~~~=*&$....",
"...#%*=;,(~~_:<[[<}|~~~~;=*%#...",
"..+$&=;,1~~2[[::::[<~~~~3;=*%+..",
"..#&=-,<~~<[44455444[}67~8-=&$..",
".+$*=>,~~[:4590000954:[6~~,=*%+.",
".#%=-,a~b[450cddddc054[}e~f-=%#.",
".$&=;,~~[:50ghhiihhg054[6j~;=&$.",
".$&=>,~f[49chiklllmhc94[}n~o=&$.",
".$*=>p~p:40dhqlllllrd04:<e~]=*$.",
"+$*=s~~~s40ditluullld05:[6~v=*%+",
"+$*=~~~~~40dhwluullld05:[6~v=*%.",
".$*=x~~~y49dhqlllllzd04:<e~A=*$.",
".$&=>B~C[45chhDlllEhc94[}z~F=&$.",
".$&=;,~~[:49ghhhhhhg94:[6G~;=&$.",
".#%*-,F~H[459cddddc954[}I~/-=%#.",
"..$&=>,~~}[4459009544[<6C~e=*$+.",
"..#&=-,0~~<[:444444:[<6J~K-=&#..",
"..+$&=-,L~~9[[::::[[~~~~v-=&$+..",
"...#%*=-,M~~76}<<}}N~~~~;=*%#...",
"....#%*=->,/~~~~OP~~~~~~=*%$....",
".....$%*=-;,QR~~~~~_~~~S*%$.....",
"......#%&==-->>>>>>;4T1&%#......",
".......#$%&*========*&&$#.......",
" ........#$%&&****&&%$#........ ",
" ..........##$$$$$$##.......... ",
"   ++++++++++++++++++++++++++   "};
