/* XPM */
static char * ion_regtest16_xpm[] = {
"16 16 24 1",
" 	c None",
".	c #000000",
"+	c #700000",
"@	c #C80000",
"#	c #B90000",
"$	c #A20000",
"%	c #AB0000",
"&	c #820000",
"*	c #020000",
"=	c #370000",
"-	c #200000",
";	c #FF0000",
">	c #830000",
",	c #C70000",
"'	c #C40000",
")	c #940000",
"!	c #890000",
"~	c #9B0000",
"{	c #8D0000",
"]	c #A60000",
"^	c #7B0000",
"/	c #010000",
"(	c #750000",
"_	c #BE0000",
"                ",
"      ....+@#   ",
"    ..    $@@   ",
"   ..      %&*  ",
"  ..         .. ",
"  .           . ",
" =-     ;     . ",
">,'    ;;;     .",
")@@!   ;;;     .",
" ~{     ;     . ",
"  .           . ",
"  ..         .. ",
"   .       ]^/  ",
"    ..    $@@   ",
"      ....(@_   ",
"                "};
