/* XPM */
static char * ion_testnet48_xpm[] = {
"48 48 165 2",
"  	c None",
". 	c #020B11",
"+ 	c #020C0F",
"@ 	c #020C11",
"# 	c #020D10",
"$ 	c #010C10",
"% 	c #010D11",
"& 	c #010D12",
"* 	c #010E13",
"= 	c #010F14",
"- 	c #010B10",
"; 	c #010F15",
"> 	c #011016",
", 	c #010C11",
"' 	c #011117",
") 	c #011218",
"! 	c #021319",
"~ 	c #02131A",
"{ 	c #01151C",
"] 	c #043041",
"^ 	c #011219",
"/ 	c #02141B",
"( 	c #06394D",
"_ 	c #095C7B",
": 	c #0B6E93",
"< 	c #0B6D93",
"[ 	c #10A3DB",
"} 	c #13BEFE",
"| 	c #0F98CB",
"1 	c #031C26",
"2 	c #0D82AE",
"3 	c #13BEFD",
"4 	c #0C7CA6",
"5 	c #031D27",
"6 	c #11A8E0",
"7 	c #0B7198",
"8 	c #13BAF8",
"9 	c #0B7299",
"0 	c #053446",
"a 	c #021820",
"b 	c #02161E",
"c 	c #02171F",
"d 	c #053345",
"e 	c #11A8E1",
"f 	c #109FD4",
"g 	c #03212D",
"h 	c #021821",
"i 	c #021922",
"j 	c #13BCFC",
"k 	c #12B3F0",
"l 	c #13BDFC",
"m 	c #043040",
"n 	c #021A23",
"o 	c #063B4F",
"p 	c #12B4F0",
"q 	c #11A9E2",
"r 	c #11AEE9",
"s 	c #021B24",
"t 	c #042B3A",
"u 	c #10A3DA",
"v 	c #13BCFB",
"w 	c #109DD2",
"x 	c #11AEE8",
"y 	c #0C749B",
"z 	c #021B25",
"A 	c #11ADE8",
"B 	c #031F29",
"C 	c #021C26",
"D 	c #031D28",
"E 	c #11ABE4",
"F 	c #042E3E",
"G 	c #031E28",
"H 	c #031E29",
"I 	c #042C3B",
"J 	c #11ABE5",
"K 	c #031F2A",
"L 	c #109BD0",
"M 	c #03202B",
"N 	c #0F9ACE",
"O 	c #0E88B6",
"P 	c #0E88B7",
"Q 	c #12B8F6",
"R 	c #03212C",
"S 	c #053548",
"T 	c #074A64",
"U 	c #074A63",
"V 	c #053547",
"W 	c #12B7F5",
"X 	c #0B6C90",
"Y 	c #032431",
"Z 	c #095977",
"` 	c #095876",
" .	c #03232F",
"..	c #0B6A8E",
"+.	c #02151D",
"@.	c #0B7197",
"#.	c #064157",
"$.	c #0E8CBB",
"%.	c #05384B",
"&.	c #095A78",
"*.	c #053649",
"=.	c #02151C",
"-.	c #0A6587",
";.	c #0F92C3",
">.	c #084D67",
",.	c #0C769D",
"'.	c #053A4D",
").	c #084E68",
"!.	c #0C769E",
"~.	c #11A7DF",
"{.	c #05394C",
"].	c #02141C",
"^.	c #0A6689",
"/.	c #042F3F",
"(.	c #12B0EB",
"_.	c #021921",
":.	c #042836",
"<.	c #07435A",
"[.	c #074B64",
"}.	c #11ACE6",
"|.	c #042634",
"1.	c #032532",
"2.	c #12B5F2",
"3.	c #08516C",
"4.	c #08506C",
"5.	c #12B4F1",
"6.	c #0E8FBF",
"7.	c #0E8FC0",
"8.	c #032430",
"9.	c #0F93C4",
"0.	c #0F91C2",
"a.	c #12B0EC",
"b.	c #042734",
"c.	c #12B1EC",
"d.	c #13BAF9",
"e.	c #0D81AC",
"f.	c #11A6DE",
"g.	c #11A5DD",
"h.	c #021720",
"i.	c #03222E",
"j.	c #0E8AB9",
"k.	c #10A4DC",
"l.	c #12B9F7",
"m.	c #053243",
"n.	c #13B9F7",
"o.	c #12B1ED",
"p.	c #13BBFA",
"q.	c #0D83B0",
"r.	c #096080",
"s.	c #02161D",
"t.	c #095F7F",
"u.	c #042633",
"v.	c #12B3EF",
"w.	c #042735",
"x.	c #0F95C7",
"y.	c #0D87B4",
"z.	c #031B25",
"A.	c #074B65",
"B.	c #0B6F94",
"C.	c #0D7FAA",
"D.	c #031B24",
"E.	c #064258",
"F.	c #021A24",
"G.	c #011015",
"H.	c #020B10",
"        . + + + + + + + + + + + + + + + + + @ @ @ @ + + + + + + + + + + + + + + + + + #         ",
"    $ $ $ $ $ $ $ $ $ $ $ $ $ $ $ $ % & & & * * * * & & & % $ $ $ $ $ $ $ $ $ $ $ $ $ $ $ $     ",
"  $ $ $ $ $ $ $ $ $ $ $ $ $ $ % & * * * = = = = = = = = * * * & % $ $ $ $ $ $ $ $ $ $ $ $ $ -   ",
"  $ $ $ $ $ $ $ $ $ $ $ $ & & * = = ; ; ; ; > > > > ; ; ; ; = = * & & $ $ $ $ $ $ $ $ $ $ $ $   ",
"  $ $ $ $ $ $ $ $ $ $ , & * = ; ; > > ' ' ' ' ' ' ' ' ' ' > > ; ; = * & % $ $ $ $ $ $ $ $ $ $   ",
"  $ $ $ $ $ $ $ $ $ & * = ; ; > ' ' ' ' ' ) ) ) ) ) ) ' ' ' ' ' > ; ; = * & $ $ $ $ $ $ $ $ $   ",
"  $ $ $ $ $ $ $ $ & * = ; > ' ' ' ) ) ! ~ ~ ~ ~ ~ ~ ~ ~ ! ) ) { ] ^ > ; = * & $ $ $ $ $ $ $ $   ",
"  $ $ $ $ $ $ $ & * = ; > ' ' ) ^ ~ / / / / ( _ : < _ ( / ~ [ } } } | > ; ; * & , $ $ $ $ $ $   ",
"  $ $ $ $ $ $ & * ; > ' ' ) ^ ~ / / 1 2 3 } } } } } } } } } } } } } } 4 ' > ; = & $ $ $ $ $ $   ",
"  $ $ $ $ $ & * ; > ' ' ) ~ / / 5 6 } } } } } } } } } } } } } } } } } } ' ' > ; * & $ $ $ $ $   ",
"  $ $ $ $ & * = > ' ' ) ~ / / 7 } } } } 8 9 0 a b b c d 7 } } } } } } } ) ' ' > ; * & $ $ $ $   ",
"  $ $ $ , * = ; ' ' ) ~ / / e } } } f g h i i i i i i h a j } } } } } 3 ! ) ' ' ; = * % $ $ $   ",
"  $ $ $ & = ; > ' ) ~ / / k } } l m i i i n n n n n n i i o } } } } } } p ! ) ' > ; = & $ $ $   ",
"  $ $ % * ; > ' ' ~ / / q } } r h i i n s s s s s s s s n i t u v w x } } q ~ ) ' > ; * & $ $   ",
"  $ $ & = ; ' ' ^ / / y } } r h i n s s s z z z z z z s s s n i i a b A } } y ^ ' ' ; = & $ $   ",
"  $ , * = > ' ) ~ / B } } j h i n s s z C C 5 5 5 5 C C z s s n i i a b j } } D ) ' > ; * % $   ",
"  $ & * ; ' ' ^ / / E } } F i n s s z C 5 G H H H H G 5 C z s s n i h c I } } J ^ ' ' ; = & $   ",
"  $ & = ; ' ) ~ / K } } L i n s s z 5 G H K M M M M K B G 5 C s s n i a c N } } G ) ' > = * $   ",
"  , * ; > ' ) ~ / O } } M i s s z 5 G K M M M M M M M M K G 5 z s s i i a 5 } } P ) ' > ; * ,   ",
"  & * ; > ' ^ / / } } Q i n s z C G K M M R R S T U V M M K G C z s n i a c W } } ^ ' ' ; * &   ",
"  & = ; ' ' ~ / b } } X i n s z 5 H M M R Y Z Z Z Z Z `  .M H 5 z s s i h c ..} } +.' ' ; = &   ",
"  & = ; ' ) ~ 5 q } } @.i s s C G K M R g Z Z Z Z Z Z Z ` M K G C s s i i c t } } #.) ' ; = &   ",
"  & = ; ' ) h } } } } } $.s z C G K M R %.Z &.&.&.&.Z Z Z *.M G C z s n i a =.} } -.) ' > = &   ",
"  & = ; ' ) ;.} } } } } } s z 5 H M M g >.Z &.&.&.&.Z Z Z >.M H 5 z s n i a +.} } ,.) ' > = *   ",
"  & = ; ' ) v } } } } } } '.z 5 H M M g ).Z &.&.&.&.Z Z Z >.M H 5 z s n i a +.} } !.) ' > = &   ",
"  & = ; ' ) ~.} } } } } } R z C G K M R ( Z Z &.&.&.Z Z ` {.K G C z s n i a ].} } ^.) ' > = &   ",
"  & = ; ' ' /.} } } } } (.s s C G K M R g Z Z Z Z Z Z Z ` M K G C s s i _.c :.} } <.) ' ; = &   ",
"  & * ; ' ' ! [.} } } }.i n s z 5 H M M R |.Z Z Z Z Z ` 1.M H 5 z s n i h c -.} } c ' ' ; = &   ",
"  % * ; > ' ^ / / } } 2.i n s z C 5 K M M R R o 3.4.o M M K G C z s n i a c 5.} } ^ ' > ; * &   ",
"  , * = > ' ) ~ / 6.} } C i n s z C G K K M M M M M M M K G C z s s i _.c n } } 7.) ' > ; * ,   ",
"  $ & = ; ' ' ~ / 8.} } 9.i n s s z C 5 H K K K M K K H G C z s s n i a c 0.} }  .' ' ; = & $   ",
"  $ & * ; > ' ) / / a.} } b.i n s s z C 5 5 G G G G G 5 C z s s n i h c Y } } c.) ' > ; * & $   ",
"  $ , * = > ' ) ~ / 8.} } d.a i n s s z z C C C C C C z z s s n i h a b d.} }  .) ' > = * , $   ",
"  $ $ & = ; > ' ) ~ / e.} } f.h i n n s s s z z z z s s s n n i h a c g.} } e.) ' ' ; = & $ $   ",
"  $ $ , * = > ' ' ! / / a.} } g.h.i i n n s s s s s s n n i i.0.2.j.k.} } c.! ' ' > = * % $ $   ",
"  $ $ $ & * ; > ' ) ~ / / l.} } d.1.h i i i i n n i i i i m.} } } } } } n.~ ) ' > ; * & $ $ $   ",
"  $ $ $ $ * = ; > ' ) ~ / / o.} } } 6.n a h i i i i h a a p.} } } } } 3 ~ ) ' > ; = * , $ $ $   ",
"  $ $ $ $ & * = ; ' ' ) ~ / / q.} } } } o.r.8.s.c c +. .t.} } } } } } } ) ' ' ; = * & $ $ $ $   ",
"  $ $ $ $ $ & * = ; ' ' ) ! ~ / u.v.} } } } } } } } } } } } } } } } } } ' ' ; = * & $ $ $ $ $   ",
"  $ $ $ $ $ $ & * = ; > ' ' ) ~ / / w.x.} } } } } } } } } } } } } } } y.> ; = * & $ $ $ $ $ $   ",
"  $ $ $ $ $ $ $ & * = ; > ' ' ' ) ~ ~ / / z.A.B.C.C.B.A.D.! r } } } g.> ; = * & $ $ $ $ $ $ $   ",
"  $ $ $ $ $ $ $ $ & * = ; ; > ' ' ' ) ) ! ~ ~ ~ ~ ~ ~ ! ) ) ' K E.F.G.; = * & $ $ $ $ $ $ $ $   ",
"  $ $ $ $ $ $ $ $ $ % & * = ; > > ' ' ' ' ' ' ) ) ) ' ' ' ' ' > > ; = * * & $ $ $ $ $ $ $ $ $   ",
"  $ $ $ $ $ $ $ $ $ $ $ & * * = ; ; > > ' ' ' ' ' ' ' ' > > ; ; = * * & , $ $ $ $ $ $ $ $ $ $   ",
"  $ $ $ $ $ $ $ $ $ $ $ $ , & * * = = ; ; ; ; ; ; ; ; ; ; = = * * & , $ $ $ $ $ $ $ $ $ $ $ $   ",
"  . $ $ $ $ $ $ $ $ $ $ $ $ $ , & & * * * = = = = = = * * * & & , $ $ $ $ $ $ $ $ $ $ $ $ $ H.  ",
"      $ $ $ $ $ $ $ $ $ $ $ $ $ $ $ $ % & & & & & & & & % , $ $ $ $ $ $ $ $ $ $ $ $ $ $ $ #     ",
"                                                                                                "};
