/* XPM */
static char * ion_testnet32_xpm[] = {
"32 32 99 2",
"  	c None",
". 	c #010C10",
"+ 	c #010C11",
"@ 	c #010D0F",
"# 	c #010D12",
"$ 	c #010E13",
"% 	c #010F14",
"& 	c #020C10",
"* 	c #010D11",
"= 	c #010F15",
"- 	c #011016",
"; 	c #020C0F",
"> 	c #011117",
", 	c #011218",
"' 	c #021319",
") 	c #02131A",
"! 	c #02141B",
"~ 	c #01141B",
"{ 	c #0C78A0",
"] 	c #053345",
"^ 	c #0D81AC",
"/ 	c #13BEFE",
"( 	c #11A9E2",
"_ 	c #0F96C8",
": 	c #011219",
"< 	c #13B9F7",
"[ 	c #13BCFC",
"} 	c #05384C",
"| 	c #12B5F3",
"1 	c #021A23",
"2 	c #021821",
"3 	c #021922",
"4 	c #021820",
"5 	c #11A8E1",
"6 	c #07455D",
"7 	c #03232F",
"8 	c #021921",
"9 	c #12B3EF",
"0 	c #021B24",
"a 	c #021B25",
"b 	c #021720",
"c 	c #02171F",
"d 	c #11ABE5",
"e 	c #0E88B6",
"f 	c #021C26",
"g 	c #031D27",
"h 	c #063F55",
"i 	c #0C7CA6",
"j 	c #031E28",
"k 	c #031F2A",
"l 	c #02161E",
"m 	c #13BAF9",
"n 	c #031E29",
"o 	c #03202B",
"p 	c #03212C",
"q 	c #13B9F8",
"r 	c #032330",
"s 	c #095977",
"t 	c #063F54",
"u 	c #053649",
"v 	c #074359",
"w 	c #13BBFA",
"x 	c #03212D",
"y 	c #042E3E",
"z 	c #0F95C8",
"A 	c #12B5F2",
"B 	c #053243",
"C 	c #095A78",
"D 	c #12B8F6",
"E 	c #053344",
"F 	c #095877",
"G 	c #010D10",
"H 	c #109BD0",
"I 	c #109DD1",
"J 	c #053142",
"K 	c #0F98CB",
"L 	c #0E8BBA",
"M 	c #13BDFD",
"N 	c #032633",
"O 	c #07455C",
"P 	c #07475F",
"Q 	c #12B7F5",
"R 	c #0B7298",
"S 	c #02151D",
"T 	c #10A2D8",
"U 	c #0F93C5",
"V 	c #085470",
"W 	c #07465E",
"X 	c #11ACE5",
"Y 	c #10A3DA",
"Z 	c #12B7F4",
"` 	c #13BCFB",
" .	c #02141C",
"..	c #0F94C6",
"+.	c #12B6F3",
"@.	c #10A0D6",
"#.	c #021A24",
"$.	c #0E8AB9",
"%.	c #020C11",
"    . . . . . . . . . . . . . + + . . . . . . . . . . . . @     ",
"  . . . . . . . . . + # $ $ % % % % $ $ # + . . . . . . . . .   ",
"& . . . . . . . * $ % % = - - - - - - = = % $ * . . . . . . . ; ",
". . . . . . . # % = - > > > > , , > > > > - = % # . . . . . . . ",
". . . . . . $ % = > > , ' ) ! ! ! ! ) ' ~ { ] - % $ + . . . . . ",
". . . . . $ = - > , ) ! ) ^ / / / / / ( / / / _ - = $ + . . . . ",
". . . . $ = - > : ! ! < / / / / [ / / / / / / / > - = $ . . . . ",
". . . # % - > ' ! } / / | 1 2 3 3 2 4 5 / / / / ' > - % # . . . ",
". . + $ = > : ! 6 / / 7 3 3 1 1 1 1 3 8 / / / / 9 : > - % + . . ",
". . # = > , ! 8 / / 2 3 0 0 0 a a 0 0 0 3 b c d / e , > = $ . . ",
". + $ - > ) ! / / 3 1 0 a f g g g g f a 0 1 3 c / / ! > - % + . ",
". # % > , ! h / i 3 0 a g j k k k k j g a 0 3 4 l / m , > % # . ",
". $ = > : ! / / 3 1 a g n o o p p o o n g a 0 3 c q / : > = $ . ",
". $ = > ) ! / m 3 0 f j o p r s s s t o j f 0 3 4 u / v > = $ . ",
". $ - > ) w / w 1 0 g k o x s s s s s y k g 0 1 2 l / z > - $ . ",
"+ $ - > A / / / A 0 g k p B s C C s s s k g a 1 3 c / D > - % * ",
"+ $ - > / / / / / 0 g k o E s C C s s F k g a 1 3 c / D > - % G ",
". $ - > H / / / I 0 f k o x s s s s s J k g 0 1 2 l / K > - $ . ",
". $ = > ) L / M 3 0 a j o o N s s s O o j f 0 3 4 J / P > = $ . ",
". $ = > : ! / / 3 1 0 f n o o o o o o n f 0 1 3 c Q / : > = $ . ",
". # % - , ! P / R 3 0 a f j k k k k j f a 0 3 4 S / [ , > % # . ",
". . $ = > ) ! / / 4 3 0 0 a f g g f a 0 0 3 2 c M / l > - $ + . ",
". . # = > , ! g / / 2 3 1 0 0 0 0 0 0 1 3 2 c T / U , > = # . . ",
". . + $ = > , ! V / / f 3 3 1 1 1 1 3 3 / / / / D , > = $ + . . ",
". . . # % - > , ! W / / X c 4 2 2 4 4 Y / / / / : > - % # . . . ",
". . . . # % - > , ) ! [ / / / / Z ` / / / / / / > - % $ . . . . ",
". . . . . $ % - > , ' !  .../ / / / / +./ / / @.- % $ . . . . . ",
". . . . . . # % = > > , , ) ) ) ) ) ) : #.$.6 = % # . . . . . . ",
". . . . . . . # $ % = - > > > > > > > > - = = $ # . . . . . . . ",
"  . . . . . . . . # $ % = = - - - - = = % $ # . . . . . . . .   ",
"  . . . . . . . . . . # # $ $ $ $ $ $ # # . . . . . . . . . .   ",
"      %.%.%.%.%.%.%.%.%.%.%.%.%.%.%.%.%.%.%.%.%.%.%.%.%.%.      "};
