/* XPM */
static char * iond64_xpm[] = {
"64 64 107 2",
"  	c None",
". 	c #A1A1A1",
"+ 	c #CCCCCC",
"@ 	c #E8E8E8",
"# 	c #E5E5E5",
"$ 	c #C5C5C5",
"% 	c #9B9B9B",
"& 	c #ADADAD",
"* 	c #CDCDCD",
"= 	c #EBEBEB",
"- 	c #FFFFFF",
"; 	c #EAEAEA",
"> 	c #ACACAC",
", 	c #DDDDDD",
"' 	c #CECECE",
") 	c #BBBBBB",
"! 	c #F4F4F4",
"~ 	c #ECECEC",
"{ 	c #E4E4E4",
"] 	c #D2D2D2",
"^ 	c #9D9D9D",
"/ 	c #DCDCDC",
"( 	c #C1C1C1",
"_ 	c #A3A3A3",
": 	c #959595",
"< 	c #E1E1E1",
"[ 	c #F1F1F1",
"} 	c #EFEFEF",
"| 	c #F8F8F8",
"1 	c #F3F3F3",
"2 	c #DADADA",
"3 	c #C2C2C2",
"4 	c #DBDBDB",
"5 	c #B4B4B4",
"6 	c #9A9A9A",
"7 	c #B1B1B1",
"8 	c #BDBDBD",
"9 	c #E3E3E3",
"0 	c #AAAAAA",
"a 	c #FCFCFC",
"b 	c #F2F2F2",
"c 	c #A7A7A7",
"d 	c #F5F5F5",
"e 	c #D4D4D4",
"f 	c #AEAEAE",
"g 	c #969696",
"h 	c #F9F9F9",
"i 	c #ABABAB",
"j 	c #C3C3C3",
"k 	c #A2A2A2",
"l 	c #FDFDFD",
"m 	c #E6E6E6",
"n 	c #979797",
"o 	c #FBFBFB",
"p 	c #E9E9E9",
"q 	c #9E9E9E",
"r 	c #FEFEFE",
"s 	c #C8C8C8",
"t 	c #B3B3B3",
"u 	c #999999",
"v 	c #989898",
"w 	c #E7E7E7",
"x 	c #F0F0F0",
"y 	c #D6D6D6",
"z 	c #C7C7C7",
"A 	c #CACACA",
"B 	c #A4A4A4",
"C 	c #FAFAFA",
"D 	c #26A9E0",
"E 	c #25A9DF",
"F 	c #25A8E0",
"G 	c #B7B7B7",
"H 	c #D1D1D1",
"I 	c #25AAE0",
"J 	c #27A8E0",
"K 	c #C0C0C0",
"L 	c #B5B5B5",
"M 	c #26A9DF",
"N 	c #F6F6F6",
"O 	c #CFCFCF",
"P 	c #26ABE1",
"Q 	c #D8D8D8",
"R 	c #BCBCBC",
"S 	c #9C9C9C",
"T 	c #A0A0A0",
"U 	c #DFDFDF",
"V 	c #C6C6C6",
"W 	c #9F9F9F",
"X 	c #26A9E1",
"Y 	c #27ABDF",
"Z 	c #B9B9B9",
"` 	c #E2E2E2",
" .	c #27A9E1",
"..	c #C9C9C9",
"+.	c #26A8E0",
"@.	c #25A9E0",
"#.	c #A6A6A6",
"$.	c #A9A9A9",
"%.	c #F7F7F7",
"&.	c #BFBFBF",
"*.	c #B6B6B6",
"=.	c #B2B2B2",
"-.	c #DEDEDE",
";.	c #EDEDED",
">.	c #B0B0B0",
",.	c #949494",
"'.	c #EEEEEE",
"                                                                                                                                ",
"                                                                                                                                ",
"                                                                                                                                ",
"                                                                                        . + @ # $ %                             ",
"                                                      & * = - - - - - - - - ; + >     , - - - - - - '                           ",
"                                                ) ! - - - - - - - - - - - - - - - ~ { - - - - - - - - ]                         ",
"                                          ^ / - - - - - - - - - - - - - - - - - - ( - - - - - - - - - - _                       ",
"                                      : < - - - - - - - - - - - - [ } - - - - - | 1 - - - - - - - - - - 2                       ",
"                                    3 - - - - - - - - 4 5 %                 6 7 8 - - - - - - - - - - - -                       ",
"                                  @ - - - - - - 9 0                               - - - - - - - - - - - -                       ",
"                              _ a - - - - - 4 %                                   - - - - - - - - - - - b                       ",
"                            c - - - - - d 0                                       e - - - - - - - - - - $ f                     ",
"                          & - - - - - ]                                           g - - - - - - - - - h 4 - i                   ",
"                        _ - - - - - 5                                               i - - - - - - - a j - - - k                 ",
"                        l - - - - f                                                   % m - - - - 4 n o - - - l                 ",
"                      p - - - - c                                                           q ^       % r - - - =               ",
"                    s - - - - t                                                                         c - - - - $             ",
"                  u - - - - ]                                                                             ( - - - - v           ",
"                  w - - - x                                                                                 # - - - #           ",
"                _ - - - - .                                                                                 v - - - - .         ",
"                # - - - y                                                                                     z - - - {         ",
"              u - - - - v                                                                                       - - - - u       ",
"              $ - - - 4                                                                                         A - - - j       ",
"              o - - - B                                                                                         6 - - - C       ",
"            6 - - - o                                           D E D D F                                         [ - - - u     ",
"            G - - - H                                       D I I I I I I I J                                     K - - - L     ",
"            / a - - >                                     D I I I I I I I I I M                                   . - - - 2     ",
"          G @ - N O 6                                   D I I I I I I I I I I I D                                   - - - h     ",
"      % | - - - - - - $                               D I I I I I I I I I I I I I P                                 l - - -     ",
"      a - - - - - - - - K                             I I I I I I I I I I I I I I M                                 # - - -     ",
"    , - - - - - - - - - -                             I I I I I I I I I I I I I I I                                 Q - - - n   ",
"    - - - - - - - - - - - R                           I I I I I I I I I I I I I I I                                 ' - - - S   ",
"  T - - - - - - - - - - - 2                           I I I I I I I I I I I I I I I                                 + - - - ^   ",
"  _ - - - - - - - - - - - U                           I I I I I I I I I I I I I I I                                 e - - - v   ",
"  g - - - - - - - - - - - V                           I I I I I I I I I I I I I I I                                 U - - -     ",
"    x - - - - - - - - - - W                           X I I I I I I I I I I I I I Y                                 h - - -     ",
"    B - - - - - - - - - /                               I I I I I I I I I I I I D                                   - - - l     ",
"      Z - - - - - - - w                                   I I I I I I I I I I I                                   6 - - - `     ",
"        W # - - - | )                                       D I I I I I I I  .                                    G - - - R     ",
"            g ..H 1 !                                           +.I I I @.                                        # - - - q     ",
"              - - - - 6                                                                                           - - - r       ",
"              H - - - ..                                                                                        Z - - - O       ",
"              . - - - -                                                                                         h - - - T       ",
"                b - - - (                                                                                     5 - - - x         ",
"                & - - - -                                                                                     C - - - i         ",
"                  ! - - - /                                                                                 ' - - - b           ",
"                  #.- - - - 5                                                                             $.- - - - _           ",
"                    2 - - - - %                                                                           a - - - Q             ",
"                      N - - - h                                                                         x - - - %.              ",
"                      . - - - - 1                                                       &.N - - [ *.  ; - - - - T               ",
"                        G - - - - | u                                               g d - - - - - - ~ e - - - *.                ",
"                          ( - - - - r =.                                            N - - - - - - - - ; = - j                   ",
"                            $ - - - - - e                                         $ - - - - - - - - - - K j                     ",
"                              Z - - - - - a *.                                    o - - - - - - - - - - w                       ",
"                                B h - - - - - C Z                                 - - - - - - - - - - - -                       ",
"                                    -.- - - - - - - < t v                     : . - - - - - - - - - - - -                       ",
"                                      $.N - - - - - - - - - [ e ..K &...] ;.- - [ C - - - - - - - - - - @                       ",
"                                          t N - - - - - - - - - - - - - - - - - - ..- - - - - - - - - - >.                      ",
"                                              c / - - - - - - - - - - - - - - - - 4 d - - - - - - - - @                         ",
"                                                    #.s ! - - - - - - - - - - ! s #.,.! - - - - - - p                           ",
"                                                              q _ #.#.k q               8 ! - - '.5                             ",
"                                                                                                                                ",
"                                                                                                                                ",
"                                                                                                                                "};
