/* XPM */
static char * iond32_xpm[] = {
"32 32 10 1",
" 	c None",
".	c #FFFFFF",
"+	c #26ABE1",
"@	c #26AAE1",
"#	c #25A8DF",
"$	c #25AAE0",
"%	c #26A9E0",
"&	c #25A8E0",
"*	c #25A9E1",
"=	c #25AAE1",
"                                ",
"                                ",
"               ..    ...        ",
"           ..............       ",
"         ......  ........       ",
"       ....        ......       ",
"      ....          ......      ",
"     ...             ......     ",
"     ..                  ..     ",
"    ...                   ..    ",
"    ..                    ..    ",
"   ..                      ..   ",
"   ..          +@          ..   ",
"   ..        #$$$$@        ..   ",
" .....       $$$$$$        ..   ",
" .....      %$$$$$$&        ..  ",
" .....      %$$$$$$+        ..  ",
" .....       $$$$$$        ..   ",
" .....       *$$$$%        ..   ",
"   ..          *=          ..   ",
"   ..                      ..   ",
"    ..                    ..    ",
"    ...                   ..    ",
"     ..                  ..     ",
"      ..            ......      ",
"      ....          ......      ",
"        ...        ......       ",
"         ................       ",
"           ..............       ",
"                     ..         ",
"                                ",
"                                "};
