/* XPM */
static char * iond_testnet48_xpm[] = {
"48 48 37 1",
" 	c None",
".	c #12BEFD",
"+	c #12BDFB",
"@	c #13BDFD",
"#	c #13BFFF",
"$	c #13BAF9",
"%	c #13BDFE",
"&	c #13C0FF",
"*	c #12B6F3",
"=	c #13BEFD",
"-	c #14BEFF",
";	c #13BBFA",
">	c #13B9F7",
",	c #13BEFF",
"'	c #13BEFE",
")	c #14BDFD",
"!	c #12BBFA",
"~	c #12BCFC",
"{	c #12BBFC",
"]	c #12BBF9",
"^	c #14BEFE",
"/	c #14BAFB",
"(	c #12BDFE",
"_	c #12BAF8",
":	c #12BAFA",
"<	c #13BBFB",
"[	c #14BFFE",
"}	c #13BDFC",
"|	c #12BDFC",
"1	c #14BFFF",
"2	c #14BDFC",
"3	c #12BDFD",
"4	c #13B8F8",
"5	c #14BCFC",
"6	c #12B8F5",
"7	c #13BCFB",
"8	c #12BCFA",
"                                                ",
"                                                ",
"                                                ",
"                                                ",
"                                                ",
"                                                ",
"                                                ",
"                        .+    @###$             ",
"                   %&##############*            ",
"                 ###################            ",
"               =####-;      >#######            ",
"              ,###'          ,#####&            ",
"             ####             #######           ",
"            '##,               ,#)###'          ",
"           @##'                    '##!         ",
"           ##,                      ,##         ",
"          ,##                        ##'        ",
"          ##%                        @##        ",
"         ~##                          ##{       ",
"         ##,                          ###       ",
"         ##+                          ]##       ",
"        ###;                           ##       ",
"       #####^                          ##/      ",
"      (######                          ##_      ",
"      #######                          ##:      ",
"      -######                          ##<      ",
"       #####[                          ##       ",
"        ###'                          >##       ",
"         ##,                          ,##       ",
"         '##                          ##}       ",
"          ##|                        |##        ",
"          -##                        ##1        ",
"           ##,                      ,##         ",
"           2##3                    ,##4         ",
"            1##'               '#5###'          ",
"             ###1             ######-           ",
"              ,###}          ######&            ",
"               }#####        #######            ",
"                 ###################            ",
"                   '###############6            ",
"                       )337   %###8             ",
"                                                ",
"                                                ",
"                                                ",
"                                                ",
"                                                ",
"                                                ",
"                                                "};
