/* XPM */
static char * iond_testnet32_xpm[] = {
"32 32 20 1",
" 	c None",
".	c #13B9F7",
"+	c #14BDFD",
"@	c #13BFFF",
"#	c #13BEFE",
"$	c #13BAF9",
"%	c #14BEFF",
"&	c #13BEFF",
"*	c #12BBF9",
"=	c #13BCFC",
"-	c #14BFFF",
";	c #13BDFC",
">	c #13C0FF",
",	c #12BCFD",
"'	c #12BEFE",
")	c #14BEFE",
"!	c #13BBFA",
"~	c #13BDFE",
"{	c #14BDFC",
"]	c #13BBFB",
"                                ",
"                                ",
"                                ",
"                                ",
"                     .          ",
"             +@@@@@#@@@$        ",
"           %@@@@&@@@@@@@        ",
"          @@@      #@@@@        ",
"         @@         @@@@&       ",
"        @@             @@*      ",
"       @@               @@      ",
"       @=                @&     ",
"      @@                 %@     ",
"      @-                  @     ",
"     @@@                  @;    ",
"    &@@@&                 @&    ",
"    @@@@@                 @>    ",
"    ,@@@'                 @#    ",
"     )@&                  @     ",
"      @@                 @@     ",
"       @!                @@     ",
"       @@               &@      ",
"        @@             @@!      ",
"         @@         @@@@@       ",
"          @@~      ~@@@@        ",
"           &@@@@&@@@@@@@        ",
"             {@@@@@@@@@!        ",
"                     ]          ",
"                                ",
"                                ",
"                                ",
"                                "};
