/* XPM */
static char * iond_testnet128_xpm[] = {
"128 128 71 1",
" 	c None",
".	c #13BDFC",
"+	c #14BFFF",
"@	c #13BFFF",
"#	c #13BEFF",
"$	c #13BCFB",
"%	c #13BBFB",
"&	c #13BBFA",
"*	c #13BAFB",
"=	c #14BEFD",
"-	c #14BEFF",
";	c #14BDFE",
">	c #13BBFC",
",	c #13BEFE",
"'	c #13BDFE",
")	c #13B2EE",
"!	c #13C0FF",
"~	c #12BEFE",
"{	c #13BAF9",
"]	c #14BEFE",
"^	c #12BBFB",
"/	c #14C0FF",
"(	c #13BCFA",
"_	c #11B6F5",
":	c #13BDFD",
"<	c #13BAFA",
"[	c #13BAF8",
"}	c #12BBFA",
"|	c #13B5F4",
"1	c #12B9F9",
"2	c #12B8F6",
"3	c #12BDFB",
"4	c #12B3EF",
"5	c #14BCFB",
"6	c #13BCFC",
"7	c #13BBF9",
"8	c #12BDFC",
"9	c #12B9F7",
"0	c #12B6F3",
"a	c #12B7F5",
"b	c #14BDFC",
"c	c #12B8F7",
"d	c #14BCFD",
"e	c #13BDFF",
"f	c #12BAFA",
"g	c #12B7F7",
"h	c #12BFFF",
"i	c #13B8F8",
"j	c #13B9F8",
"k	c #13B9F7",
"l	c #13B9F6",
"m	c #12BAF9",
"n	c #12BCFC",
"o	c #13B7F5",
"p	c #13BFFE",
"q	c #12BEFD",
"r	c #14BFFE",
"s	c #12B6F5",
"t	c #14BDFD",
"u	c #12B5F1",
"v	c #14BBFA",
"w	c #13BBF8",
"x	c #12B7F6",
"y	c #11B3F0",
"z	c #13B7F4",
"A	c #13B7F6",
"B	c #12B8F5",
"C	c #13B8F7",
"D	c #12BCFE",
"E	c #13B9F9",
"F	c #11ABE3",
"                                                                                                                                ",
"                                                                                                                                ",
"                                                                                                                                ",
"                                                                                                                                ",
"                                                                                                                                ",
"                                                                                                                                ",
"                                                                                                                                ",
"                                                                                                                                ",
"                                                                                                                                ",
"                                                                                                                                ",
"                                                                                                                                ",
"                                                                                                                                ",
"                                                                                                                                ",
"                                                                                                                                ",
"                                                                                                                                ",
"                                                                                                                                ",
"                                                                                                                                ",
"                                                                                                                                ",
"                                                                                   .+@#@@$                                      ",
"                                                                                 %@@@@@@@@#&                                    ",
"                                                           *=#+@@+##+@@-;>      ,@@@@@@@@@@@@                                   ",
"                                                       '#@@@@@@@@@@@@@@@@@@#@@),@@@@@@@@@@@@@!                                  ",
"                                                    ~+@@@@@@@@@@@@@@@@@@@@@@@@@@@@@@@@@@@@@@@@{                                 ",
"                                                 .@!@@@@@@@@@@@@@@@@@@@@@@@@@@@@@@@@@@@@@@@@@@#                                 ",
"                                               ]@@@@@@@@@@@@@@@@@@@@@@@@@@@@@@@@@@@@@@@@@@@@@@@%                                ",
"                                             .#@@@@@@@@@@@@@@@@@@@@@@@@@@@@@@@@@@@@@@@@@@@@@@@@@                                ",
"                                           ^@@@@@@@@@@@@@@@@@!@+##@@/@@#@@@@@@@@@@@@@@@@@@@@@@@+                                ",
"                                          ,!@@@@@@@@@@@@##](             _'+@@@@@@@@@@@@@@@@@@@@                                ",
"                                        :+@@@@@@@@@@@#@<                     /@@@@@@@@@@@@@@@@@@                                ",
"                                       '#@@@@@@@@@@-;                        ,@@@@@@@@@@@@@@@@@@                                ",
"                                      '@@@@@@@@@@@<                           @@@@@@@@@@@@@@@@@[                                ",
"                                     -@@@@@@@@@!}                             @@@@@@@@@@@@@@@@@@|                               ",
"                                    @@@@@@@@@@'                               1#@@@@@@@@@@@@@@@@@2                              ",
"                                   @@@@@@@@@+3                                 %@@@@@@@@@@@@@@@@@#2                             ",
"                                  #@@@@@@@@@                                    ~#@@@@@@@@@@@@@@@@@4                            ",
"                                 #@@@@@@@@:                                       +@@@@@@@@@@@@@@@@@                            ",
"                                ,@@@@@@@@5                                          '@#@+   #@@@@@@@@                           ",
"                               =@@@@@@@@6                                                    -@@@@@@@]                          ",
"                               #@@@@@@@6                                                      !@@@@@@@7                         ",
"                              -@@@@@@@8                                                        @@@@@@@#                         ",
"                             ,@@@@@@@#                                                         8@@@@@@@#                        ",
"                             #@@@@@@@                                                           '@@@@@@@9                       ",
"                            #@@@@@@#                                                             +@@@@@@@                       ",
"                            #@@@@@@8                                                              @@@@@@@8                      ",
"                           #@@@@@@@                                                               ,@@@@@@#                      ",
"                           !@@@@@!0                                                                #@@@@@@.                     ",
"                          #@@@@@@-                                                                 6@@@@@@@                     ",
"                          #@@@@@!                                                                   @@@@@@@{                    ",
"                         ,@@@@@@@                                                                   6@@@@@@@                    ",
"                         #@@@@@@a                                                                    +@@@@@@                    ",
"                         @@@@@@@                                                                     ,@@@@@@b                   ",
"                        '@@@@@@'                                                                      #@@@@@@                   ",
"                        -@@@@@#                                                                       #@@@@@!                   ",
"                        #@@@@@#                                                                       .@@@@@@[                  ",
"                        @@@@@@@                                                                        @@@@@@'                  ",
"                       '@@@@@@7                                                                        @@@@@@@                  ",
"                       @@@@@@!                                                                         @@@@@@@                  ",
"                     ##@@@@@@@]                                                                        #@@@@@@                  ",
"                    #@@@@@@@@@@@                                                                       c@@@@@@a                 ",
"                   -@@@@@@@@@@@@-                                                                       @@@@@@d                 ",
"                  /@@@@@@@@@@@@@@+                                                                      @@@@@@e                 ",
"                 f@@@@@@@@@@@@@@@@-                                                                     #@@@@@+                 ",
"                 #@@@@@@@@@@@@@@@@@                                                                     #@@@@@#                 ",
"                 @@@@@@@@@@@@@@@@@!                                                                     #@@@@@@                 ",
"                g@@@@@@@@@@@@@@@@@@h                                                                    #@@@@@#                 ",
"                <@@@@@@@@@@@@@@@@@@@                                                                    #@@@@@+                 ",
"                i@@@@@@@@@@@@@@@@@@@                                                                    #@@@@@-                 ",
"                 !@@@@@@@@@@@@@@@@@                                                                     @@@@@@+                 ",
"                 #@@@@@@@@@@@@@@@@+                                                                     @@@@@@@                 ",
"                 6@@@@@@@@@@@@@@@@@                                                                    j@@@@@@k                 ",
"                  !@@@@@@@@@@@@@@!                                                                     ]@@@@@@                  ",
"                  l#@@@@@@@@@@@@#$                                                                     @@@@@@#                  ",
"                   m#@@@@@@@@@@#n                                                                      @@@@@@#                  ",
"                     @@@@@@@@@-                                                                        @@@@@@@                  ",
"                      $+@@@@@@+                                                                       .@@@@@@o                  ",
"                        @@@@@@#                                                                       @@@@@@@                   ",
"                        p@@@@@@6                                                                      #@@@@@#                   ",
"                         @@@@@@+                                                                     q@@@@@@r                   ",
"                         +@@@@@!                                                                     @@@@@@@                    ",
"                         @@@@@@@-                                                                   k@@@@@@@                    ",
"                          #@@@@@#                                                                   @@@@@@@$                    ",
"                          @@@@@@@,                                                                 s@@@@@@#                     ",
"                          ^!@@@@@#                                                                 #@@@@@@t                     ",
"                           +@@@@@@@                                                               6@@@@@@#                      ",
"                           :@@@@@@@&                                                              @@@@@@@'                      ",
"                            #@@@@@@@                                                             -@@@@@@@                       ",
"                             #@@@@@@@                                                           r@@@@@@@$                       ",
"                             -@@@@@@@]                                                          #@@@@@@@                        ",
"                              #@@@@@@@6                                                        +@@@@@@!u                        ",
"                               #@@@@@@#v                                                      @@@@@@@@6                         ",
"                               .@@@@@@@@$                                                    #@@@@@@@#                          ",
"                                -@@@@@@@#w                                          %6@nx   #@@@@@@@!                           ",
"                                 @@@@@@@@#'                                       +@@@@@@#/#@@@@@@@#y                           ",
"                                  +@@@@@@@@'                                    :@@@@@@@@@@@@@@@@@@z                            ",
"                                   #@@@@@@@@#                                  n#@@@@@@@@@@@@@@@@@A                             ",
"                                    #@@@@@@@@@$                                @@@@@@@@@@@@@@@@@@c                              ",
"                                     +@@@@@@@@@@B                             @@@@@@@@@@@@@@@@@#x                               ",
"                                      #@@@@@@@@@@#                            !@@@@@@@@@@@@@@@@C                                ",
"                                       @@@@@@@@@@@!@x                        D@@@@@@@@@@@@@@@@@@                                ",
"                                        %@@@@@@@@@@@@#,                      @@@@@@@@@@@@@@@@@@@                                ",
"                                          @@@@@@@@@@@@@@@-}               9##@@@@@@@@@@@@@@@@@@!                                ",
"                                           .#@@@@@@@@@@@@@@@!+@-#+#+!@+@#@@@@@@@@@@@@@@@@@@@@@@#                                ",
"                                             @#@@@@@@@@@@@@@@@@@@@@@@@@@@@@@@@@@@@@@@@@@@@@@@@@+                                ",
"                                               !#@@@@@@@@@@@@@@@@@@@@@@@@@@@@@@@@@@@@@@@@@@@@@@,                                ",
"                                                 @@@@@@@@@@@@@@@@@@@@@@@@@@@@@@@@@@@@@@@@@@@@@#                                 ",
"                                                   :@#@@@@@@@@@@@@@@@@@@@@@@@@@@@@@@@@@@@@@@@@,                                 ",
"                                                      $@+!@@@@@@@@@@@@@@@@@@@@o@@@@@@@@@@@@@@+                                  ",
"                                                          E'@-+#######@@+,:     !@@@@@@@@@@@#                                   ",
"                                                                                 .!@@@@@@@@,                                    ",
"                                                                                   p@!!!@#F                                     ",
"                                                                                                                                ",
"                                                                                                                                ",
"                                                                                                                                ",
"                                                                                                                                ",
"                                                                                                                                ",
"                                                                                                                                ",
"                                                                                                                                ",
"                                                                                                                                ",
"                                                                                                                                ",
"                                                                                                                                ",
"                                                                                                                                ",
"                                                                                                                                ",
"                                                                                                                                ",
"                                                                                                                                ",
"                                                                                                                                ",
"                                                                                                                                ",
"                                                                                                                                ",
"                                                                                                                                "};
