/* XPM */
static char * iond_testnet48_xpm[] = {
"48 48 155 2",
"  	c None",
". 	c #649E7B",
"+ 	c #63B081",
"@ 	c #62B181",
"# 	c #64A77E",
"$ 	c #9B9B9B",
"% 	c #B7B7B7",
"& 	c #DADADA",
"* 	c #F9F9F9",
"= 	c #FFFFFF",
"- 	c #89978F",
"; 	c #5EBA82",
"> 	c #4FC07B",
", 	c #53BF7D",
"' 	c #639B79",
") 	c #BDBDBD",
"! 	c #F6F6F6",
"~ 	c #66B886",
"{ 	c #52BF7C",
"] 	c #C8C8C8",
"^ 	c #EFEFEF",
"/ 	c #FEFEFE",
"( 	c #BAD0C2",
"_ 	c #63AD80",
": 	c #ABABAB",
"< 	c #FAFAFA",
"[ 	c #F3F3F3",
"} 	c #BFBFBF",
"| 	c #A0A0A0",
"1 	c #9E9E9E",
"2 	c #79A78A",
"3 	c #CECECE",
"4 	c #D9D9D9",
"5 	c #9D9D9D",
"6 	c #64A07C",
"7 	c #5EB881",
"8 	c #E1E1E1",
"9 	c #E9E9E9",
"0 	c #50C17C",
"a 	c #74B18C",
"b 	c #E6E6E6",
"c 	c #C3C3C3",
"d 	c #62B081",
"e 	c #56BF7F",
"f 	c #D9E4DD",
"g 	c #E5E5E5",
"h 	c #DCDCDC",
"i 	c #ADADAD",
"j 	c #62B382",
"k 	c #58BC7F",
"l 	c #B5CDBE",
"m 	c #C0C0C0",
"n 	c #A8A8A8",
"o 	c #64AA80",
"p 	c #B4B4B4",
"q 	c #AAAAAA",
"r 	c #EBEBEB",
"s 	c #D2D2D2",
"t 	c #C9C9C9",
"u 	c #F4F4F4",
"v 	c #F0F0F0",
"w 	c #B0B0B0",
"x 	c #EEEEEE",
"y 	c #9F9F9F",
"z 	c #F7F7F7",
"A 	c #CDCDCD",
"B 	c #BBBBBB",
"C 	c #B1B1B1",
"D 	c #CBCBCB",
"E 	c #FBFBFB",
"F 	c #00A23F",
"G 	c #969696",
"H 	c #F5F5F5",
"I 	c #00A440",
"J 	c #EAEAEA",
"K 	c #69AD84",
"L 	c #64B985",
"M 	c #68B787",
"N 	c #7BAC8E",
"O 	c #A6A6A6",
"P 	c #65A17C",
"Q 	c #51C07C",
"R 	c #5BBA81",
"S 	c #B9B9B9",
"T 	c #50C07B",
"U 	c #5FB781",
"V 	c #00A33F",
"W 	c #C6C6C6",
"X 	c #999999",
"Y 	c #5CBA81",
"Z 	c #649F7B",
"` 	c #989898",
" .	c #D0D0D0",
"..	c #5DB881",
"+.	c #649E7A",
"@.	c #64AA7F",
"#.	c #A7A7A7",
"$.	c #BCBCBC",
"%.	c #57BE80",
"&.	c #63AA7F",
"*.	c #A9A9A9",
"=.	c #5BBB80",
"-.	c #4FBF7B",
";.	c #64AC80",
">.	c #00A540",
",.	c #E0E0E0",
"'.	c #67987B",
").	c #83B697",
"!.	c #8AB99C",
"~.	c #C8D8CE",
"{.	c #00A53E",
"].	c #FDFDFD",
"^.	c #D5D5D5",
"/.	c #A4A4A4",
"(.	c #EDEDED",
"_.	c #E3E3E3",
":.	c #A2A2A2",
"<.	c #A5A5A5",
"[.	c #F2F2F2",
"}.	c #E7E7E7",
"|.	c #B2B2B2",
"1.	c #B6B6B6",
"2.	c #A3A3A3",
"3.	c #FCFCFC",
"4.	c #979797",
"5.	c #639C79",
"6.	c #F8F8F8",
"7.	c #63A67E",
"8.	c #52BF7D",
"9.	c #5FB681",
"0.	c #CDD9D2",
"a.	c #E8E8E8",
"b.	c #63A87D",
"c.	c #5CBC81",
"d.	c #ECF1EE",
"e.	c #F1F1F1",
"f.	c #D1D1D1",
"g.	c #51BF7C",
"h.	c #7EB494",
"i.	c #60B782",
"j.	c #D3D3D3",
"k.	c #6FA183",
"l.	c #5DBA81",
"m.	c #959595",
"n.	c #DEDEDE",
"o.	c #D4D4D4",
"p.	c #ADC9B8",
"q.	c #FAFBFB",
"r.	c #5EBB82",
"s.	c #8AA093",
"t.	c #64A57D",
"u.	c #9C9C9C",
"v.	c #5CB981",
"w.	c #61B281",
"x.	c #639678",
"                                                                                                ",
"                                                                                                ",
"                                                                  . + @ #                       ",
"                                      $ % & * = = = = = * & % - ; > > > > , '                   ",
"                                  ) ! = = = = = = = = = = = = ~ > > > > > > {                   ",
"                              ] = = = = = = = = = ^ / = = = ( > > > > > > > > _                 ",
"                          : < = = = = [ } |               1 2 > > > > > > > > ;                 ",
"                        3 = = = = 4 5                       6 > > > > > > > > 7                 ",
"                      8 = = = 9 $                             0 > > > > > > > a                 ",
"                    b = = = c                                 d > > > > > > e f g               ",
"                  h = = = i                                     j > > > > k l = = &             ",
"                m = = = n                                           # o .   | = = = )           ",
"              5 = = = p                                                       q = = = $         ",
"              r = = s                                                           t = = 9         ",
"            : = = *                                                               u = = q       ",
"            v = = w                                                               n = = x       ",
"          y = = z                                                                   ^ = = 1     ",
"          A = = B                                                                   C = = D     ",
"          E = =                                   F                                   = = <     ",
"        G = = H                               I I I I I I                             J = =     ",
"        K L M N                             I I I I I I I I                           m = = O   ",
"    P Q > > > > R                         I I I I I I I I I I                         : = = S   ",
"    T > > > > > > U                     V I I I I I I I I I I                         1 = = W   ",
"  d > > > > > > > >                     I I I I I I I I I I I                         X = = 3   ",
"  Y > > > > > > > > Z                   I I I I I I I I I I I                         ` = =  .  ",
"  ..> > > > > > > > +.                  I I I I I I I I I I I                         5 = = ]   ",
"  @.> > > > > > > Q                       I I I I I I I I I I                         #.= = $.  ",
"    %.> > > > > > &.                      F I I I I I I I I                           B = = *.  ",
"      =.> > > -.;.                          >.I I I I I I                             ,.= = `   ",
"        '.).!.~.                                {.I I                                 = = ].    ",
"          ^.= = C                                                                   n = = s     ",
"          /.= = (.                                                                  _.= = :.    ",
"            z = = <.                                                              1 = = !       ",
"            p = = [.                                                              }.= = |.      ",
"              u = = m                                                           1.= = [         ",
"              O = = = 2.                                                      $ = = = /.        ",
"                3 = = 3.4.                                          5.Z       6.= = A           ",
"                  r = = * X                                     7.8.> > > 9.0.= = a.            ",
"                    [ = = ].q                                 b.> > > > > > c.d.e.              ",
"                      ^ = = = f.                              g.> > > > > > > h.                ",
"                        8 = = = 3.B                         . > > > > > > > > i.                ",
"                          } = = = = = j.#.                  k.> > > > > > > > l.                ",
"                            m.n.= = = = = = 3.8 o.t o.n.E = p.> > > > > > > > d                 ",
"                                $ ^.= = = = = = = = = = = = q.r.> > > > > > 0                   ",
"                                      q 3 6.= = = = = = = 6.A s.%.> > > > 0 t.                  ",
"                                                X u.X             o v.=.w.x.                    ",
"                                                                                                ",
"                                                                                                "};
