/* XPM */
static char * iond_regtest48_xpm[] = {
"48 48 2 1",
" 	c None",
".	c #0000FF",
"                                                ",
"                                                ",
"                                                ",
"                                                ",
"                                                ",
"                                                ",
"                                                ",
"                        ..    .....             ",
"                   .................            ",
"                 ...................            ",
"               .......      ........            ",
"              .....          .......            ",
"             ....             .......           ",
"            ....               .......          ",
"           ....                    ....         ",
"           ...                      ...         ",
"          ...                        ...        ",
"          ...                        ...        ",
"         ...                          ...       ",
"         ...                          ...       ",
"         ...                          ...       ",
"        ....                           ..       ",
"       ......                          ...      ",
"      .......                          ...      ",
"      .......                          ...      ",
"      .......                          ...      ",
"       ......                          ..       ",
"        ....                          ...       ",
"         ...                          ...       ",
"         ...                          ...       ",
"          ...                        ...        ",
"          ...                        ...        ",
"           ...                      ...         ",
"           ....                    ....         ",
"            ....               .......          ",
"             ....             .......           ",
"              .....          .......            ",
"               .......      ........            ",
"                 ...................            ",
"                   .................            ",
"                       ....   .....             ",
"                                                ",
"                                                ",
"                                                ",
"                                                ",
"                                                ",
"                                                ",
"                                                "};
