/* XPM */
static char * iond_testnet16_xpm[] = {
"16 16 63 1",
" 	c None",
".	c #9E9E9E",
"+	c #CDCDCD",
"@	c #F8F8F8",
"#	c #FFFFFF",
"$	c #73AE8B",
"%	c #4FC07B",
"&	c #57BE80",
"*	c #D4D4D4",
"=	c #9A9A9A",
"-	c #60B782",
";	c #679076",
">	c #E0E0E0",
",	c #AEAEAE",
"'	c #639878",
")	c #5EBA82",
"!	c #69AD84",
"~	c #DBDCDB",
"{	c #BBBBBB",
"]	c #B9B9B9",
"^	c #B7B7B7",
"/	c #F3F3F3",
"(	c #F0F0F0",
"_	c #82998B",
":	c #A2B0A8",
"<	c #BEBEBE",
"[	c #A0A0A0",
"}	c #659F7B",
"|	c #50C17C",
"1	c #51BF7C",
"2	c #00A440",
"3	c #A9A9A9",
"4	c #AFAFAF",
"5	c #63AB80",
"6	c #64A27C",
"7	c #A8A8A8",
"8	c #B0B0B0",
"9	c #63B583",
"0	c #67B284",
"a	c #00A53F",
"b	c #BCBCBC",
"c	c #F1F1F1",
"d	c #EEEEEE",
"e	c #BFBFBF",
"f	c #B4B4B4",
"g	c #B2B2B2",
"h	c #BDBDBD",
"i	c #E5E5E5",
"j	c #A7A7A7",
"k	c #5FB581",
"l	c #6CA984",
"m	c #E1E1E1",
"n	c #DADADA",
"o	c #CCCCCC",
"p	c #959595",
"q	c #61B782",
"r	c #6A9079",
"s	c #A2A2A2",
"t	c #FEFEFE",
"u	c #EFEFEF",
"v	c #71B08A",
"w	c #55BE7E",
"x	c #629776",
"                ",
"     .+@#@$%&   ",
"    **=   -%%;  ",
"   >,     ')!~  ",
"  {]         ^] ",
"  /           ( ",
" _:           <[",
"}|1    222    34",
"5%%6   222    78",
" 90     a     b[",
"  c           d ",
"  ef         gh ",
"   ij      klm  ",
"    nop   q%%r  ",
"     s*tutv%w   ",
"           x    "};
