/* XPM */
static char * iond_regtest64_xpm[] = {
"64 64 167 2",
"  	c None",
". 	c #C85C5C",
"+ 	c #EA5151",
"@ 	c #F84343",
"# 	c #F74545",
"$ 	c #E65353",
"% 	c #C35D5D",
"& 	c #ADADAD",
"* 	c #CDCDCD",
"= 	c #EBEBEB",
"- 	c #FFFFFF",
"; 	c #EAEAEA",
"> 	c #CCCCCC",
", 	c #ACACAC",
"' 	c #F44A4A",
") 	c #FF3737",
"! 	c #EC5050",
"~ 	c #BBBBBB",
"{ 	c #F4F4F4",
"] 	c #EDDDDD",
"^ 	c #F74747",
"/ 	c #EE4D4D",
"( 	c #9D9D9D",
"_ 	c #DCDCDC",
": 	c #DD6868",
"< 	c #CA5C5C",
"[ 	c #959595",
"} 	c #E1E1E1",
"| 	c #F1F1F1",
"1 	c #EFEFEF",
"2 	c #F8F3F3",
"3 	c #FC3E3E",
"4 	c #F24B4B",
"5 	c #C2C2C2",
"6 	c #DBDBDB",
"7 	c #B4B4B4",
"8 	c #9B9B9B",
"9 	c #9A9A9A",
"0 	c #B1B1B1",
"a 	c #C7A1A1",
"b 	c #E8E8E8",
"c 	c #E3E3E3",
"d 	c #AAAAAA",
"e 	c #B75E5E",
"f 	c #A3A3A3",
"g 	c #FCFCFC",
"h 	c #A7A7A7",
"i 	c #F5F5F5",
"j 	c #F04D4D",
"k 	c #E36060",
"l 	c #AEAEAE",
"m 	c #D2D2D2",
"n 	c #BD5D5D",
"o 	c #FE3B3B",
"p 	c #E0BDBD",
"q 	c #ABABAB",
"r 	c #D35B5B",
"s 	c #FE3838",
"t 	c #D58989",
"u 	c #A2A2A2",
"v 	c #FDFDFD",
"w 	c #C45E5E",
"x 	c #F84545",
"y 	c #F34B4B",
"z 	c #B17171",
"A 	c #FBFBFB",
"B 	c #E9E9E9",
"C 	c #B95E5E",
"D 	c #C55D5D",
"E 	c #C45D5D",
"F 	c #FEFEFE",
"G 	c #C8C8C8",
"H 	c #B3B3B3",
"I 	c #C5C5C5",
"J 	c #999999",
"K 	c #C1C1C1",
"L 	c #989898",
"M 	c #E7E7E7",
"N 	c #F0F0F0",
"O 	c #E5E5E5",
"P 	c #A1A1A1",
"Q 	c #D6D6D6",
"R 	c #C7C7C7",
"S 	c #E4E4E4",
"T 	c #CACACA",
"U 	c #C3C3C3",
"V 	c #A4A4A4",
"W 	c #FAFAFA",
"X 	c #FF0000",
"Y 	c #B7B7B7",
"Z 	c #D1D1D1",
"` 	c #C0C0C0",
" .	c #B5B5B5",
"..	c #FCFAFA",
"+.	c #DADADA",
"@.	c #DC5858",
"#.	c #F84444",
"$.	c #FD3C3C",
"%.	c #EB5555",
"&.	c #BB6868",
"*.	c #F9F9F9",
"=.	c #FD3A3A",
"-.	c #BA5D5D",
";.	c #E45555",
">.	c #BB5E5E",
",.	c #D8D8D8",
"'.	c #979797",
").	c #E05656",
"!.	c #CECECE",
"~.	c #9C9C9C",
"{.	c #C85D5D",
"].	c #F54848",
"^.	c #D4D4D4",
"/.	c #E75353",
"(.	c #DFDFDF",
"_.	c #FB4040",
":.	c #C75D5D",
"<.	c #CC5D5D",
"[.	c #DE5757",
"}.	c #E2E2E2",
"|.	c #F74646",
"1.	c #DD5F5F",
"2.	c #BCBCBC",
"3.	c #A77B7B",
"4.	c #D69A9A",
"5.	c #DAAAAA",
"6.	c #F3E9E9",
"7.	c #9E9E9E",
"8.	c #C9C9C9",
"9.	c #B9B9B9",
"0.	c #CFCFCF",
"a.	c #A0A0A0",
"b.	c #F2F2F2",
"c.	c #A6A6A6",
"d.	c #A9A9A9",
"e.	c #F6F6F6",
"f.	c #F7F7F7",
"g.	c #F3F3F3",
"h.	c #E15555",
"i.	c #FB3F3F",
"j.	c #DC5959",
"k.	c #9D7676",
"l.	c #F8F8F8",
"m.	c #BF5E5E",
"n.	c #FD3D3D",
"o.	c #FA4242",
"p.	c #DBB1B1",
"q.	c #B6B6B6",
"r.	c #B2B2B2",
"s.	c #F94343",
"t.	c #ECDBDB",
"u.	c #DC6C6C",
"v.	c #FE3939",
"w.	c #DEDEDE",
"x.	c #B18383",
"y.	c #BFBFBF",
"z.	c #EDEDED",
"A.	c #F2E6E6",
"B.	c #FE3A3A",
"C.	c #E75B5B",
"D.	c #D85A5A",
"E.	c #E0BEBE",
"F.	c #F94444",
"G.	c #B56565",
"H.	c #FC3D3D",
"I.	c #FA4040",
"J.	c #DB5959",
"                                                                                                                                ",
"                                                                                                                                ",
"                                                                                                                                ",
"                                                                                        . + @ # $ %                             ",
"                                                      & * = - - - - - - - - ; > ,     ' ) ) ) ) ) ) !                           ",
"                                                ~ { - - - - - - - - - - - - - - - ] ^ ) ) ) ) ) ) ) ) /                         ",
"                                          ( _ - - - - - - - - - - - - - - - - - - : ) ) ) ) ) ) ) ) ) ) <                       ",
"                                      [ } - - - - - - - - - - - - | 1 - - - - - 2 3 ) ) ) ) ) ) ) ) ) ) 4                       ",
"                                    5 - - - - - - - - 6 7 8                 9 0 a ) ) ) ) ) ) ) ) ) ) ) )                       ",
"                                  b - - - - - - c d                             e ) ) ) ) ) ) ) ) ) ) ) )                       ",
"                              f g - - - - - 6 8                                   ) ) ) ) ) ) ) ) ) ) ) 3                       ",
"                            h - - - - - i d                                       j ) ) ) ) ) ) ) ) ) ) k l                     ",
"                          & - - - - - m                                           n ) ) ) ) ) ) ) ) ) o p - q                   ",
"                        f - - - - - 7                                               r ) ) ) ) ) ) ) s t - - - u                 ",
"                        v - - - - l                                                   w x ) ) ) ) y z A - - - v                 ",
"                      B - - - - h                                                         C D E       8 F - - - =               ",
"                    G - - - - H                                                                         h - - - - I             ",
"                  J - - - - m                                                                             K - - - - L           ",
"                  M - - - N                                                                                 O - - - O           ",
"                f - - - - P                                                                                 L - - - - P         ",
"                O - - - Q                                                                                     R - - - S         ",
"              J - - - - L                                                                                       - - - - J       ",
"              I - - - 6                                                                                         T - - - U       ",
"              A - - - V                                                                                         9 - - - W       ",
"            9 - - - A                                             X X X                                           | - - - J     ",
"            Y - - - Z                                       X X X X X X X X X                                     ` - - -  .    ",
"            _ ..- - ,                                     X X X X X X X X X X X                                   P - - - +.    ",
"          @.#.) $.%.&.                                  X X X X X X X X X X X X X                                   - - - *.    ",
"      w =.) ) ) ) ) ) $                                 X X X X X X X X X X X X X                                   v - - -     ",
"    -.s ) ) ) ) ) ) ) ) ;.                            X X X X X X X X X X X X X X X                                 O - - -     ",
"    ' ) ) ) ) ) ) ) ) ) ) >.                          X X X X X X X X X X X X X X X                                 ,.- - - '.  ",
"  e ) ) ) ) ) ) ) ) ) ) ) ).                          X X X X X X X X X X X X X X X                                 !.- - - ~.  ",
"  {.) ) ) ) ) ) ) ) ) ) ) 4                           X X X X X X X X X X X X X X X                                 > - - - (   ",
"  < ) ) ) ) ) ) ) ) ) ) ) ].                          X X X X X X X X X X X X X X X                                 ^.- - - L   ",
"  n ) ) ) ) ) ) ) ) ) ) ) /.                          X X X X X X X X X X X X X X X                                 (.- - -     ",
"    _.) ) ) ) ) ) ) ) ) ) :.                          X X X X X X X X X X X X X X                                   *.- - -     ",
"    <.) ) ) ) ) ) ) ) ) '                               X X X X X X X X X X X X X                                   - - - v     ",
"      [.) ) ) ) ) ) ) #.                                  X X X X X X X X X X X                                   9 - - - }.    ",
"        :.|.) ) ) =.1.                                      X X X X X X X X X                                     Y - - - 2.    ",
"            3.4.5.6.{                                           X X X X X                                         O - - - 7.    ",
"              - - - - 9                                                                                           - - - F       ",
"              Z - - - 8.                                                                                        9.- - - 0.      ",
"              P - - - -                                                                                         *.- - - a.      ",
"                b.- - - K                                                                                     7 - - - N         ",
"                & - - - -                                                                                     W - - - q         ",
"                  { - - - _                                                                                 !.- - - b.          ",
"                  c.- - - - 7                                                                             d.- - - - f           ",
"                    +.- - - - 8                                                                           g - - - ,.            ",
"                      e.- - - *.                                                                        N - - - f.              ",
"                      P - - - - g.                                                      h.$.) ) i.j.k.; - - - - a.              ",
"                        Y - - - - l.J                                               m.n.) ) ) ) ) ) o.p.- - - q.                ",
"                          K - - - - F r.                                            $.) ) ) ) ) ) ) ) s.t.- U                   ",
"                            I - - - - - ^.                                        $ ) ) ) ) ) ) ) ) ) ) u.U                     ",
"                              9.- - - - - g q.                                    v.) ) ) ) ) ) ) ) ) ) #.                      ",
"                                V *.- - - - - W 9.                                ) ) ) ) ) ) ) ) ) ) ) )                       ",
"                                    w.- - - - - - - } H L                     [ x.) ) ) ) ) ) ) ) ) ) ) )                       ",
"                                      d.e.- - - - - - - - - | ^.8.` y.8.m z.- - A.B.) ) ) ) ) ) ) ) ) ) @                       ",
"                                          H e.- - - - - - - - - - - - - - - - - - C.) ) ) ) ) ) ) ) ) ) D.                      ",
"                                              h _ - - - - - - - - - - - - - - - - E.n.) ) ) ) ) ) ) ) F.                        ",
"                                                    c.G { - - - - - - - - - - { G c.G.H.) ) ) ) ) ) s.                          ",
"                                                              7.f c.c.u 7.              ).H.) ) I.J.                            ",
"                                                                                                                                ",
"                                                                                                                                ",
"                                                                                                                                "};
