/* XPM */
static char * iond_testnet64_xpm[] = {
"64 64 172 2",
"  	c None",
". 	c #64A37C",
"+ 	c #5FB681",
"@ 	c #57BD80",
"# 	c #58BD80",
"$ 	c #60B481",
"% 	c #649E7B",
"& 	c #ADADAD",
"* 	c #CDCDCD",
"= 	c #EBEBEB",
"- 	c #FFFFFF",
"; 	c #EAEAEA",
"> 	c #CCCCCC",
", 	c #ACACAC",
"' 	c #5BBB80",
") 	c #4FC07B",
"! 	c #5FB781",
"~ 	c #BBBBBB",
"{ 	c #F4F4F4",
"] 	c #DFE8E3",
"^ 	c #59BC80",
"/ 	c #5DB881",
"( 	c #9D9D9D",
"_ 	c #DCDCDC",
": 	c #73B58D",
"< 	c #64A47C",
"[ 	c #959595",
"} 	c #E1E1E1",
"| 	c #F1F1F1",
"1 	c #EFEFEF",
"2 	c #F3F6F4",
"3 	c #54BF7E",
"4 	c #5CBB82",
"5 	c #C2C2C2",
"6 	c #DBDBDB",
"7 	c #B4B4B4",
"8 	c #9B9B9B",
"9 	c #9A9A9A",
"0 	c #B1B1B1",
"a 	c #A5BBAD",
"b 	c #E8E8E8",
"c 	c #E3E3E3",
"d 	c #AAAAAA",
"e 	c #A3A3A3",
"f 	c #FCFCFC",
"g 	c #A7A7A7",
"h 	c #F5F5F5",
"i 	c #5CB880",
"j 	c #6CB689",
"k 	c #AEAEAE",
"l 	c #D2D2D2",
"m 	c #649C7A",
"n 	c #51BF7C",
"o 	c #C1D4C9",
"p 	c #ABABAB",
"q 	c #64A980",
"r 	c #50C07B",
"s 	c #90BBA1",
"t 	c #A2A2A2",
"u 	c #FDFDFD",
"v 	c #639E7A",
"w 	c #57BD7E",
"x 	c #5BBA81",
"y 	c #759984",
"z 	c #FBFBFB",
"A 	c #E9E9E9",
"B 	c #639879",
"C 	c #64A07C",
"D 	c #64A07B",
"E 	c #FEFEFE",
"F 	c #C8C8C8",
"G 	c #B3B3B3",
"H 	c #C5C5C5",
"I 	c #999999",
"J 	c #C1C1C1",
"K 	c #989898",
"L 	c #E7E7E7",
"M 	c #F0F0F0",
"N 	c #E5E5E5",
"O 	c #A1A1A1",
"P 	c #D6D6D6",
"Q 	c #C7C7C7",
"R 	c #E4E4E4",
"S 	c #CACACA",
"T 	c #C3C3C3",
"U 	c #A4A4A4",
"V 	c #FAFAFA",
"W 	c #00A540",
"X 	c #B7B7B7",
"Y 	c #D1D1D1",
"Z 	c #00A440",
"` 	c #C0C0C0",
" .	c #B5B5B5",
"..	c #FAFBFB",
"+.	c #00A340",
"@.	c #DADADA",
"#.	c #64AF81",
"$.	c #52BF7C",
"%.	c #64B985",
"&.	c #6E9C80",
"*.	c #00A53F",
"=.	c #F9F9F9",
"-.	c #52C07D",
";.	c #629978",
">.	c #61B281",
",.	c #649A79",
"'.	c #D8D8D8",
").	c #979797",
"!.	c #62B080",
"~.	c #CECECE",
"{.	c #9C9C9C",
"].	c #64A27C",
"^.	c #63A27C",
"/.	c #5ABB80",
"(.	c #D4D4D4",
"_.	c #60B581",
":.	c #DFDFDF",
"<.	c #54BE7D",
"[.	c #63A07A",
"}.	c #64A57E",
"|.	c #5BBB81",
"1.	c #62AE7F",
"2.	c #58BE80",
"3.	c #E2E2E2",
"4.	c #59BD80",
"5.	c #6AB186",
"6.	c #00A53E",
"7.	c #BCBCBC",
"8.	c #7E9888",
"9.	c #9FC1AC",
"0.	c #AFCABA",
"a.	c #EAF0EC",
"b.	c #9E9E9E",
"c.	c #C9C9C9",
"d.	c #B9B9B9",
"e.	c #CFCFCF",
"f.	c #A0A0A0",
"g.	c #F2F2F2",
"h.	c #A6A6A6",
"i.	c #A9A9A9",
"j.	c #F6F6F6",
"k.	c #F7F7F7",
"l.	c #F3F3F3",
"m.	c #62B181",
"n.	c #62AD7F",
"o.	c #778E7F",
"p.	c #F8F8F8",
"q.	c #639B79",
"r.	c #53C07D",
"s.	c #56BE7E",
"t.	c #B5CDBE",
"u.	c #B6B6B6",
"v.	c #B2B2B2",
"w.	c #57BE7F",
"x.	c #DDE7E1",
"y.	c #75B48E",
"z.	c #51C07C",
"A.	c #57BD7F",
"B.	c #DEDEDE",
"C.	c #87A191",
"D.	c #BFBFBF",
"E.	c #EDEDED",
"F.	c #E8EFEB",
"G.	c #50BF7B",
"H.	c #68B787",
"I.	c #63AA7F",
"J.	c #C1D4C8",
"K.	c #57BE80",
"L.	c #6C9A7D",
"M.	c #53BF7D",
"N.	c #55BE7E",
"O.	c #63AD80",
"                                                                                                                                ",
"                                                                                                                                ",
"                                                                                                                                ",
"                                                                                        . + @ # $ %                             ",
"                                                      & * = - - - - - - - - ; > ,     ' ) ) ) ) ) ) !                           ",
"                                                ~ { - - - - - - - - - - - - - - - ] ^ ) ) ) ) ) ) ) ) /                         ",
"                                          ( _ - - - - - - - - - - - - - - - - - - : ) ) ) ) ) ) ) ) ) ) <                       ",
"                                      [ } - - - - - - - - - - - - | 1 - - - - - 2 3 ) ) ) ) ) ) ) ) ) ) 4                       ",
"                                    5 - - - - - - - - 6 7 8                 9 0 a ) ) ) ) ) ) ) ) ) ) ) )                       ",
"                                  b - - - - - - c d                               ) ) ) ) ) ) ) ) ) ) ) )                       ",
"                              e f - - - - - 6 8                                   ) ) ) ) ) ) ) ) ) ) ) 3                       ",
"                            g - - - - - h d                                       i ) ) ) ) ) ) ) ) ) ) j k                     ",
"                          & - - - - - l                                           m ) ) ) ) ) ) ) ) ) n o - p                   ",
"                        e - - - - - 7                                               q ) ) ) ) ) ) ) r s - - - t                 ",
"                        u - - - - k                                                   v w ) ) ) ) x y z - - - u                 ",
"                      A - - - - g                                                         B C D       8 E - - - =               ",
"                    F - - - - G                                                                         g - - - - H             ",
"                  I - - - - l                                                                             J - - - - K           ",
"                  L - - - M                                                                                 N - - - N           ",
"                e - - - - O                                                                                 K - - - - O         ",
"                N - - - P                                                                                     Q - - - R         ",
"              I - - - - K                                                                                       - - - - I       ",
"              H - - - 6                                                                                         S - - - T       ",
"              z - - - U                                                                                         9 - - - V       ",
"            9 - - - z                                               W                                             | - - - I     ",
"            X - - - Y                                         Z Z Z Z Z Z Z                                       ` - - -  .    ",
"            _ ..- - ,                                     W Z Z Z Z Z Z Z Z Z +.                                  O - - - @.    ",
"          #.# ) $.%.&.                                  *.Z Z Z Z Z Z Z Z Z Z Z                                     - - - =.    ",
"      v -.) ) ) ) ) ) $                                 Z Z Z Z Z Z Z Z Z Z Z Z Z                                   u - - -     ",
"    ;.r ) ) ) ) ) ) ) ) >.                            Z Z Z Z Z Z Z Z Z Z Z Z Z Z Z                                 N - - -     ",
"    ' ) ) ) ) ) ) ) ) ) ) ,.                          Z Z Z Z Z Z Z Z Z Z Z Z Z Z Z                                 '.- - - ).  ",
"    ) ) ) ) ) ) ) ) ) ) ) !.                          Z Z Z Z Z Z Z Z Z Z Z Z Z Z Z                                 ~.- - - {.  ",
"  ].) ) ) ) ) ) ) ) ) ) ) 4                           Z Z Z Z Z Z Z Z Z Z Z Z Z Z Z                                 > - - - (   ",
"  ^.) ) ) ) ) ) ) ) ) ) ) /.                          Z Z Z Z Z Z Z Z Z Z Z Z Z Z Z                                 (.- - - K   ",
"  m ) ) ) ) ) ) ) ) ) ) ) _.                          Z Z Z Z Z Z Z Z Z Z Z Z Z Z Z                                 :.- - -     ",
"    <.) ) ) ) ) ) ) ) ) ) [.                            Z Z Z Z Z Z Z Z Z Z Z Z Z                                   =.- - -     ",
"    }.) ) ) ) ) ) ) ) ) |.                              Z Z Z Z Z Z Z Z Z Z Z Z *.                                  - - - u     ",
"      1.) ) ) ) ) ) ) 2.                                  Z Z Z Z Z Z Z Z Z Z Z                                   9 - - - 3.    ",
"        [.4.) ) ) -.5.                                      *.Z Z Z Z Z Z Z 6.                                    X - - - 7.    ",
"            8.9.0.a.{                                             Z Z Z                                           N - - - b.    ",
"              - - - - 9                                                                                           - - - E       ",
"              Y - - - c.                                                                                        d.- - - e.      ",
"              O - - - -                                                                                         =.- - - f.      ",
"                g.- - - J                                                                                     7 - - - M         ",
"                & - - - -                                                                                     V - - - p         ",
"                  { - - - _                                                                                 ~.- - - g.          ",
"                  h.- - - - 7                                                                             i.- - - - e           ",
"                    @.- - - - 8                                                                           f - - - '.            ",
"                      j.- - - =.                                                                        M - - - k.              ",
"                      O - - - - l.                                                      m.$.) ) <.n.o.; - - - - f.              ",
"                        X - - - - p.I                                               q.r.) ) ) ) ) ) s.t.- - - u.                ",
"                          J - - - - E v.                                            $.) ) ) ) ) ) ) ) w.x.- T                   ",
"                            H - - - - - (.                                        $ ) ) ) ) ) ) ) ) ) ) y.T                     ",
"                              d.- - - - - f u.                                    z.) ) ) ) ) ) ) ) ) ) A.                      ",
"                                U =.- - - - - V d.                                ) ) ) ) ) ) ) ) ) ) ) )                       ",
"                                    B.- - - - - - - } G K                     [ C.) ) ) ) ) ) ) ) ) ) ) )                       ",
"                                      i.j.- - - - - - - - - | (.c.` D.c.l E.- - F.G.) ) ) ) ) ) ) ) ) ) @                       ",
"                                          G j.- - - - - - - - - - - - - - - - - - H.) ) ) ) ) ) ) ) ) ) I.                      ",
"                                              g _ - - - - - - - - - - - - - - - - J.r.) ) ) ) ) ) ) ) K.                        ",
"                                                    h.F { - - - - - - - - - - { F h.L.M.) ) ) ) ) ) K.                          ",
"                                                              b.e h.h.t b.              m.M.) ) N.O.                            ",
"                                                                                                                                ",
"                                                                                                                                ",
"                                                                                                                                "};
