/* XPM */
static char * iond_regtest32_xpm[] = {
"32 32 109 2",
"  	c None",
". 	c #BA5D5D",
"+ 	c #CA5D5D",
"@ 	c #B85E5E",
"# 	c #9B9B9B",
"$ 	c #BFBFBF",
"% 	c #E7E7E7",
"& 	c #FBFBFB",
"* 	c #FFFFFF",
"= 	c #C0BDBD",
"- 	c #E25757",
"; 	c #FF3737",
"> 	c #DE5858",
", 	c #AAAAAA",
"' 	c #F4F4F4",
") 	c #FEFEFE",
"! 	c #D58D8D",
"~ 	c #BC5D5D",
"{ 	c #EBEBEB",
"] 	c #DEDEDE",
"^ 	c #AFAFAF",
"/ 	c #D45F5F",
"( 	c #D15B5B",
"_ 	c #A0A0A0",
": 	c #E5E5E5",
"< 	c #CC5D5D",
"[ 	c #BE6D6D",
"} 	c #A5A5A5",
"| 	c #BEBEBE",
"1 	c #F64848",
"2 	c #F14E4E",
"3 	c #F8F3F3",
"4 	c #A3A3A3",
"5 	c #FCFCFC",
"6 	c #ABABAB",
"7 	c #D15C5C",
"8 	c #E25656",
"9 	c #CF5B5B",
"0 	c #A79B9B",
"a 	c #EDEDED",
"b 	c #BBBBBB",
"c 	c #B4B4B4",
"d 	c #AEAEAE",
"e 	c #D8D8D8",
"f 	c #ADADAD",
"g 	c #F6F6F6",
"h 	c #999999",
"i 	c #F5F5F5",
"j 	c #9E9E9E",
"k 	c #DADADA",
"l 	c #D2D2D2",
"m 	c #C5C5C5",
"n 	c #FF0000",
"o 	c #A6A6A6",
"p 	c #C3C3C3",
"q 	c #D47A7A",
"r 	c #D58787",
"s 	c #987B7B",
"t 	c #EFEFEF",
"u 	c #C55D5D",
"v 	c #FE3A3A",
"w 	c #F94343",
"x 	c #FC3D3D",
"y 	c #E65454",
"z 	c #F84343",
"A 	c #EAEAEA",
"B 	c #EA5151",
"C 	c #FDFDFD",
"D 	c #FD3C3C",
"E 	c #B55C5C",
"F 	c #F3F3F3",
"G 	c #BD5E5E",
"H 	c #DA6363",
"I 	c #DA6F6F",
"J 	c #AA8585",
"K 	c #C8C8C8",
"L 	c #A1A1A1",
"M 	c #CACACA",
"N 	c #FAFAFA",
"O 	c #D4D4D4",
"P 	c #CDCDCD",
"Q 	c #A9A9A9",
"R 	c #C65D5D",
"S 	c #D75B5B",
"T 	c #C45E5E",
"U 	c #9A9696",
"V 	c #9A9A9A",
"W 	c #EE4D4D",
"X 	c #EA5757",
"Y 	c #FCFAFA",
"Z 	c #CFCFCF",
"` 	c #C85D5D",
" .	c #BC7474",
"..	c #9D9D9D",
"+.	c #C9C9C9",
"@.	c #D65E5E",
"#.	c #B7B7B7",
"$.	c #F9F9F9",
"%.	c #E3E3E3",
"&.	c #F8F8F8",
"*.	c #D58484",
"=.	c #C15D5D",
"-.	c #CECECE",
";.	c #CCC7C7",
">.	c #ED5050",
",.	c #E85353",
"'.	c #C55E5E",
").	c #D65B5B",
"!.	c #C35D5D",
"                                                                ",
"                                            . + @               ",
"                        # $ % & * * & % = - ; ; ; >             ",
"                    , ' * * * * ) ) * * ! ; ; ; ; ; ~           ",
"                  { * * ] ^             / ; ; ; ; ; (           ",
"              _ & * : _                 < ; ; ; ; ; [           ",
"            } * * |                       1 ; ; ; 2 3 4         ",
"            5 * 6                           7 8 9 0 * 5         ",
"          a * b                                     c * a       ",
"        d * ]                                         e * f     ",
"        g * h                                           * i     ",
"      j * k                                             l * j   ",
"      m * ,                     n n                     o * p   ",
"      q r s                   n n n n n                   * t   ",
"  u v ; ; w                 n n n n n n n                 ) *   ",
"  x ; ; ; ; y               n n n n n n n                 a *   ",
"  ; ; ; ; ; z               n n n n n n n                 A *   ",
"  v ; ; ; ; B               n n n n n n n                 C *   ",
"  9 ; ; ; D E               n n n n n n                   * F   ",
"    G H I J                     n n n                   4 * K   ",
"      L * l                                             M * L   ",
"        N *                                             ) N     ",
"        c * O                                         P * c     ",
"          F * f                                     Q * '       ",
"          # * * j                           R S T U C ) V       ",
"            d * ) d                       W ; ; ; X Y f         ",
"              ^ * * Z                   ` ; ; ; ; ;  .          ",
"                ..i * ) +._             @.; ; ; ; ; (           ",
"                    #.5 * * * $.: %.&.* *.; ; ; ; ; =.          ",
"                        o -.5 * * * * 5 ;.>.; ; ; ,.            ",
"                                            '.).!.              ",
"                                                                "};
