/* XPM */
static char * iond32_xpm[] = {
"32 32 25 1",
" 	c None",
".	c #F9FCFC",
"+	c #F8FBFF",
"@	c #FFFFFF",
"#	c #FDFEFF",
"$	c #FBFBFC",
"%	c #FEFFFF",
"&	c #FCFDFF",
"*	c #FDFDFF",
"=	c #F9FCFE",
"-	c #F3F9FF",
";	c #FEFEFF",
">	c #2CBFFF",
",	c #2CBCFF",
"'	c #2CBEFF",
")	c #FBFEFF",
"!	c #FBFDFE",
"~	c #F9FBFF",
"{	c #FBFCFF",
"]	c #F9FCFF",
"^	c #2FB8FF",
"/	c #EEF5FF",
"(	c #FBFDFF",
"_	c #FBFDFD",
":	c #FBFCFC",
"                                ",
"                                ",
"                                ",
"                                ",
"                     .          ",
"             +@@@@@#@@@$        ",
"           %@@@@@@@@@@@@        ",
"          @@#      &@@@@        ",
"         @@         @@@@%       ",
"        @@             *@=      ",
"       @@               @@      ",
"       @-                @@     ",
"      @@                 %@     ",
"      @;       >>>        @     ",
"     @@@      ,'',>       @)    ",
"    @@@@;     ,'''>>      @@    ",
"    @@@@@     ,'',>>      @%    ",
"    !@@@~     ,,,,>       @{    ",
"     ]@@       >>>^       @     ",
"      @@                 ;@     ",
"       @/                @;     ",
"       @@               @@      ",
"        @@             (@{      ",
"         @@         @@@@@       ",
"          @@#      &@@@@        ",
"           @@@@@%@@@@@@@        ",
"             )@@@@@%@@@_        ",
"                     :          ",
"                                ",
"                                ",
"                                ",
"                                "};
