/* XPM */
static char * iond_testnet32_xpm[] = {
"32 32 111 2",
"  	c None",
". 	c #639A79",
"+ 	c #63A27C",
"@ 	c #629776",
"# 	c #9B9B9B",
"$ 	c #BFBFBF",
"% 	c #E7E7E7",
"& 	c #FBFBFB",
"* 	c #FFFFFF",
"= 	c #BDBEBD",
"- 	c #63B382",
"; 	c #4FC07B",
"> 	c #62AE80",
", 	c #AAAAAA",
"' 	c #F4F4F4",
") 	c #FEFEFE",
"! 	c #94BDA4",
"~ 	c #629978",
"{ 	c #EBEBEB",
"] 	c #DEDEDE",
"^ 	c #AFAFAF",
"/ 	c #69AC83",
"( 	c #64A77E",
"_ 	c #A0A0A0",
": 	c #E5E5E5",
"< 	c #63A37C",
"[ 	c #72A084",
"} 	c #A5A5A5",
"| 	c #BEBEBE",
"1 	c #5ABB80",
"2 	c #5EBA82",
"3 	c #F3F6F4",
"4 	c #A3A3A3",
"5 	c #FCFCFC",
"6 	c #ABABAB",
"7 	c #64A87E",
"8 	c #61B180",
"9 	c #64A67E",
"0 	c #9BA29E",
"a 	c #EDEDED",
"b 	c #BBBBBB",
"c 	c #B4B4B4",
"d 	c #AEAEAE",
"e 	c #D8D8D8",
"f 	c #ADADAD",
"g 	c #F6F6F6",
"h 	c #999999",
"i 	c #F5F5F5",
"j 	c #9E9E9E",
"k 	c #DADADA",
"l 	c #D2D2D2",
"m 	c #C5C5C5",
"n 	c #00A23F",
"o 	c #A6A6A6",
"p 	c #C3C3C3",
"q 	c #83B697",
"r 	c #8EBA9F",
"s 	c #7E8D83",
"t 	c #00A440",
"u 	c #00A53F",
"v 	c #EFEFEF",
"w 	c #639E79",
"x 	c #50BF7B",
"y 	c #57BE80",
"z 	c #53BF7D",
"A 	c #61B381",
"B 	c #57BD80",
"C 	c #EAEAEA",
"D 	c #5FB681",
"E 	c #FDFDFD",
"F 	c #52BF7C",
"G 	c #F3F3F3",
"H 	c #649B7A",
"I 	c #6DB087",
"J 	c #79B590",
"K 	c #889D91",
"L 	c #00A33F",
"M 	c #C8C8C8",
"N 	c #A1A1A1",
"O 	c #CACACA",
"P 	c #FAFAFA",
"Q 	c #D4D4D4",
"R 	c #CDCDCD",
"S 	c #A9A9A9",
"T 	c #649F7B",
"U 	c #63AA7F",
"V 	c #639E7A",
"W 	c #969898",
"X 	c #9A9A9A",
"Y 	c #5DB881",
"Z 	c #65B885",
"` 	c #FAFBFB",
" .	c #CFCFCF",
"..	c #64A27C",
"+.	c #79A189",
"@.	c #9D9D9D",
"#.	c #C9C9C9",
"$.	c #68AC82",
"%.	c #B7B7B7",
"&.	c #F9F9F9",
"*.	c #E3E3E3",
"=.	c #F8F8F8",
"-.	c #8CBA9E",
";.	c #639C79",
">.	c #CECECE",
",.	c #C8CBC9",
"'.	c #5FB781",
").	c #5FB481",
"!.	c #63A07B",
"~.	c #64AB80",
"{.	c #649E7B",
"                                                                ",
"                                            . + @               ",
"                        # $ % & * * & % = - ; ; ; >             ",
"                    , ' * * * * ) ) * * ! ; ; ; ; ; ~           ",
"                  { * * ] ^             / ; ; ; ; ; (           ",
"              _ & * : _                 < ; ; ; ; ; [           ",
"            } * * |                       1 ; ; ; 2 3 4         ",
"            5 * 6                           7 8 9 0 * 5         ",
"          a * b                                     c * a       ",
"        d * ]                                         e * f     ",
"        g * h                                           * i     ",
"      j * k                                             l * j   ",
"      m * ,                       n                     o * p   ",
"      q r s                   t t t t u                   * v   ",
"  w x ; ; y                 t t t t t t                   ) *   ",
"  z ; ; ; ; A               t t t t t t t                 a *   ",
"  ; ; ; ; ; B               t t t t t t t                 C *   ",
"  x ; ; ; ; D               t t t t t t                   E *   ",
"  9 ; ; ; F                   t t t t t                   * G   ",
"    H I J K                     L t                     4 * M   ",
"      N * l                                             O * N   ",
"        P *                                             ) P     ",
"        c * Q                                         R * c     ",
"          G * f                                     S * '       ",
"          # * * j                           T U V W E ) X       ",
"            d * ) d                       Y ; ; ; Z ` f         ",
"              ^ * *  .                  ..; ; ; ; ; +.          ",
"                @.i * ) #._             $.; ; ; ; ; (           ",
"                    %.5 * * * &.: *.=.* -.; ; ; ; ; ;.          ",
"                        o >.5 * * * * 5 ,.'.; ; ; ).            ",
"                                            !.~.{.              ",
"                                                                "};
