/* XPM */
static char * iond16_xpm[] = {
"16 16 18 1",
" 	c None",
".	c #F4FAFF",
"+	c #FFFFFF",
"@	c #FBFDFD",
"#	c #F0F7FF",
"$	c #FAFDFF",
"%	c #FEFEFF",
"&	c #FDFEFF",
"*	c #2FB8FF",
"=	c #2CBFFF",
"-	c #2CBEFF",
";	c #2CBDFF",
">	c #2EBBFF",
",	c #FEFFFF",
"'	c #F7FBFF",
")	c #FCFDFF",
"!	c #E9F3FF",
"~	c #FDFDFE",
"                ",
"                ",
"        . +@    ",
"     ++  #++    ",
"    +     $%&   ",
"   &        +   ",
"   +    *    +  ",
"  ++   ===   +  ",
"  ++   --;   +  ",
"   +    >    +  ",
"   ,        +   ",
"    +     ')%   ",
"     ++  !++    ",
"        $ +~    ",
"                ",
"                "};
