/* XPM */
static char * iond16_xpm[] = {
"16 16 53 1",
" 	c None",
".	c #9E9E9E",
"+	c #CDCDCD",
"@	c #F8F8F8",
"#	c #FFFFFF",
"$	c #B4B4B4",
"%	c #E8E8E8",
"&	c #D4D4D4",
"*	c #9A9A9A",
"=	c #CCCCCC",
"-	c #8B8B8B",
";	c #E0E0E0",
">	c #AEAEAE",
",	c #D3D3D3",
"'	c #B2B2B2",
")	c #DCDCDC",
"!	c #BBBBBB",
"~	c #B9B9B9",
"{	c #B7B7B7",
"]	c #F3F3F3",
"^	c #F0F0F0",
"/	c #989898",
"(	c #B3B3B3",
"_	c #26AAE0",
":	c #26A9DF",
"<	c #BEBEBE",
"[	c #A0A0A0",
"}	c #FEFEFE",
"|	c #F9F9F9",
"1	c #25AAE0",
"2	c #A9A9A9",
"3	c #AFAFAF",
"4	c #B1B1B1",
"5	c #A8A8A8",
"6	c #B0B0B0",
"7	c #C4C4C4",
"8	c #26A9E0",
"9	c #BCBCBC",
"0	c #F1F1F1",
"a	c #EEEEEE",
"b	c #BFBFBF",
"c	c #BDBDBD",
"d	c #E5E5E5",
"e	c #A7A7A7",
"f	c #C9C9C9",
"g	c #ADADAD",
"h	c #E2E2E2",
"i	c #DADADA",
"j	c #959595",
"k	c #CACACA",
"l	c #8C8C8C",
"m	c #A2A2A2",
"n	c #EFEFEF",
"                ",
"     .+@#@$#%   ",
"    &&*   =##-  ",
"   ;>      ,')  ",
"  !~         {~ ",
"  ]           ^ ",
" /(     _:    <[",
"*}|    111    23",
"4##[   111    56",
" 7<    :88    9[",
"  0           a ",
"  b$         'c ",
"   de      fgh  ",
"    i=j   k##l  ",
"     m&}n}{#a   ",
"                "};
