/* XPM */
static char * iond48_xpm[] = {
"48 48 110 2",
"  	c None",
". 	c #9B9B9B",
"+ 	c #B9B9B9",
"@ 	c #BFBFBF",
"# 	c #A9A9A9",
"$ 	c #B7B7B7",
"% 	c #DADADA",
"& 	c #F9F9F9",
"* 	c #FFFFFF",
"= 	c #959595",
"- 	c #D3D3D3",
"; 	c #F4F4F4",
"> 	c #969696",
", 	c #BDBDBD",
"' 	c #F6F6F6",
") 	c #CCCCCC",
"! 	c #C8C8C8",
"~ 	c #EFEFEF",
"{ 	c #FEFEFE",
"] 	c #D7D7D7",
"^ 	c #B4B4B4",
"/ 	c #ABABAB",
"( 	c #FAFAFA",
"_ 	c #F3F3F3",
": 	c #A0A0A0",
"< 	c #9E9E9E",
"[ 	c #A8A8A8",
"} 	c #CECECE",
"| 	c #D9D9D9",
"1 	c #9D9D9D",
"2 	c #D0D0D0",
"3 	c #E1E1E1",
"4 	c #E9E9E9",
"5 	c #E6E6E6",
"6 	c #C3C3C3",
"7 	c #BBBBBB",
"8 	c #EDEDED",
"9 	c #E8E8E8",
"0 	c #E5E5E5",
"a 	c #DCDCDC",
"b 	c #ADADAD",
"c 	c #C0C0C0",
"d 	c #E4E4E4",
"e 	c #D4D4D4",
"f 	c #AFAFAF",
"g 	c #AAAAAA",
"h 	c #EBEBEB",
"i 	c #D2D2D2",
"j 	c #C9C9C9",
"k 	c #F0F0F0",
"l 	c #B0B0B0",
"m 	c #EEEEEE",
"n 	c #9F9F9F",
"o 	c #F7F7F7",
"p 	c #CDCDCD",
"q 	c #B1B1B1",
"r 	c #CBCBCB",
"s 	c #FBFBFB",
"t 	c #26A9E0",
"u 	c #26AAE0",
"v 	c #25A9E1",
"w 	c #F5F5F5",
"x 	c #26AADF",
"y 	c #25AAE0",
"z 	c #EAEAEA",
"A 	c #B2B2B2",
"B 	c #CACACA",
"C 	c #AEAEAE",
"D 	c #26A9DF",
"E 	c #A6A6A6",
"F 	c #DBDBDB",
"G 	c #26A8DF",
"H 	c #FCFCFC",
"I 	c #26A9E1",
"J 	c #C6C6C6",
"K 	c #26A8E0",
"L 	c #999999",
"M 	c #D8D8D8",
"N 	c #27A8E0",
"O 	c #989898",
"P 	c #9A9A9A",
"Q 	c #A7A7A7",
"R 	c #BCBCBC",
"S 	c #25A9DF",
"T 	c #DDDDDD",
"U 	c #FDFDFD",
"V 	c #B3B3B3",
"W 	c #27AAE1",
"X 	c #E0E0E0",
"Y 	c #929292",
"Z 	c #C1C1C1",
"` 	c #DFDFDF",
" .	c #27A9E1",
"..	c #D5D5D5",
"+.	c #A4A4A4",
"@.	c #E3E3E3",
"#.	c #A2A2A2",
"$.	c #A5A5A5",
"%.	c #F2F2F2",
"&.	c #E7E7E7",
"*.	c #B6B6B6",
"=.	c #A3A3A3",
"-.	c #979797",
";.	c #9C9C9C",
">.	c #F8F8F8",
",.	c #F1F1F1",
"'.	c #D1D1D1",
").	c #A1A1A1",
"!.	c #DEDEDE",
"~.	c #D6D6D6",
"                                                                                                ",
"                                                                                                ",
"                                                                  . + @ #                       ",
"                                      . $ % & * * * * * & % $ = - * * * * ; >                   ",
"                                  , ' * * * * * * * * * * * * ) * * * * * * '                   ",
"                              ! * * * * * * * * * ~ { * * * ] * * * * * * * * ^                 ",
"                          / ( * * * * _ @ :               < [ * * * * * * * * -                 ",
"                        } * * * * | 1                       < * * * * * * * * 2                 ",
"                      3 * * * 4 .                             { * * * * * * * +                 ",
"                    5 * * * 6                                 7 * * * * * * 8 9 0               ",
"                  a * * * b                                     c * * * * d e * * %             ",
"                c * * * [                                           # f .   : * * * ,           ",
"              1 * * * ^                                                       g * * * .         ",
"              h * * i                                                           j * * 4         ",
"            / * * &                                                               ; * * g       ",
"            k * * l                                                               [ * * m       ",
"          n * * o                                                                   ~ * * <     ",
"          p * * 7                                                                   q * * r     ",
"          s * *                                 t t u v                               * * (     ",
"        > * * w                             x y y y y y y t                           z * *     ",
"        A 2 B C                           t y y y y y y y y D                         c * * E   ",
"    < s * * * * F                       G y y y y y y y y y y                         / * * +   ",
"    H * * * * * * )                     I y y y y y y y y y y G                       < * * J   ",
"  7 * * * * * * * *                     y y y y y y y y y y y K                       L * * }   ",
"  M * * * * * * * * <                   y y y y y y y y y y y N                       O * * 2   ",
"  i * * * * * * * * P                   D y y y y y y y y y y D                       1 * * !   ",
"  b * * * * * * * s                     u y y y y y y y y y y                         Q * * R   ",
"    4 * * * * * * l                       t y y y y y y y y S                         7 * * #   ",
"      T * * * U V                           W y y y y y y G                           X * * O   ",
"        Y @ Z `                               G  .y y K                               * * U     ",
"          ..* * q                                                                   [ * * i     ",
"          +.* * 8                                                                   @.* * #.    ",
"            o * * $.                                                              < * * '       ",
"            ^ * * %.                                                              &.* * A       ",
"              ; * * c                                                           *.* * _         ",
"              E * * * =.                                                      . * * * +.        ",
"                } * * H -.                                          O ;.      >.* * p           ",
"                  h * * & L                                     g o * * * B T * * 9             ",
"                    _ * * U g                                 / * * * * * * ` ; ,.              ",
"                      ~ * * * '.                              & * * * * * * * 7                 ",
"                        3 * * * H 7                         . * * * * * * * * r                 ",
"                          @ * * * * * - Q                   ).* * * * * * * * ..                ",
"                            = !.* * * * * * H 3 e j e !.s * 2 * * * * * * * * 7                 ",
"                                . ..* * * * * * * * * * * * H | * * * * * * {                   ",
"                                      g } >.* * * * * * * >.p n 9 * * * * { E                   ",
"                                                L ;.L             f ~.T c                       ",
"                                                                                                ",
"                                                                                                "};
