/* XPM */
static char * iond_testnet16_xpm[] = {
"16 16 10 1",
" 	c None",
".	c #12BDFB",
"+	c #13BFFF",
"@	c #13BAF9",
"#	c #13B9F7",
"$	c #13BEFF",
"%	c #13BEFE",
"&	c #14BEFF",
"*	c #12BDFD",
"=	c #12BCFA",
"                ",
"                ",
"        . +@    ",
"     ++  #++    ",
"    +     $+%   ",
"   $        +   ",
"   +         +  ",
"  ++         +  ",
"  ++         +  ",
"   +         +  ",
"   &        +   ",
"    +     %+%   ",
"     ++   ++    ",
"        * +=    ",
"                ",
"                "};
