/* XPM */
static char * iond32_xpm[] = {
"32 32 79 1",
" 	c None",
".	c #A2A2A2",
"+	c #9B9B9B",
"@	c #BFBFBF",
"#	c #E7E7E7",
"$	c #FBFBFB",
"%	c #FFFFFF",
"&	c #BEBEBE",
"*	c #C0C0C0",
"=	c #B9B9B9",
"-	c #AAAAAA",
";	c #F4F4F4",
">	c #FEFEFE",
",	c #C4C4C4",
"'	c #959595",
")	c #EBEBEB",
"!	c #DEDEDE",
"~	c #AFAFAF",
"{	c #B1B1B1",
"]	c #A0A0A0",
"^	c #E5E5E5",
"/	c #A4A4A4",
"(	c #A5A5A5",
"_	c #E0E0E0",
":	c #D9D9D9",
"<	c #F8F8F8",
"[	c #A3A3A3",
"}	c #FCFCFC",
"|	c #ABABAB",
"1	c #A7A7A7",
"2	c #EDEDED",
"3	c #BBBBBB",
"4	c #B4B4B4",
"5	c #AEAEAE",
"6	c #D8D8D8",
"7	c #ADADAD",
"8	c #F6F6F6",
"9	c #999999",
"0	c #F5F5F5",
"a	c #9E9E9E",
"b	c #DADADA",
"c	c #D2D2D2",
"d	c #C5C5C5",
"e	c #26AADF",
"f	c #26A9E0",
"g	c #A6A6A6",
"h	c #C3C3C3",
"i	c #BDBDBD",
"j	c #C2C2C2",
"k	c #25A9E0",
"l	c #25AAE0",
"m	c #EFEFEF",
"n	c #9C9C9C",
"o	c #FAFAFA",
"p	c #E9E9E9",
"q	c #E8E8E8",
"r	c #25A8DF",
"s	c #EAEAEA",
"t	c #CCCCCC",
"u	c #26A8E0",
"v	c #FDFDFD",
"w	c #F3F3F3",
"x	c #B8B8B8",
"y	c #C8C8C8",
"z	c #A1A1A1",
"A	c #CACACA",
"B	c #D4D4D4",
"C	c #CDCDCD",
"D	c #A9A9A9",
"E	c #B0B0B0",
"F	c #9A9A9A",
"G	c #CFCFCF",
"H	c #9D9D9D",
"I	c #C9C9C9",
"J	c #B7B7B7",
"K	c #F9F9F9",
"L	c #E3E3E3",
"M	c #CECECE",
"N	c #CBCBCB",
"                                ",
"                       .        ",
"            +@#$%%$#&*%%%=      ",
"          -;%%%%>>%%,%%%%%'     ",
"         )%%!~      {%%%%%-     ",
"       ]$%^]        /%%%%%]     ",
"      (%%&           _%%%:<[    ",
"      }%|             -@1.%}    ",
"     2%3                  4%2   ",
"    5%!                    6%7  ",
"    8%9                     %0  ",
"   a%b                      c%a ",
"   d%-          eff         g%h ",
"   ij         kllllf         %m ",
" no%%p        llllllf        >% ",
" ;%%%%d      llllllll        2% ",
" %%%%%q      rlllllll        s% ",
" o%%%%t       llllllu        v% ",
" 1%%%8        klllll         %w ",
"   x*+         fulf         [%y ",
"   z%c                      A%z ",
"    o%                      >o  ",
"    4%B                    C%4  ",
"     w%7                  D%;   ",
"     +%%a             aE+9v>F   ",
"      5%>5           c%%%C}7    ",
"       ~%%G         ]%%%%%z     ",
"        H0%>I]      {%%%%%-     ",
"          J}%%%K^L<%j%%%%%9     ",
"            gM}%%%%}NG%%%y      ",
"                      H~+       ",
"                                "};
