/* XPM */
static char * iond64_xpm[] = {
"64 64 15 1",
" 	c None",
".	c #FFFFFF",
"+	c #26A9E0",
"@	c #25AAE1",
"#	c #25A9E0",
"$	c #25AAE0",
"%	c #25A9DF",
"&	c #25A9E1",
"*	c #24A9DF",
"=	c #25A8DF",
"-	c #24A9E0",
";	c #26AAE1",
">	c #26AAE0",
",	c #24A8E0",
"'	c #24ABE1",
"                                                                ",
"                                                                ",
"                                                                ",
"                                                                ",
"                                           ...                  ",
"                          ............   .......                ",
"                       ..........................               ",
"                     .............................              ",
"                   ...............................              ",
"                 ..........          .............              ",
"                ........              ............              ",
"              .......                  ...........              ",
"             .......                   ............             ",
"            ......                      ............            ",
"           ......                       .............           ",
"           .....                          ..... .....           ",
"          .....                                  .....          ",
"         .....                                    .....         ",
"         ....                                      ....         ",
"        .....                                      .....        ",
"        ....                                        .....       ",
"       .....                                         ....       ",
"       ....                                          ....       ",
"      .....                                           ....      ",
"      ....                     +@                     ....      ",
"      ....                  #$$$$$$$                  ....      ",
"      ....                 #$$$$$$$$$                 .....     ",
"     .....                %$$$$$$$$$$$                 ....     ",
"   ........              &$$$$$$$$$$$$$                ....     ",
"  ..........             $$$$$$$$$$$$$$                ....     ",
"  ..........             $$$$$$$$$$$$$$*               ....     ",
" ............            $$$$$$$$$$$$$$&               ....     ",
" ............            $$$$$$$$$$$$$$=               ....     ",
" ............            $$$$$$$$$$$$$$                ....     ",
" ............            $$$$$$$$$$$$$$                ....     ",
"  ..........             -$$$$$$$$$$$$;                ....     ",
"  ..........              #$$$$$$$$$$+                 ....     ",
"   ........                @$$$$$$$$>                 ....      ",
"     .....                  =$$$$$$,                  ....      ",
"      ....                      '                     ....      ",
"      .....                                          .....      ",
"       ....                                          ....       ",
"       .....                                         ....       ",
"        ....                                        ....        ",
"        .....                                      .....        ",
"         ....                                      ....         ",
"         .....                                    .....         ",
"          .....                                  .....          ",
"           .....                          ..... .....           ",
"           ......                       .............           ",
"            ......                     .............            ",
"             .......                   ............             ",
"              ........                 ...........              ",
"                ........              ............              ",
"                 ..........          .............              ",
"                   ...............................              ",
"                     .............................              ",
"                       ..........................               ",
"                           ..........    .......                ",
"                                           ...                  ",
"                                                                ",
"                                                                ",
"                                                                ",
"                                                                "};
