/* XPM */
static char * iond_regtest16_xpm[] = {
"16 16 2 1",
" 	c None",
".	c #0000FF",
"                ",
"                ",
"        . ..    ",
"     ..  ...    ",
"    .     ...   ",
"   .        .   ",
"   .         .  ",
"  ..         .  ",
"  ..         .  ",
"   .         .  ",
"   .        .   ",
"    .     ...   ",
"     ..  ...    ",
"        . ..    ",
"                ",
"                "};
