/* XPM */
static char * iond_regtest16_xpm[] = {
"16 16 62 1",
" 	c None",
".	c #9E9E9E",
"+	c #CDCDCD",
"@	c #F8F8F8",
"#	c #FFFFFF",
"$	c #D36A6A",
"%	c #FF3737",
"&	c #F94444",
"*	c #D4D4D4",
"=	c #9A9A9A",
"-	c #EB5252",
";	c #AC6464",
">	c #E0E0E0",
",	c #AEAEAE",
"'	c #B95E5E",
")	c #EF4E4E",
"!	c #D55F5F",
"~	c #DCDADA",
"{	c #BBBBBB",
"]	c #B9B9B9",
"^	c #B7B7B7",
"/	c #F3F3F3",
"(	c #F0F0F0",
"_	c #A78080",
":	c #BAA0A0",
"<	c #FF0000",
"[	c #BEBEBE",
"}	c #A0A0A0",
"|	c #C15E5E",
"1	c #FF3838",
"2	c #FE3B3B",
"3	c #A9A9A9",
"4	c #AFAFAF",
"5	c #D75A5A",
"6	c #C85D5D",
"7	c #A8A8A8",
"8	c #B0B0B0",
"9	c #E65454",
"0	c #E05A5A",
"a	c #BCBCBC",
"b	c #F1F1F1",
"c	c #EEEEEE",
"d	c #BFBFBF",
"e	c #B4B4B4",
"f	c #B2B2B2",
"g	c #BDBDBD",
"h	c #E5E5E5",
"i	c #A7A7A7",
"j	c #E95252",
"k	c #D06363",
"l	c #E2E1E1",
"m	c #DADADA",
"n	c #CCCCCC",
"o	c #959595",
"p	c #EA5252",
"q	c #AB6666",
"r	c #A2A2A2",
"s	c #FEFEFE",
"t	c #EFEFEF",
"u	c #D76767",
"v	c #FA4040",
"w	c #B65E5E",
"                ",
"     .+@#@$%&   ",
"    **=   -%%;  ",
"   >,     ')!~  ",
"  {]         ^] ",
"  /           ( ",
" _:     <     [}",
"|12    <<<    34",
"5%%6   <<<    78",
" 90     <     a}",
"  b           c ",
"  de         fg ",
"   hi      jkl  ",
"    mno   p%%q  ",
"     r*stsu%v   ",
"           w    "};
