/* XPM */
static char * iond_testnet64_xpm[] = {
"64 64 43 1",
" 	c None",
".	c #12BCFB",
"+	c #13BFFF",
"@	c #14BFFF",
"#	c #12B1ED",
"$	c #13BBFB",
"%	c #13BEFE",
"&	c #13BEFF",
"*	c #13BDFE",
"=	c #13BBFA",
"-	c #12BDFD",
";	c #13C0FF",
">	c #11B3EE",
",	c #13BEFD",
"'	c #13BDFC",
")	c #13BCFC",
"!	c #12B9F7",
"~	c #13BAF7",
"{	c #13BCFA",
"]	c #14BEFF",
"^	c #13BCFB",
"/	c #12BCFC",
"(	c #12BDFE",
"_	c #14BEFE",
":	c #14BDFD",
"<	c #12B7F6",
"[	c #14BCFD",
"}	c #13BCFD",
"|	c #14BDFC",
"1	c #13BBF9",
"2	c #12BBFA",
"3	c #13BDFD",
"4	c #13BBFC",
"5	c #12B8F7",
"6	c #12BDFB",
"7	c #13BAF9",
"8	c #13BFFE",
"9	c #13B9F7",
"0	c #13BAFB",
"a	c #14C0FF",
"b	c #11B3EF",
"c	c #12BBF9",
"d	c #13B5F2",
"                                                                ",
"                                                                ",
"                                                                ",
"                                                                ",
"                                                                ",
"                                                                ",
"                                                                ",
"                                                                ",
"                                                                ",
"                                         .++@#                  ",
"                            $%&+++++&*  &+++++=                 ",
"                         -;++++++++++++++++++++>                ",
"                       %+++++++++++++++++++++++&                ",
"                     ,+++++++&')! ~{)]++++++++++                ",
"                    ++++++*            ++++++++&                ",
"                   +++++^              ++++++++&                ",
"                  +++++                /+++++++++               ",
"                 ++++(                  );+++&+++_              ",
"                &+++)                         %+++:             ",
"               ++++/                           &+++<            ",
"              [+++*                             +++;            ",
"              +++@                               +++}           ",
"             )+++                                |+++           ",
"             &++%                                 +++|          ",
"             +++                                  '+++          ",
"            &+++                                   +++          ",
"            ;++)                                   +++%         ",
"            +++                                    1+++         ",
"           =+++                                     +++         ",
"          ++++++                                    +++         ",
"         ;++++++;                                   +++         ",
"        =++++++++&                                  +++         ",
"        &+++++++++                                  +++         ",
"        *+++++++++                                  +++         ",
"         ++++++++                                   +++         ",
"         +++++++&                                   +++         ",
"          @++++@                                   .+++         ",
"            +++2                                   +++*         ",
"            ++++                                   +++          ",
"             +++                                  *+++          ",
"             &++%                                 &++*          ",
"             )+++                                |+++           ",
"              &+++                               +++3           ",
"              4+++%                             ;+++            ",
"               ]+++=                           @+++5            ",
"                &+++6                         &+++)             ",
"                 ++++*                   +++++++++              ",
"                  ++++&                7++++++++&               ",
"                   +++++2              &+++++++&                ",
"                    8++++;)            ++++++++&                ",
"                     )++++++&%=    90a++++++++++                ",
"                       3+++++++++++++++++++++++@                ",
"                         (&++++++++++++++++++++b                ",
"                            4@+++++++&c ++++++3                 ",
"                                         &++&d                  ",
"                                                                ",
"                                                                ",
"                                                                ",
"                                                                ",
"                                                                ",
"                                                                ",
"                                                                ",
"                                                                ",
"                                                                "};
