/* XPM */
static char * iond64_xpm[] = {
"64 64 67 1",
" 	c None",
".	c #FDFDFE",
"+	c #FFFFFF",
"@	c #F5F6F8",
"#	c #F4F9FF",
"$	c #FAFCFF",
"%	c #FEFEFF",
"&	c #FDFEFF",
"*	c #F9FCFF",
"=	c #FDFDFD",
"-	c #F7FCFF",
";	c #F4F6FA",
">	c #FBFEFF",
",	c #F8FBFF",
"'	c #F0F7FF",
")	c #EAF3FF",
"!	c #EBF4FF",
"~	c #F2F9FF",
"{	c #FAFDFF",
"]	c #FAFBFF",
"^	c #FEFFFF",
"/	c #EDF5FF",
"(	c #F1F7FF",
"_	c #F3F9FF",
":	c #F2F7FF",
"<	c #F5FAFF",
"[	c #FCFEFF",
"}	c #FBFCFF",
"|	c #2CBFFF",
"1	c #2DBDFF",
"2	c #2CBCFF",
"3	c #2CBDFF",
"4	c #2FB8FF",
"5	c #FBFDFE",
"6	c #2DBCFF",
"7	c #2CBEFF",
"8	c #2DBBFF",
"9	c #EDF4FF",
"0	c #30B5FF",
"a	c #F9FBFF",
"b	c #2DBEFF",
"c	c #2FB6FF",
"d	c #2DBAFF",
"e	c #E3EEFF",
"f	c #2FBAFF",
"g	c #F6FBFF",
"h	c #EFF7FF",
"i	c #30B7FF",
"j	c #FCFDFF",
"k	c #F8FCFF",
"l	c #FDFEFE",
"m	c #F3F8FD",
"n	c #EEF5FF",
"o	c #F7FAFD",
"p	c #FBFDFF",
"q	c #F5F9FF",
"r	c #E6F1FF",
"s	c #FCFDFE",
"t	c #E9F4FF",
"u	c #F7FAFF",
"v	c #E7F1FF",
"w	c #EDF6FF",
"x	c #F5FBFF",
"y	c #FDFDFF",
"z	c #F5F8FA",
"A	c #F4FAFF",
"B	c #F8F9FB",
"                                                                ",
"                                                                ",
"                                                                ",
"                                                                ",
"                                                                ",
"                                                                ",
"                                                                ",
"                                                                ",
"                                                                ",
"                                         .+++@                  ",
"                            #$%++++%&*  ++++++=                 ",
"                         -%++++++++++++++++++++;                ",
"                       >++++++++++++++++++++++++                ",
"                     -+++++++&,') !~{+++++++++++                ",
"                    %+++++]            +++++++++                ",
"                   %++++,              ++++++++^                ",
"                  ++++&                /++++++++%               ",
"                 ++++,                  /%+++++++^              ",
"                ++++(                         &+++&             ",
"               &+++_                           &+++#            ",
"              :+++{                             +++%            ",
"              +++%                               +++&           ",
"             <+++                                $+++           ",
"             +++[                                 +++}          ",
"             +++                                  $+++          ",
"            &++^                                   +++          ",
"            +++(               ||||1               ^++}         ",
"            +++              12222||34             ,+++         ",
"           5+++             6222222||3              +++         ",
"          ++++++            22777|22|||             +++         ",
"         ++++++++          8277777722|3             +++         ",
"        *++++++++9         3277117722|30            +++         ",
"        &++++++++a         32777b7722|3c            +++         ",
"        [++++++++,         d27777772|||             +++         ",
"         ++++++++e          227|7722|||             +++         ",
"         %++++++&           1222222||3              +++         ",
"          ^++++&             ||22|||3f             g++%         ",
"            +++h              i||||3               %++&         ",
"            j++^                                   +++          ",
"             +++                                  g+++          ",
"             +++{                                 +++&          ",
"             k+++                                k+++           ",
"              +++%                               +++l           ",
"              m+++,                             ^+++            ",
"               &+++n                           &+++o            ",
"                ++++9                         p+++l             ",
"                 ++++q                  r%++++++++              ",
"                  ++++s                t++++++++^               ",
"                   +++++#              ++++++++%                ",
"                    ^+++++u            +++++++++                ",
"                     $+++++++p_v   wxy++++++++++                ",
"                       l++++++++++++++++++++++++                ",
"                         $+++++++++++++++++++++z                ",
"                            oy++++++%5A ++++++l                 ",
"                                         ^+++B                  ",
"                                                                ",
"                                                                ",
"                                                                ",
"                                                                ",
"                                                                ",
"                                                                ",
"                                                                ",
"                                                                ",
"                                                                "};
