/* XPM */
static char * iond48_xpm[] = {
"48 48 52 1",
" 	c None",
".	c #F4FAFF",
"+	c #FDFEFE",
"@	c #FFFFFF",
"#	c #FBFDFD",
"$	c #F8FBFF",
"%	c #F7FAFC",
"&	c #FDFEFF",
"*	c #F5FAFF",
"=	c #F0F8FF",
"-	c #F0F7FF",
";	c #FAFBFF",
">	c #FEFEFF",
",	c #FAFDFF",
"'	c #F3F8FF",
")	c #F7FAFD",
"!	c #F9FBFF",
"~	c #F9FCFE",
"{	c #2FBAFF",
"]	c #2FB8FF",
"^	c #ECF5FF",
"/	c #2CBDFF",
"(	c #2CBCFF",
"_	c #2CBFFF",
":	c #F1F8FF",
"<	c #EEF5FF",
"[	c #F4F8FF",
"}	c #2CBEFF",
"|	c #F3F9FF",
"1	c #FCFEFF",
"2	c #2EBAFF",
"3	c #2DBEFF",
"4	c #2DBBFF",
"5	c #2EBBFF",
"6	c #F5F9FF",
"7	c #EEF6FF",
"8	c #2EBCFF",
"9	c #FAFCFF",
"0	c #FBFCFF",
"a	c #FEFFFF",
"b	c #F8FCFF",
"c	c #FCFDFF",
"d	c #F9FCFF",
"e	c #F7FBFF",
"f	c #E7F1FF",
"g	c #E9F3FF",
"h	c #FBFEFF",
"i	c #F9F9FB",
"j	c #F6FAFF",
"k	c #F9FDFF",
"l	c #FEFEFE",
"m	c #FDFDFE",
"                                                ",
"                                                ",
"                                                ",
"                                                ",
"                                                ",
"                                                ",
"                                                ",
"                        ..    +@@@#             ",
"                   $@@@@@@@@@@@@@@@%            ",
"                 &@@@@@@@@@@@@@@@@@@            ",
"               *@@@@@=      -@@@@@@@            ",
"              &@@@;          @@@@@@@            ",
"             &@@@             @@@@@@>           ",
"            &@@&               ,>,>@@&          ",
"           '@@&                    &@@)         ",
"           @@@                      @@@         ",
"          &@@                        @@>        ",
"          @@!                        ,@@        ",
"         $@@                          @@~       ",
"         @@>            {]            >@@       ",
"         @@^          /((___          :@@       ",
"        &@@<         /(((((__          @@       ",
"       @@@@@[        (_}}_(__          @@|      ",
"      1@@@@@@       2(}}3}((_4         @@)      ",
"      @@@@@@@       2(}}}}(__5         @@)      ",
"      &@@@@@@        (}}}}(_/          @@6      ",
"       @@@@@&        _((((___          @@       ",
"        @@@&          _____/          7@@       ",
"         @@>            85            >@@       ",
"         9@@                          @@0       ",
"          @@!                        $@@        ",
"          a@@                        @@>        ",
"           @@@                      @@@         ",
"           b@@c                    &@@d         ",
"            &@@c               e&ec@@>          ",
"             >@@>             @@@@@@a           ",
"              >@@@e          @@@@@@@            ",
"               $@@@@>f      g@@@@@@@            ",
"                 >@@@@@@@@@@@@@@@@@@            ",
"                   h@@@@@@@@@@@@@@@i            ",
"                       jk,j   l@@@m             ",
"                                                ",
"                                                ",
"                                                ",
"                                                ",
"                                                ",
"                                                ",
"                                                "};
