/* XPM */
static char * iond_regtest48_xpm[] = {
"48 48 150 2",
"  	c None",
". 	c #C35E5E",
"+ 	c #DF5858",
"@ 	c #E15555",
"# 	c #D15B5B",
"$ 	c #9B9B9B",
"% 	c #B7B7B7",
"& 	c #DADADA",
"* 	c #F9F9F9",
"= 	c #FFFFFF",
"- 	c #9F8787",
"; 	c #EF4E4E",
"> 	c #FF3737",
", 	c #FC3D3D",
"' 	c #BF5E5E",
") 	c #BDBDBD",
"! 	c #F6F6F6",
"~ 	c #E95858",
"{ 	c #FD3C3C",
"] 	c #C8C8C8",
"^ 	c #EFEFEF",
"/ 	c #FEFEFE",
"( 	c #DDB7B7",
"_ 	c #DB5959",
": 	c #ABABAB",
"< 	c #FAFAFA",
"[ 	c #F3F3F3",
"} 	c #BFBFBF",
"| 	c #A0A0A0",
"1 	c #9E9E9E",
"2 	c #C47373",
"3 	c #CECECE",
"4 	c #D9D9D9",
"5 	c #9D9D9D",
"6 	c #C55D5D",
"7 	c #ED4F4F",
"8 	c #E1E1E1",
"9 	c #E9E9E9",
"0 	c #FF3838",
"a 	c #D76B6B",
"b 	c #E6E6E6",
"c 	c #C3C3C3",
"d 	c #DF5757",
"e 	c #FA4141",
"f 	c #EAD6D6",
"g 	c #E5E5E5",
"h 	c #DCDCDC",
"i 	c #ADADAD",
"j 	c #E35555",
"k 	c #F64545",
"l 	c #DBB1B1",
"m 	c #C0C0C0",
"n 	c #A8A8A8",
"o 	c #B75E5E",
"p 	c #D65B5B",
"q 	c #B4B4B4",
"r 	c #AAAAAA",
"s 	c #EBEBEB",
"t 	c #D2D2D2",
"u 	c #C9C9C9",
"v 	c #F4F4F4",
"w 	c #F0F0F0",
"x 	c #B0B0B0",
"y 	c #EEEEEE",
"z 	c #9F9F9F",
"A 	c #F7F7F7",
"B 	c #CDCDCD",
"C 	c #BBBBBB",
"D 	c #B1B1B1",
"E 	c #CBCBCB",
"F 	c #FBFBFB",
"G 	c #FF0000",
"H 	c #969696",
"I 	c #F5F5F5",
"J 	c #EAEAEA",
"K 	c #D76060",
"L 	c #EC5555",
"M 	c #E75B5B",
"N 	c #C97373",
"O 	c #A6A6A6",
"P 	c #C65D5D",
"Q 	c #FE3939",
"R 	c #F34B4B",
"S 	c #B9B9B9",
"T 	c #FE3838",
"U 	c #EB5151",
"V 	c #C6C6C6",
"W 	c #999999",
"X 	c #F24C4C",
"Y 	c #989898",
"Z 	c #D0D0D0",
"` 	c #EE4D4D",
" .	c #C25E5E",
"..	c #D55B5B",
"+.	c #A7A7A7",
"@.	c #BCBCBC",
"#.	c #F94343",
"$.	c #D85A5A",
"%.	c #A9A9A9",
"&.	c #F44A4A",
"*.	c #FF3939",
"=.	c #D95A5A",
"-.	c #E0E0E0",
";.	c #B66161",
">.	c #D67B7B",
",.	c #D58282",
"'.	c #E3C6C6",
").	c #FDFDFD",
"!.	c #D5D5D5",
"~.	c #A4A4A4",
"{.	c #EDEDED",
"].	c #E3E3E3",
"^.	c #A2A2A2",
"/.	c #A5A5A5",
"(.	c #F2F2F2",
"_.	c #E7E7E7",
":.	c #B2B2B2",
"<.	c #B6B6B6",
"[.	c #A3A3A3",
"}.	c #FCFCFC",
"|.	c #979797",
"1.	c #C05E5E",
"2.	c #C45D5D",
"3.	c #F8F8F8",
"4.	c #FD3B3B",
"5.	c #EA5151",
"6.	c #E0CACA",
"7.	c #E8E8E8",
"8.	c #D35B5B",
"9.	c #F4EBEB",
"0.	c #F1F1F1",
"a.	c #D1D1D1",
"b.	c #FE3B3B",
"c.	c #D47676",
"d.	c #EB5252",
"e.	c #D3D3D3",
"f.	c #C26969",
"g.	c #F14D4D",
"h.	c #959595",
"i.	c #DEDEDE",
"j.	c #D4D4D4",
"k.	c #D9A8A8",
"l.	c #FCFAFA",
"m.	c #AD8787",
"n.	c #F94444",
"o.	c #CE5C5C",
"p.	c #9C9C9C",
"q.	c #F04C4C",
"r.	c #E45555",
"s.	c #B85D5D",
"                                                                                                ",
"                                                                                                ",
"                                                                  . + @ #                       ",
"                                      $ % & * = = = = = * & % - ; > > > > , '                   ",
"                                  ) ! = = = = = = = = = = = = ~ > > > > > > {                   ",
"                              ] = = = = = = = = = ^ / = = = ( > > > > > > > > _                 ",
"                          : < = = = = [ } |               1 2 > > > > > > > > ;                 ",
"                        3 = = = = 4 5                       6 > > > > > > > > 7                 ",
"                      8 = = = 9 $                             0 > > > > > > > a                 ",
"                    b = = = c                                 d > > > > > > e f g               ",
"                  h = = = i                                     j > > > > k l = = &             ",
"                m = = = n                                         o # p .   | = = = )           ",
"              5 = = = q                                                       r = = = $         ",
"              s = = t                                                           u = = 9         ",
"            : = = *                                                               v = = r       ",
"            w = = x                                                               n = = y       ",
"          z = = A                                                                   ^ = = 1     ",
"          B = = C                                                                   D = = E     ",
"          F = =                                 G G G                                 = = <     ",
"        H = = I                             G G G G G G G                             J = =     ",
"        K L M N                           G G G G G G G G G                           m = = O   ",
"    P Q > > > > R                         G G G G G G G G G G                         : = = S   ",
"    T > > > > > > U                     G G G G G G G G G G G                         1 = = V   ",
"  d > > > > > > > >                     G G G G G G G G G G G G                       W = = 3   ",
"  X > > > > > > > > P                   G G G G G G G G G G G G                       Y = = Z   ",
"  ` > > > > > > > >  .                  G G G G G G G G G G G                         5 = = ]   ",
"  ..> > > > > > > Q                       G G G G G G G G G G                         +.= = @.  ",
"    #.> > > > > > $.                      G G G G G G G G G                           C = = %.  ",
"      &.> > > *.=.                          G G G G G G G                             -.= = Y   ",
"        ;.>.,.'.                                G G G G                               = = ).    ",
"          !.= = D                                                                   n = = t     ",
"          ~.= = {.                                                                  ].= = ^.    ",
"            A = = /.                                                              1 = = !       ",
"            q = = (.                                                              _.= = :.      ",
"              v = = m                                                           <.= = [         ",
"              O = = = [.                                                      $ = = = ~.        ",
"                3 = = }.|.                                          1.2.      3.= = B           ",
"                  s = = * W                                     # 4.> > > 5.6.= = 7.            ",
"                    [ = = ).r                                 8.> > > > > > &.9.0.              ",
"                      ^ = = = a.                              b.> > > > > > > c.                ",
"                        8 = = = }.C                         . > > > > > > > > d.                ",
"                          } = = = = = e.+.                  f.> > > > > > > > g.                ",
"                            h.i.= = = = = = }.8 j.u j.i.F = k.> > > > > > > > d                 ",
"                                $ !.= = = = = = = = = = = = l.g.> > > > > > 0 o                 ",
"                                      r 3 3.= = = = = = = 3.B m.n.> > > > 0 o.                  ",
"                                                W p.W             p q.&.r.s.                    ",
"                                                                                                ",
"                                                                                                "};
