/* XPM */
static char * iond128_xpm[] = {
"128 128 17 1",
" 	c None",
".	c #FFFFFF",
"+	c #26A9DF",
"@	c #25AAE0",
"#	c #25A9DF",
"$	c #26A8E0",
"%	c #26A9E0",
"&	c #26ABE1",
"*	c #27A9E1",
"=	c #25A9E0",
"-	c #27AAE1",
";	c #26A8E1",
">	c #26AAE0",
",	c #25A8DF",
"'	c #26A9E1",
")	c #26A8DF",
"!	c #26A7DF",
"                                                                                                                                ",
"                                                                                                                                ",
"                                                                                                                                ",
"                                                                                                                                ",
"                                                                                                                                ",
"                                                                                                                                ",
"                                                                                                                                ",
"                                                                                                                                ",
"                                                                                                                                ",
"                                                                                    .........                                   ",
"                                                        .................         .............                                 ",
"                                                   ...........................   ...............                                ",
"                                               ..................................................                               ",
"                                            ......................................................                              ",
"                                          .........................................................                             ",
"                                        ...........................................................                             ",
"                                      ..............................................................                            ",
"                                    ................................................................                            ",
"                                   .....................                ............................                            ",
"                                 ...................                        ........................                            ",
"                                .................                            .......................                            ",
"                              ................                               .......................                            ",
"                             ...............                                 .......................                            ",
"                            ..............                                   .......................                            ",
"                           .............                                      .......................                           ",
"                          .............                                       ........................                          ",
"                         ............                                          ........................                         ",
"                        ............                                           .........................                        ",
"                       ............                                             .........................                       ",
"                      ............                                               .........................                      ",
"                      ...........                                                  ............ ...........                     ",
"                     ..........                                                      .......     ..........                     ",
"                    ..........                                                                    ..........                    ",
"                   ...........                                                                     ..........                   ",
"                   ..........                                                                       .........                   ",
"                  ..........                                                                        ..........                  ",
"                 ..........                                                                          ..........                 ",
"                 .........                                                                            .........                 ",
"                ..........                                                                             .........                ",
"                .........                                                                              .........                ",
"               ..........                                                                               .........               ",
"               .........                                                                                .........               ",
"              .........                                                                                  .........              ",
"              .........                                                                                  .........              ",
"              ........                                                                                    .........             ",
"             .........                                                                                    .........             ",
"             .........                                                                                     ........             ",
"             ........                                                                                      .........            ",
"            .........                                                                                       ........            ",
"            ........                                       +@@@@@@@@#                                       ........            ",
"            ........                                     $@@@@@@@@@@@@%&                                    ........            ",
"           .........                                   +@@@@@@@@@@@@@@@@*                                    ........           ",
"           .........                                  %@@@@@@@@@@@@@@@@@@@                                   ........           ",
"           ........                                  +@@@@@@@@@@@@@@@@@@@@@                                  ........           ",
"           ........                                 =@@@@@@@@@@@@@@@@@@@@@@@                                 ........           ",
"         ...........                               %@@@@@@@@@@@@@@@@@@@@@@@@-                                ........           ",
"       ..............                              @@@@@@@@@@@@@@@@@@@@@@@@@@+                                ........          ",
"      ................                            ;@@@@@@@@@@@@@@@@@@@@@@@@@@%                                ........          ",
"     ..................                           @@@@@@@@@@@@@@@@@@@@@@@@@@@@                                ........          ",
"    ....................                          @@@@@@@@@@@@@@@@@@@@@@@@@@@@>                               ........          ",
"    ....................                         =@@@@@@@@@@@@@@@@@@@@@@@@@@@@@                               ........          ",
"   ......................                        @@@@@@@@@@@@@@@@@@@@@@@@@@@@@@                               ........          ",
"   ......................                        @@@@@@@@@@@@@@@@@@@@@@@@@@@@@@                               ........          ",
"   .......................                       @@@@@@@@@@@@@@@@@@@@@@@@@@@@@@                               ........          ",
"  ........................                       @@@@@@@@@@@@@@@@@@@@@@@@@@@@@@                               ........          ",
"  ........................                       @@@@@@@@@@@@@@@@@@@@@@@@@@@@@@                               ........          ",
"  ........................                       %@@@@@@@@@@@@@@@@@@@@@@@@@@@@@                               ........          ",
"  ........................                       $@@@@@@@@@@@@@@@@@@@@@@@@@@@@@                               ........          ",
"   ......................                         @@@@@@@@@@@@@@@@@@@@@@@@@@@@%                               ........          ",
"   ......................                         @@@@@@@@@@@@@@@@@@@@@@@@@@@@                                ........          ",
"   ......................                         +@@@@@@@@@@@@@@@@@@@@@@@@@@%                                ........          ",
"    ....................                           %@@@@@@@@@@@@@@@@@@@@@@@@@                                 ........          ",
"    ....................                            @@@@@@@@@@@@@@@@@@@@@@@@%                                ........           ",
"     ..................                             ,@@@@@@@@@@@@@@@@@@@@@@'                                 ........           ",
"      ................                               %@@@@@@@@@@@@@@@@@@@@%                                  ........           ",
"       ..............                                 &@@@@@@@@@@@@@@@@@@-                                   ........           ",
"         ...........                                   )@@@@@@@@@@@@@@@@!                                    ........           ",
"            ........                                     $@@@@@@@@@@@@#                                     ........            ",
"            ........                                        $@@@@@@-+                                       ........            ",
"            .........                                                                                       ........            ",
"             ........                                                                                      .........            ",
"             .........                                                                                     ........             ",
"             .........                                                                                    .........             ",
"              ........                                                                                    ........              ",
"              .........                                                                                  .........              ",
"               ........                                                                                  .........              ",
"               .........                                                                                .........               ",
"               ..........                                                                               .........               ",
"                .........                                                                              .........                ",
"                ..........                                                                             .........                ",
"                 ..........                                                                           .........                 ",
"                  .........                                                                          ..........                 ",
"                  ..........                                                                        ..........                  ",
"                   ..........                                                                       .........                   ",
"                   ...........                                                                     ..........                   ",
"                    ...........                                                                   ..........                    ",
"                     ...........                                                     ........    ..........                     ",
"                      ...........                                                  ............ ..........                      ",
"                       ...........                                               .........................                      ",
"                       ............                                             .........................                       ",
"                        ............                                           .........................                        ",
"                         .............                                         ........................                         ",
"                          .............                                       ........................                          ",
"                           ..............                                     .......................                           ",
"                            ..............                                   .......................                            ",
"                              ..............                                 .......................                            ",
"                               ...............                               .......................                            ",
"                                .................                            .......................                            ",
"                                 ...................                        ........................                            ",
"                                   ......................              .............................                            ",
"                                     ...............................................................                            ",
"                                      ..............................................................                            ",
"                                        ...........................................................                             ",
"                                          .........................................................                             ",
"                                             .....................................................                              ",
"                                                .................................................                               ",
"                                                    .........................    ...............                                ",
"                                                         ..............            ............                                 ",
"                                                                                     ........                                   ",
"                                                                                                                                ",
"                                                                                                                                ",
"                                                                                                                                ",
"                                                                                                                                ",
"                                                                                                                                ",
"                                                                                                                                ",
"                                                                                                                                ",
"                                                                                                                                ",
"                                                                                                                                "};
