/* XPM */
static char * iond16_xpm[] = {
"16 16 9 1",
" 	c None",
".	c #FFFFFF",
"+	c #26AAE0",
"@	c #25A9E0",
"#	c #25ABE0",
"$	c #25AAE0",
"%	c #26A8E0",
"&	c #26ABE1",
"*	c #25AAE1",
"                ",
"      ......    ",
"    ..   ....   ",
"   .      ...   ",
"  .          .  ",
"  .          .  ",
" .     +@     . ",
" ..   #$$$    . ",
"...   %$$&    . ",
" ..    @*     . ",
"  .          .  ",
"  .          .  ",
"   .      ...   ",
"    ..   ....   ",
"      ......    ",
"                "};
