/* XPM */
static char * iond_regtest128_xpm[] = {
"128 128 2 1",
" 	c None",
".	c #0000FF",
"                                                                                                                                ",
"                                                                                                                                ",
"                                                                                                                                ",
"                                                                                                                                ",
"                                                                                                                                ",
"                                                                                                                                ",
"                                                                                                                                ",
"                                                                                                                                ",
"                                                                                                                                ",
"                                                                                                                                ",
"                                                                                                                                ",
"                                                                                                                                ",
"                                                                                                                                ",
"                                                                                                                                ",
"                                                                                                                                ",
"                                                                                                                                ",
"                                                                                                                                ",
"                                                                                                                                ",
"                                                                                   .......                                      ",
"                                                                                 ...........                                    ",
"                                                           ...............      .............                                   ",
"                                                       .......................................                                  ",
"                                                    ...........................................                                 ",
"                                                 ..............................................                                 ",
"                                               .................................................                                ",
"                                             ...................................................                                ",
"                                           .....................................................                                ",
"                                          ..................             .......................                                ",
"                                        ................                     ...................                                ",
"                                       ..............                        ...................                                ",
"                                      .............                           ..................                                ",
"                                     ............                             ...................                               ",
"                                    ...........                               ....................                              ",
"                                   ...........                                 ....................                             ",
"                                  ..........                                    ....................                            ",
"                                 ..........                                       ..................                            ",
"                                ..........                                          .....   .........                           ",
"                               ..........                                                    .........                          ",
"                               .........                                                      .........                         ",
"                              .........                                                        ........                         ",
"                             .........                                                         .........                        ",
"                             ........                                                           .........                       ",
"                            ........                                                             ........                       ",
"                            ........                                                              ........                      ",
"                           ........                                                               ........                      ",
"                           ........                                                                ........                     ",
"                          ........                                                                 ........                     ",
"                          .......                                                                   ........                    ",
"                         ........                                                                   ........                    ",
"                         ........                                                                    .......                    ",
"                         .......                                                                     ........                   ",
"                        ........                                                                      .......                   ",
"                        .......                                                                       .......                   ",
"                        .......                                                                       ........                  ",
"                        .......                                                                        .......                  ",
"                       ........                                                                        .......                  ",
"                       .......                                                                         .......                  ",
"                     ..........                                                                        .......                  ",
"                    ............                                                                       ........                 ",
"                   ..............                                                                       .......                 ",
"                  ................                                                                      .......                 ",
"                 ..................                                                                     .......                 ",
"                 ..................                                                                     .......                 ",
"                 ..................                                                                     .......                 ",
"                ....................                                                                    .......                 ",
"                ....................                                                                    .......                 ",
"                ....................                                                                    .......                 ",
"                 ..................                                                                     .......                 ",
"                 ..................                                                                     .......                 ",
"                 ..................                                                                    ........                 ",
"                  ................                                                                     .......                  ",
"                  ................                                                                     .......                  ",
"                   ..............                                                                      .......                  ",
"                    ............                                                                       .......                  ",
"                      .........                                                                       ........                  ",
"                        .......                                                                       .......                   ",
"                        ........                                                                      .......                   ",
"                         .......                                                                     ........                   ",
"                         .......                                                                     .......                    ",
"                         ........                                                                   ........                    ",
"                          .......                                                                   ........                    ",
"                          ........                                                                 ........                     ",
"                          ........                                                                 ........                     ",
"                           ........                                                               ........                      ",
"                           .........                                                              ........                      ",
"                            ........                                                             ........                       ",
"                             ........                                                           .........                       ",
"                             .........                                                         .........                        ",
"                              .........                                                        .........                        ",
"                              ..........                                                      .........                         ",
"                               ..........                                                    .........                          ",
"                                ..........                                          .....   .........                           ",
"                                 ..........                                       ...................                           ",
"                                  ..........                                    ....................                            ",
"                                   ..........                                  ....................                             ",
"                                    ...........                                ...................                              ",
"                                     ............                             ...................                               ",
"                                      ............                            ..................                                ",
"                                       ..............                        ...................                                ",
"                                        ...............                      ...................                                ",
"                                          .................               ......................                                ",
"                                           .....................................................                                ",
"                                             ...................................................                                ",
"                                               .................................................                                ",
"                                                 ..............................................                                 ",
"                                                   ............................................                                 ",
"                                                      ........................................                                  ",
"                                                          .................     .............                                   ",
"                                                                                 ...........                                    ",
"                                                                                   ........                                     ",
"                                                                                                                                ",
"                                                                                                                                ",
"                                                                                                                                ",
"                                                                                                                                ",
"                                                                                                                                ",
"                                                                                                                                ",
"                                                                                                                                ",
"                                                                                                                                ",
"                                                                                                                                ",
"                                                                                                                                ",
"                                                                                                                                ",
"                                                                                                                                ",
"                                                                                                                                ",
"                                                                                                                                ",
"                                                                                                                                ",
"                                                                                                                                ",
"                                                                                                                                ",
"                                                                                                                                "};
