/* XPM */
static char * ionregtest16_xpm[] = {
"16 16 98 2",
"  	c None",
". 	c #360036",
"+ 	c #370037",
"@ 	c #390039",
"# 	c #3A003A",
"$ 	c #400040",
"% 	c #430043",
"& 	c #440044",
"* 	c #3E003E",
"= 	c #470047",
"- 	c #460046",
"; 	c #590059",
"> 	c #8D008D",
", 	c #9A009A",
"' 	c #780078",
") 	c #BB00BB",
"! 	c #920092",
"~ 	c #3F003F",
"{ 	c #490049",
"] 	c #4C004C",
"^ 	c #C800C8",
"/ 	c #EB00EB",
"( 	c #B200B2",
"_ 	c #A200A2",
": 	c #CE00CE",
"< 	c #FF00FF",
"[ 	c #350035",
"} 	c #3B003B",
"| 	c #4A004A",
"1 	c #E900E9",
"2 	c #9E009E",
"3 	c #600060",
"4 	c #6A006A",
"5 	c #6B006B",
"6 	c #650065",
"7 	c #BF00BF",
"8 	c #D800D8",
"9 	c #AB00AB",
"0 	c #3C003C",
"a 	c #410041",
"b 	c #AD00AD",
"c 	c #AE00AE",
"d 	c #660066",
"e 	c #770077",
"f 	c #7C007C",
"g 	c #580058",
"h 	c #E800E8",
"i 	c #670067",
"j 	c #380038",
"k 	c #450045",
"l 	c #EE00EE",
"m 	c #620062",
"n 	c #800080",
"o 	c #890089",
"p 	c #7D007D",
"q 	c #860086",
"r 	c #C600C6",
"s 	c #FE00FE",
"t 	c #790079",
"u 	c #7B007B",
"v 	c #5A005A",
"w 	c #6F006F",
"x 	c #7E007E",
"y 	c #5E005E",
"z 	c #EA00EA",
"A 	c #3D003D",
"B 	c #F800F8",
"C 	c #A100A1",
"D 	c #560056",
"E 	c #6C006C",
"F 	c #7F007F",
"G 	c #5F005F",
"H 	c #630063",
"I 	c #F400F4",
"J 	c #610061",
"K 	c #810081",
"L 	c #840084",
"M 	c #750075",
"N 	c #740074",
"O 	c #D100D1",
"P 	c #C200C2",
"Q 	c #950095",
"R 	c #D600D6",
"S 	c #500050",
"T 	c #6E006E",
"U 	c #B700B7",
"V 	c #CA00CA",
"W 	c #570057",
"X 	c #E600E6",
"Y 	c #D000D0",
"Z 	c #8F008F",
"` 	c #AF00AF",
" .	c #760076",
"..	c #C000C0",
"+.	c #9D009D",
"@.	c #DF00DF",
"#.	c #B500B5",
"$.	c #420042",
"  . + + . . @ # # @ . . + + .   ",
". . . . # $ % & % % # + . . . . ",
". . + * = - ; > , ' ) ! @ + . . ",
". . ~ { ] ^ / ( _ : < < & * . . ",
"[ } = | 1 2 3 4 5 6 7 8 9 $ 0 [ ",
". a { b c d e f f e 4 g h i ~ . ",
"j k = l m e n o p q e 4 n r ~ @ ",
"# a c s t u > v ; w x w y z A } ",
"# 0 B < C t > D v E F w G 1 A # ",
"@ & H I J e K L M q ' 5 N O ~ @ ",
". a - P Q 4 ' p x ' E v R e ~ + ",
"[ } = S B n H T T d 2 U V ~ 0 [ ",
". . ~ { W X Y Z n ` < < k $ . . ",
". . + ~ = -  .( ..+.@.#.@ + . . ",
". . . . 0 a & % % $.+ [ + . . . ",
"  . . [ [ . @ } } @ . [ . . .   "};
