/* XPM */
static char * ionregtest32_xpm[] = {
"32 32 158 2",
"  	c None",
". 	c #360036",
"+ 	c #370037",
"@ 	c #380038",
"# 	c #350035",
"$ 	c #3B003B",
"% 	c #3C003C",
"& 	c #3D003D",
"* 	c #3A003A",
"= 	c #390039",
"- 	c #3E003E",
"; 	c #400040",
"> 	c #410041",
", 	c #420042",
"' 	c #440044",
") 	c #430043",
"! 	c #3F003F",
"~ 	c #450045",
"{ 	c #470047",
"] 	c #480048",
"^ 	c #4A004A",
"/ 	c #490049",
"( 	c #460046",
"_ 	c #4C004C",
": 	c #4D004D",
"< 	c #4E004E",
"[ 	c #500050",
"} 	c #530053",
"| 	c #510051",
"1 	c #5D005D",
"2 	c #800080",
"3 	c #650065",
"4 	c #4B004B",
"5 	c #4F004F",
"6 	c #620062",
"7 	c #860086",
"8 	c #B700B7",
"9 	c #D200D2",
"0 	c #D800D8",
"a 	c #D600D6",
"b 	c #C500C5",
"c 	c #A000A0",
"d 	c #EA00EA",
"e 	c #FF00FF",
"f 	c #970097",
"g 	c #340034",
"h 	c #5E005E",
"i 	c #A600A6",
"j 	c #FD00FD",
"k 	c #EB00EB",
"l 	c #FE00FE",
"m 	c #E200E2",
"n 	c #590059",
"o 	c #740074",
"p 	c #DE00DE",
"q 	c #D300D3",
"r 	c #940094",
"s 	c #6C006C",
"t 	c #690069",
"u 	c #6D006D",
"v 	c #6E006E",
"w 	c #610061",
"x 	c #7D007D",
"y 	c #F200F2",
"z 	c #F300F3",
"A 	c #960096",
"B 	c #670067",
"C 	c #6B006B",
"D 	c #680068",
"E 	c #7B007B",
"F 	c #E800E8",
"G 	c #A700A7",
"H 	c #520052",
"I 	c #F000F0",
"J 	c #850085",
"K 	c #710071",
"L 	c #6F006F",
"M 	c #870087",
"N 	c #730073",
"O 	c #5A005A",
"P 	c #C200C2",
"Q 	c #890089",
"R 	c #720072",
"S 	c #750075",
"T 	c #770077",
"U 	c #790079",
"V 	c #6A006A",
"W 	c #D900D9",
"X 	c #F400F4",
"Y 	c #780078",
"Z 	c #B500B5",
"` 	c #7E007E",
" .	c #7F007F",
"..	c #7C007C",
"+.	c #630063",
"@.	c #7A007A",
"#.	c #BD00BD",
"$.	c #F700F7",
"%.	c #820082",
"&.	c #830083",
"*.	c #8B008B",
"=.	c #640064",
"-.	c #600060",
";.	c #E500E5",
">.	c #CC00CC",
",.	c #910091",
"'.	c #8F008F",
").	c #580058",
"!.	c #A300A3",
"~.	c #700070",
"{.	c #5C005C",
"].	c #AF00AF",
"^.	c #A800A8",
"/.	c #8E008E",
"(.	c #5B005B",
"_.	c #660066",
":.	c #E900E9",
"<.	c #C300C3",
"[.	c #E300E3",
"}.	c #B400B4",
"|.	c #C000C0",
"1.	c #810081",
"2.	c #950095",
"3.	c #880088",
"4.	c #FA00FA",
"5.	c #B800B8",
"6.	c #DD00DD",
"7.	c #900090",
"8.	c #760076",
"9.	c #570057",
"0.	c #CF00CF",
"a.	c #E400E4",
"b.	c #930093",
"c.	c #5F005F",
"d.	c #B300B3",
"e.	c #980098",
"f.	c #ED00ED",
"g.	c #D100D1",
"h.	c #540054",
"i.	c #E100E1",
"j.	c #B600B6",
"k.	c #BA00BA",
"l.	c #9A009A",
"m.	c #BB00BB",
"n.	c #D000D0",
"o.	c #D700D7",
"p.	c #990099",
"q.	c #EE00EE",
"r.	c #A500A5",
"s.	c #A400A4",
"t.	c #E600E6",
"u.	c #F100F1",
"v.	c #CE00CE",
"w.	c #AB00AB",
"x.	c #C600C6",
"y.	c #E000E0",
"z.	c #BF00BF",
"A.	c #C400C4",
"      . . . . . . . . . . + @ @ @ @ + . . . . . . . . . .       ",
"  # . + + + + + + . + @ $ % & & & & % * = + . + + + + + . . .   ",
"  . . . . . . . + * % - ; > , ' ) ) , > - % * + . . . . . . . . ",
". . . . . . . = % ! , ~ { ] ^ ^ ^ ^ / { ~ , ! & = . . . . . . . ",
"# . . . . . * - , ( / _ : < < [ } | : ^ 1 2 3 ' - $ + . . . . . ",
". . . . . $ ! ) ] 4 5 5 6 7 8 9 0 a b c d e e f > ! % . # . . . ",
"g . . . * - ' / : 5 h i d e j 0 0 0 k e l l l m n ' ! $ . . . . ",
"+ + . = - ' / : [ o p e q r s o t u v 8 e l l p w / ' - * # . . ",
"# . + % > ] : [ x y z A u B C C C C D E F e e e G H ] ) & + . . ",
". . * ! ~ 4 | t k I J B s v K K K K L C o M N b e r ^ ( ; $ . . ",
"# . & , / 5 O P e Q B v R S T U U T o K L t 3 V W X t / ) & + . ",
". @ ! ~ _ | Y e Z C v R T E `  . .` ..Y N L t +.@.e #.4 ~ ! = . ",
"g * ; ] < | P $.o s K T x 2 %.&.*.J 2 x Y R u B =.b z -.] > $ . ",
". $ , / [ +.;.>.C L S E 2 &.,...V N '.2 E S L V 6 *.e 7 ] ) % . ",
". & ) ^ ).!.e b ~.K T ` %.'.C {.{.{.O '.` Y K C 3 t e ].] ) - . ",
"= & ' / ^.e l e Z ~.Y 2 &./.n {.{.(.{.E  .@.N s _.s :.<.] ' & @ ",
". & ) 4 W l l l 0 U U  .&.*.n {.{.{.{.Y 2 @.R s _.L [.b ] ' & @ ",
"= % ) ] }.e l e |.~.T  .1.2.1 {.(.{.O 3.x Y R C 3 _.4.5./ ' & + ",
"# % ) / {.5.j 6.K L S ..2 %.7.w n O 2 M x 8.~.V +.E e A { ) % . ",
". $ > ] < 9.0.a.K s R Y ` 1.1.,.7.b.%.` Y R v D c.d.e =.] , $ . ",
"g = ! ~ _ [ ,.e e.B L o Y ..2 2 2 2 x Y o L V 3 s f.g.h.( ! = . ",
". + & , ^ 5 c.i.k o V L N 8.Y U @.Y 8.R L C _.=.j.e ` / ) & + . ",
"# . * ; ( _ 5 1.e g.L t u L R N N R ~.v V 8.v e.e k.H ( ; $ . . ",
"+ . + & , ] < h.l.e 9 8.3 V s u s s V u m.m n.e o.O / ) - @ . . ",
"# . # * - ' ^ < 9.p.j q.r.K 3 =.=.=.-.s.e l l t._./ ' ; * # . . ",
". . . . $ ! ' ^ < | ..0 e u.v.d.i w.<.f.l l l d {.~ ; % . . . . ",
"# . . . + $ ; ' / : < (.%.x.y.e e e q.9 e l e z.~ ; % + . . . . ",
"+ . . . . + $ ! , ( ^ : : < 6 {.+.-.c.9.J A.!.[ ! % + # . . . . ",
"g . . . . . + = & > ) ( / ^ 4 _ _ _ ^ / ' ; - - * . . . . . . . ",
"  . . . . . . . @ $ & ; > ) ' ' ' ) ) > ; & $ @ . . . . . . . . ",
"  . . . . . . . . . + = $ % - & & - % $ = + . . . . . . . . .   ",
"    . # # . # # . # . # . . + = @ + . . # . . # # . . # . .     "};
