/* XPM */
static char * ionregtest64_xpm[] = {
"64 64 181 2",
"  	c None",
". 	c #370037",
"+ 	c #360036",
"@ 	c #350035",
"# 	c #380038",
"$ 	c #390039",
"% 	c #3A003A",
"& 	c #3B003B",
"* 	c #3C003C",
"= 	c #3D003D",
"- 	c #3F003F",
"; 	c #3E003E",
"> 	c #400040",
", 	c #410041",
"' 	c #420042",
") 	c #430043",
"! 	c #440044",
"~ 	c #450045",
"{ 	c #460046",
"] 	c #470047",
"^ 	c #490049",
"/ 	c #480048",
"( 	c #4A004A",
"_ 	c #4B004B",
": 	c #4C004C",
"< 	c #4D004D",
"[ 	c #4E004E",
"} 	c #500050",
"| 	c #4F004F",
"1 	c #530053",
"2 	c #5A005A",
"3 	c #510051",
"4 	c #520052",
"5 	c #590059",
"6 	c #5D005D",
"7 	c #600060",
"8 	c #550055",
"9 	c #750075",
"0 	c #7C007C",
"a 	c #A800A8",
"b 	c #AE00AE",
"c 	c #9D009D",
"d 	c #7B007B",
"e 	c #560056",
"f 	c #840084",
"g 	c #730073",
"h 	c #7F007F",
"i 	c #950095",
"j 	c #A200A2",
"k 	c #A700A7",
"l 	c #A500A5",
"m 	c #A100A1",
"n 	c #900090",
"o 	c #860086",
"p 	c #FF00FF",
"q 	c #E600E6",
"r 	c #870087",
"s 	c #5E005E",
"t 	c #7D007D",
"u 	c #770077",
"v 	c #9C009C",
"w 	c #AA00AA",
"x 	c #E900E9",
"y 	c #FD00FD",
"z 	c #DC00DC",
"A 	c #BA00BA",
"B 	c #FE00FE",
"C 	c #F600F6",
"D 	c #820082",
"E 	c #800080",
"F 	c #A400A4",
"G 	c #F300F3",
"H 	c #A300A3",
"I 	c #640064",
"J 	c #E000E0",
"K 	c #AB00AB",
"L 	c #B400B4",
"M 	c #EA00EA",
"N 	c #CC00CC",
"O 	c #E100E1",
"P 	c #C200C2",
"Q 	c #830083",
"R 	c #930093",
"S 	c #810081",
"T 	c #740074",
"U 	c #720072",
"V 	c #760076",
"W 	c #850085",
"X 	c #8F008F",
"Y 	c #CA00CA",
"Z 	c #7A007A",
"` 	c #B600B6",
" .	c #8E008E",
"..	c #890089",
"+.	c #710071",
"@.	c #610061",
"#.	c #650065",
"$.	c #660066",
"%.	c #670067",
"&.	c #620062",
"*.	c #8D008D",
"=.	c #8C008C",
"-.	c #8A008A",
";.	c #680068",
">.	c #690069",
",.	c #6A006A",
"'.	c #6B006B",
").	c #910091",
"!.	c #8B008B",
"~.	c #6C006C",
"{.	c #6D006D",
"].	c #FB00FB",
"^.	c #540054",
"/.	c #940094",
"(.	c #6E006E",
"_.	c #700070",
":.	c #6F006F",
"<.	c #880088",
"[.	c #990099",
"}.	c #C000C0",
"|.	c #630063",
"1.	c #C300C3",
"2.	c #EB00EB",
"3.	c #DD00DD",
"4.	c #780078",
"5.	c #5F005F",
"6.	c #D800D8",
"7.	c #B800B8",
"8.	c #E400E4",
"9.	c #790079",
"0.	c #FA00FA",
"a.	c #7E007E",
"b.	c #D300D3",
"c.	c #EF00EF",
"d.	c #BB00BB",
"e.	c #580058",
"f.	c #970097",
"g.	c #C900C9",
"h.	c #F700F7",
"i.	c #A600A6",
"j.	c #920092",
"k.	c #9F009F",
"l.	c #DF00DF",
"m.	c #5B005B",
"n.	c #5C005C",
"o.	c #9E009E",
"p.	c #A900A9",
"q.	c #F200F2",
"r.	c #B100B1",
"s.	c #960096",
"t.	c #F000F0",
"u.	c #F800F8",
"v.	c #B200B2",
"w.	c #D500D5",
"x.	c #C100C1",
"y.	c #980098",
"z.	c #C600C6",
"A.	c #DE00DE",
"B.	c #BD00BD",
"C.	c #D400D4",
"D.	c #DA00DA",
"E.	c #9B009B",
"F.	c #CF00CF",
"G.	c #9A009A",
"H.	c #B900B9",
"I.	c #FC00FC",
"J.	c #B700B7",
"K.	c #E300E3",
"L.	c #D100D1",
"M.	c #C800C8",
"N.	c #BE00BE",
"O.	c #E800E8",
"P.	c #F900F9",
"Q.	c #DB00DB",
"R.	c #F400F4",
"S.	c #D200D2",
"T.	c #C400C4",
"U.	c #BC00BC",
"V.	c #B000B0",
"W.	c #CD00CD",
"X.	c #570057",
"                                                                                                                                ",
"        . + + @ @ @ @ @ @ @ @ @ @ @ @ @ @ @ @ @ @ @ . . # . . . . . . # . . @ @ @ @ @ @ @ @ @ @ @ @ @ @ @ @ @ @ @ + + @         ",
"      + + @ . . . . . . . . . . . . . . . . + . $ $ $ % & & & & & & * % % & $ $ . . . . . . . . . . . . . . . . + + + + +       ",
"    + + + @ @ @ @ @ @ @ @ @ @ @ @ @ @ + . . % % * * * = - ; - - - - ; = ; = * * & % # . + @ @ @ @ @ @ @ @ @ @ @ @ @ + + + .     ",
"  + @ + + + + + + + + + + + + + + + . $ % * = = ; ; > > , , ' ' ' , , ' > > > - = = & % $ # + + + + + + + + + + + + + @ + + +   ",
"  . @ @ @ + @ @ @ @ @ @ @ @ @ @ . # & * = ; - > , ' ' ) ! ! ! ! ~ ~ ~ ) ! ) ' , , - ; = = & $ . + @ @ @ @ @ @ + @ @ + @ + + +   ",
"  + + + + + + + + + + + + + . # % = = - - ' ' ) ! ~ { ] ^ ^ / ^ ^ / / ^ ] ] ~ ~ ) ' ' - - * = & $ . + + + + + @ @ + + + @ @ +   ",
"  @ + @ @ @ @ @ @ @ @ @ @ . $ * = ; - , ) ! { ] / ( ( _ _ _ : : : : _ _ _ _ ^ / / { ~ ! , , - = & $ # @ @ @ + + + @ + + + + +   ",
"  @ + + + + + + + + + + # $ * ; > , ! ~ ] / ( _ _ : < [ } | } } | } | | [ < < _ _ { 1 2 ( > , > ; * & . + + + + + + @ + + @ +   ",
"  + + + + + + + + + + # & * - > ) ! ~ ] ( _ : < | } 3 4 | [ 3 5 6 7 6 8 [ [ | [ 9 0 a b c d e ' > ; = & # + @ + + @ @ @ + + +   ",
"  + + @ @ @ @ @ @ + $ & = ; > ' ~ ] ^ _ : [ | 4 1 } 5 f g h i j k k l m n 0 g o i p p p p q r s ) , ; = & % + + @ + + + + @ +   ",
"  + + + + + + + + # & = ; ' ) { ] _ _ [ 3 3 4 } t u v w x p p p p p p p p y z A p B B B B y C D ! ! ' - ; & # + @ @ + + + @ +   ",
"  + + + + + + + # % = ; , ) { / _ : | 3 4 | 0 E F G p B B B B p p p p p B B B B B B B B B B p H g { ! , - ; & # + + + + @ @ +   ",
"  @ @ @ @ @ @ . % = ; , ) ] ^ _ < } 3 4 I D H y B B B p p J K K a k w a L M p B B B B B B B B N 9 ^ { ! , - = % . + @ + @ @ +   ",
"  . . . . . . % * ; , ! { ^ _ [ 3 1 4 t r O p B p p P j Q d R S T U V W X u Q p B B B B B B B Y Z _ ( { ~ , ; = % . @ + @ @ +   ",
"  + @ @ @ + # & ; > ' ~ ^ _ < } 4 } S R p B B p `  ...+.@.#.$.%.%.$.$.#.I &.t z B B B B B B p F *.< _ ^ { ! > ; = # @ + @ @ +   ",
"  + + + + . % = - ' ~ ] ( < 3 4 4 ..w p B p J =.-.#.$.;.>.>.,.>.,.'.;.>.;.%.d ).p B B B B B B B R u < _ ^ { ' > = & # + @ @ +   ",
"  + @ @ @ $ * ; , ! / _ : } 4 4 S a p B p ` !.U $.>.,.,.~.{.~.{.{.~.{.~.,.,.;.W X ].p p p p p B p n g < ( ] ~ ' - * $ . @ @ +   ",
"  + + + # % = , ) ~ ^ _ } 3 ^.d /.p B p k ).I ;.,.'.~.(.(._._._._._.:.(.(.{.'.;.<.D j H [.o }.p B B Q |.: ( { ! > = * # @ @ +   ",
"  @ @ + $ & - , ~ / _ [ 3 1 @.r p B p a  .#.;.'.~.:.+._.U U g U T U U U +._.:.{.'.$.~.g I 6 =.1.p B 2.f : _ ^ ~ ' - * % + @ +   ",
"  . + + % = > ' { ( : } 4 4 D 3.B p ` ).I ,.~.(._._.g g T 9 V V 4.V 9 g g +.+.:.:.~.>.;.#.&.5.n 6.B B 7.h : ( ] ! > = & . @ +   ",
"  + + # * - , ~ ] _ [ 3 1 0 m p B 8.-.#.>.'.:._.+.g T u 4.9.d d 9.Z 9.9.u u g +.+.(.~.,.%.$.|.$.f B B p /.2 _ ^ ~ ' - * $ + +   ",
"  + @ $ * - ) { ( : 3 4 3 E 0.B p  .V ;.~.:._.U T u 9.9.0 t t a.h a.t t d 9.u 9 g +.(.~.>.%.I &.D c p B b.t : ( { ) > = % + +   ",
"  + . & = , ) / _ [ 3 ^.d j p B A !.%.~.(._.U T 4.9.0 t a.h E E E E h h a.d Z 4.T g +.(.~.>.%.|.6 E q B p [.^._ / ! ' ; * . +   ",
"  @ # & ; , ~ ^ _ | } 4 u c.B p  .;.>.~.:.U g u 9.t E E E D D Q S Q D D h h 0 Z 4.T g _.{.,.>.#.&.u v p B d.h _ ^ ~ ' ; = # +   ",
"  + $ = ; ) ~ ( : } 1 e.f.p B g.r %.~.:.U g u Z t h h Q Q f f W *.n !.D Q E h 0 d u g +.:.~.>.$.|.6 d h.B p 0 ^ ( { ) > = $ .   ",
"  + $ * - ! { _ [ 3 ^.D i.p p j Z >.{._.g 9 9.d a.E Q Q r <.F j.E u Q f.k.D h E 0 9.V U _.{.'.;.|.@.!.b p p j e _ ] ) , ; % .   ",
"  . % = , ' / _ | 3 4 V l.B p <.#.,.(.+.T 4.Z a.h Q Q o X v 5.m.n.m.n.m.>.F Q h a.Z 4.T +.(.~.;.#.|.#.o.p B p.E : ^ ! ' = & .   ",
"  # & ; , ~ / _ | [ Z 9.B B q.a.I ~.:.U 9 u 0 E S D f <.o.5 n.n.n.n.n.n.n.5.F E E 0 9.V g :.'.,.$.&.n.f p B z g ( / ~ , - * .   ",
"  # * ; ' ) / : < f m y B B p r.X '.:.g V Z 0 E S Q o F 5.n.m.m.m.m.n.n.n.6 9 s.h t d u U +.{.,.%.|.7 T t.B u.U ^ ^ ~ ' ; = .   ",
"  $ * ; , { ( : 9.l p B B B B p v. ._.U u 9.h E f f r s.m.m.n.n.n.n.m.n.n.n.n.o.h a.Z 4.T +.{.,.%.I 7 0 w.B p h / ^ { ' ; * #   ",
"  $ & ; ' ! ( ^ a.p B B B B B B p /.(.T u Z h h D W *.W n.n.m.n.n.n.m.n.n.6 m.s.E a.0 u g U {.'.%.I @.o x.B p o / ( ~ ) - * %   ",
"  $ * ; , ~ ( 3 j p B B B B B B p k Q g 4.d h h D W ).a.n.m.n.n.n.n.n.n.n.n.6 ).S E 0 9.T _.(.'.;.I @.-.d.B p W / ( ~ ' ; * $   ",
"  # & - , ~ ( ^.l p B B B B B B p k <.U u Z a.h f f !.-.m.m.n.n.n.m.m.n.n.6 n.y.h t d u T _.{.,.%.I @.Q z.B p f ] ( { ' ; * $   ",
"  $ & ; , ~ ^ / =.p B B B B B B p y.g g V 9.a.E S Q r o.2 n.m.m.m.m.n.n.n.n.6 j a.a.Z u T +.~.,.%.I 7 9.A.B B Z / ^ ~ ) ; = .   ",
"  $ & = , ! ^ ( a.B.p B B B B B C.*.{.g 9 9.t E S D o v +.n.n.n.n.n.n.6 6 n.!.!.E 0 d 9 U _.{.>.%.&.s u u.B q.:.( ^ ~ ) ; & .   ",
"  . % = > ~ / _ : j.g.p B B B D.-.+.:.U T u Z h E S W W F I n.n.n.n.6 n.n.g c h h 0 4.9 U (.~.>.#.&.n.-.p B g.9._ / ~ , ; & .   ",
"  . % = - ! { _ [ 4 D ).2.B p i +.,.{.:.g 9 9.0 h E E Q W l t m.2 m.m.6 =.v h E a.9.u T _.(.'.;.I &._.l p p k 9 _ ^ ! , = & .   ",
"  + $ = > ' { ( < | 3 4.m p B k...>.'.:.U T 4.d a.E S D S f /.m y.f.E.F -.S E a.Z 4.g +._.~.>.%.|.@.W 1.B p y.[ _ { ! > * % .   ",
"  + $ * - , { ( : | 3 1 =.p B x h #.,.{._.g 9 4.Z a.h E S E Q D Q S S D E E a.d 9.9 g +.{.~.;.#.&.6 o p B G g ^ ( ~ ' - = $ +   ",
"  + # % ; , ! ] _ | 3 1 a.F.B p s.u ;.'.(.+.T V u Z t h E E E S S E S E h t d 4.9 g +.(.~.,.%.I @.o i.p p p.d : ^ ! , ; = . +   ",
"  @ . % * > ) { _ : } 4 I G.p B z o #.>.{.:._.U 9 4.9.0 a.h h h h E h a.0 Z 4.V T U _.{.'.%.#.|.6 D y B p !.( ( ] ! , = & . +   ",
"  + + # & ; ) ~ ^ _ | 3 4 E 3.B p v r ;.,.~.:._.g 9 u 4.4.Z 0 0 d 0 d 9.4.u 9 U U :.{.'.>.$.I s ..H.p p L a._ ( ~ ' ; * $ + +   ",
"  @ @ # & = > ) { ( [ | 1 $.j.p B y f _.;.'.~.(._.+.T 9 9 u u u 4.4.V V T T U _.(.{.,.>.$.|.&.d ).p B I.W : _ ] ) , ; * $ @ +   ",
"  + + + $ * - ' ~ ^ _ | } 4 E J.p y K.r %.;.,.~.{.:._.U g T 9 9 T 9 g g U +._.(.{.'.;.#.I &.U S I.B p [.g : ^ ~ ) - = % . @ +   ",
"  + + + # % ; , ) { ( : | 3 1 o q B B L.j.;.;.>.,.{.{.:.:.:._.+.U +.+.:.:.(.~.'.%.9 j.r =.9.<.c.B p 1.Q ( _ ] ! , ; & $ @ @ +   ",
"  @ + @ + $ = - ' ! / _ [ 3 4 I o I.B B C.Q u #.;.>.,.~.~.(.(.(.{.{.(.{.'.'.>.;.*.G.b M.i.s.c.B B J ..: _ ^ ! ) - = % . @ @ +   ",
"  + + + + . % = > ) ~ ^ _ [ } 1 +.t p B B M r -.|.$.;.>.>.'.'.'.'.'.>.,.>.%.I =.N.p B B B p B B O.o e.: ( { ) > = * # + @ @ +   ",
"  + + + + + $ * ; , ) { ( _ | } 1 9 d P.B B p k f f @.#.%.%.%.;.%.;.%.%.$.#.-.j p B B B B B B x h 6 : ( ] ) , ; * % @ + @ @ +   ",
"  + @ @ + @ . % * - ' ! ] ( : [ } 4 :.<.Q.p y B G k.D *._.7 &.|.I I I &.7 5.0 R.B B B B B B B i.<.: ( ] ! ' > * & . @ + @ @ +   ",
"  + + + + @ + . % = > , ~ ] ( : [ | 4 n.o w p B B p y H.F !.d 9.h D h V t ).K p B B B B B B B S.g ( ] ~ , - ; * # + @ + @ @ +   ",
"  + @ + + + @ + $ & = > ' ! ] ( _ [ } } } E -.T.p p B y p p u.K.S.N b.O.I.p p B B B B B B B B U.a.] ~ ' , = * $ + @ @ + @ @ +   ",
"  + + @ @ + + @ + # & = > ' ! { ( _ < | } 3 e E X V.0.p p B B B B B B B B B p p B B B B B B p m 2 ! ' - = * $ + + @ @ + @ @ +   ",
"  + @ + + @ @ + @ . $ & = - , ) ~ ^ _ : [ | } 3 ^.E 9.y.k g.t.I.p p p ].2.A i.s.P.B B B B p W.E , ' > = * % . + + @ @ + @ @ +   ",
"  + @ @ + + + + @ + . # & = - , ) ! ] ^ _ : < | | } < X.Z 0 (.Z a.E t u (.S {.~...M.p p ].K !.~ ' - = * $ . @ @ + @ @ + @ @ +   ",
"  + @ + + + + + + + @ . . & * - > ' ) ~ / ^ _ _ : [ [ [ } | [ : ( _ _ < [ | [ : } 9.Z Q +.g - > - = * # + @ + @ + @ @ + @ @ +   ",
"  @ + + + @ @ + @ + @ @ . # $ * = - , ) ) ~ ] ^ ( ( : _ < : [ [ [ < < < _ _ _ ( ^ { , - , , > = * $ # + + @ + @ + @ @ + @ @ +   ",
"  + @ + + + @ + @ @ + @ @ . # $ & * ; > > ) ) ! ~ ] / ^ ( ( ( ( _ ( _ ( ( / ] { ! ! ' , - - = & % # + @ + + @ @ + @ @ + @ @ +   ",
"  + + @ @ + + + + + + + + @ @ + # $ & = ; - , > ' ! ) ~ ~ ~ { { { { ~ ! ~ ! ) ' ' > - ; = * % # + + + + @ + @ @ + @ @ + @ @ +   ",
"  . + @ + @ + + + + @ + + + + @ . . # % & * * - - - ' , , ) ) ' ) ' ' ' , ' > - - = * * $ # . + @ @ @ + + + @ @ + @ @ + @ @ .   ",
"    + + + + @ + @ + @ + @ + + + @ + + . . $ % & * = = - ; - ; - - - ; > ; ; * = * % $ # . + @ + + @ + @ @ + @ @ + @ @ + @ +     ",
"    # @ + + + @ + + + + @ + @ + + @ @ + + + # # $ $ & & * * * & * * * * & & % $ $ . + + @ @ + + + @ + @ + + @ @ + @ @ + @ +     ",
"        . + + @ @ + + + + @ + + + + + @ + + + + + . . # # $ $ % $ # # # # . . + + @ + + + + + + @ . @ + @ + @ @ + + + .         ",
"                                                                                                                                "};
