/* XPM */
static char * iontestnet16_xpm[] = {
"16 16 183 2",
"  	c None",
". 	c #27367B",
"+ 	c #27377B",
"@ 	c #27367A",
"# 	c #29397F",
"$ 	c #293B83",
"% 	c #293B82",
"& 	c #293980",
"* 	c #283B83",
"= 	c #2B418F",
"- 	c #2C4596",
"; 	c #2A4699",
"> 	c #294599",
", 	c #2A4495",
"' 	c #233A8D",
") 	c #243883",
"! 	c #26367B",
"~ 	c #27377C",
"{ 	c #2A408B",
"] 	c #2E489A",
"^ 	c #2947A5",
"/ 	c #405BA6",
"( 	c #7E8EBC",
"_ 	c #8E9CC3",
": 	c #667AB2",
"< 	c #B5BDCF",
"[ 	c #8893B5",
"} 	c #233A8B",
"| 	c #26367A",
"1 	c #2F4A9E",
"2 	c #2F4DA7",
"3 	c #C3C9D6",
"4 	c #EDECE2",
"5 	c #A3B4D6",
"6 	c #8FA4D3",
"7 	c #C8CFDC",
"8 	c #FFFFFF",
"9 	c #FFFFF7",
"0 	c #2A469A",
"a 	c #2A408C",
"b 	c #263679",
"c 	c #2C4CA8",
"d 	c #EAEAE3",
"e 	c #8CA0C9",
"f 	c #3065DB",
"g 	c #3A6EE3",
"h 	c #3B70E2",
"i 	c #386AD6",
"j 	c #B5C0D5",
"k 	c #D4D9DF",
"l 	c #A2ACC4",
"m 	c #24419A",
"n 	c #293C85",
"o 	c #26357A",
"p 	c #2B428F",
"q 	c #2D4BA5",
"r 	c #A2AFCC",
"s 	c #A0B0D1",
"t 	c #356BE3",
"u 	c #427CF2",
"v 	c #4580FD",
"w 	c #4481FF",
"x 	c #437CF4",
"y 	c #386EE3",
"z 	c #2D5CCB",
"A 	c #E9EAE5",
"B 	c #5468A7",
"C 	c #29418F",
"D 	c #26367C",
"E 	c #28387E",
"F 	c #2D4696",
"G 	c #2649AA",
"H 	c #F3EEDE",
"I 	c #3466D5",
"J 	c #437CF3",
"K 	c #4985FF",
"L 	c #5196C7",
"M 	c #5B878D",
"N 	c #4B8FF1",
"O 	c #3C6EDD",
"P 	c #6882C1",
"Q 	c #C1C8D6",
"R 	c #254095",
"S 	c #283980",
"T 	c #293B81",
"U 	c #274299",
"V 	c #A6B0C6",
"W 	c #FFFFF8",
"X 	c #547DD4",
"Y 	c #4480FD",
"Z 	c #4E99DF",
"` 	c #6D5B2E",
" .	c #6B573F",
"..	c #677847",
"+.	c #4483FF",
"@.	c #3F73E4",
"#.	c #3961BF",
"$.	c #EDEBE4",
"%.	c #223F98",
"&.	c #283B84",
"*.	c #213E98",
"=.	c #FBF9EC",
"-.	c #8CA5D5",
";.	c #427EFE",
">.	c #4F9CD3",
",.	c #6E5531",
"'.	c #6B5942",
").	c #68733B",
"!.	c #4484FF",
"~.	c #4073E5",
"{.	c #3B63C2",
"].	c #ECEAE1",
"^.	c #2B4597",
"/.	c #4C65AC",
"(.	c #FBF5E4",
"_.	c #3466D4",
":.	c #4986FF",
"<.	c #5592A4",
"[.	c #617F69",
"}.	c #4E8FDA",
"|.	c #447CF6",
"1.	c #3D6FDF",
"2.	c #5977BD",
"3.	c #CFD3DC",
"4.	c #254096",
"5.	c #283981",
"6.	c #2A48A4",
"7.	c #BBC4D6",
"8.	c #8098CA",
"9.	c #3A6FE5",
"0.	c #447DF3",
"a.	c #4682FF",
"b.	c #4582FF",
"c.	c #437DF7",
"d.	c #3C70E4",
"e.	c #2E5ED0",
"f.	c #D3D7DE",
"g.	c #6779AC",
"h.	c #294190",
"i.	c #26377C",
"j.	c #263579",
"k.	c #293B84",
"l.	c #2F499B",
"m.	c #3452A8",
"n.	c #FDF9EA",
"o.	c #6582C5",
"p.	c #3267DE",
"q.	c #3E72E5",
"r.	c #376ADB",
"s.	c #8CA1CD",
"t.	c #ADB9CF",
"u.	c #C7CBD6",
"v.	c #293C86",
"w.	c #26357B",
"x.	c #2B408D",
"y.	c #2F4A9F",
"z.	c #3C59AA",
"A.	c #E8E7E2",
"B.	c #CAD2DE",
"C.	c #7892CA",
"D.	c #6583C6",
"E.	c #A3B1CD",
"F.	c #FFFFFC",
"G.	c #2C4798",
"H.	c #2A408D",
"I.	c #2A418D",
"J.	c #2847A5",
"K.	c #6477AF",
"L.	c #A9B3CF",
"M.	c #B9C1D3",
"N.	c #919EC3",
"O.	c #DEE0E0",
"P.	c #B0B7C6",
"Q.	c #223A8D",
"R.	c #27387D",
"S.	c #2C4291",
"T.	c #2C4598",
"U.	c #29459B",
"V.	c #28449B",
"W.	c #294397",
"X.	c #1F398D",
"Y.	c #213583",
"Z.	c #27367C",
"  . + + @ . # $ % & + @ + + .   ",
". . . . * = - ; > , ' ) + . . ! ",
"@ ! ~ { ] ^ / ( _ : < [ } ~ | ! ",
"@ . { 1 2 3 4 5 6 7 8 9 0 a ! . ",
"b $ ] c d e f g h i j k l m n o ",
"@ p q r s t u v w x y z A B C D ",
"E F G H I J K L M N x O P Q R S ",
"T U V W X Y Z `  ...+.@.#.$.%.&.",
"T *.=.8 -.;.>.,.'.).!.~.{.].%.* ",
"# ^./.(._.x :.<.[.}.|.1.2.3.4.5.",
"| p 6.7.8.9.0.a.b.c.d.e.f.g.h.i.",
"j.k.l.m.n.o.p.q.q.r.s.t.u.m v.w.",
"| . x.y.z.A.B.C.D.E.8 F.G.H.. . ",
"@ . ~ I.l.J.K.L.M.N.O.P.Q.R.. . ",
"@ . . . n S.T.U.V.W.X.Y.+ @ . . ",
"  ! @ @ | . S $ k.S Z.j.| . .   "};
