/* XPM */
static char * iontestnet32_xpm[] = {
"32 32 588 2",
"  	c None",
". 	c #28367B",
"+ 	c #28367A",
"@ 	c #27357A",
"# 	c #29367A",
"$ 	c #28377B",
"% 	c #27377D",
"& 	c #28377C",
"* 	c #253578",
"= 	c #26367A",
"- 	c #27377A",
"; 	c #27367A",
"> 	c #27377B",
", 	c #28387F",
"' 	c #293B83",
") 	c #293C84",
"! 	c #2A3E88",
"~ 	c #2A3D88",
"{ 	c #2A3C86",
"] 	c #293C85",
"^ 	c #28397F",
"/ 	c #26377B",
"( 	c #26367B",
"_ 	c #26367C",
": 	c #27367B",
"< 	c #283A81",
"[ 	c #2A3D87",
"} 	c #2B3F8B",
"| 	c #2A428F",
"1 	c #2A4392",
"2 	c #2C4493",
"3 	c #2A4593",
"4 	c #2B4593",
"5 	c #2A4494",
"6 	c #2B4391",
"7 	c #293B82",
"8 	c #26377C",
"9 	c #26377A",
"0 	c #293D87",
"a 	c #29408D",
"b 	c #2C4697",
"c 	c #2F499A",
"d 	c #304A9D",
"e 	c #304C9F",
"f 	c #304CA0",
"g 	c #304BA0",
"h 	c #304B9F",
"i 	c #304B9D",
"j 	c #2F489A",
"k 	c #2A4597",
"l 	c #274092",
"m 	c #283F8D",
"n 	c #273980",
"o 	c #253576",
"p 	c #283A82",
"q 	c #2A3F8A",
"r 	c #2E4798",
"s 	c #314DA2",
"t 	c #324EA5",
"u 	c #304EA8",
"v 	c #2D4CAB",
"w 	c #2E4DAF",
"x 	c #3251B2",
"y 	c #2E4FAF",
"z 	c #2B4AA9",
"A 	c #2A48A6",
"B 	c #455B9E",
"C 	c #7682A4",
"D 	c #556492",
"E 	c #274196",
"F 	c #2B3F8A",
"G 	c #2A408C",
"H 	c #2C4594",
"I 	c #2F499B",
"J 	c #314CA1",
"K 	c #3450A8",
"L 	c #2C4DAE",
"M 	c #4460A9",
"N 	c #7886AB",
"O 	c #B6BBC3",
"P 	c #D8D8D0",
"Q 	c #E1DED2",
"R 	c #DEDCCF",
"S 	c #C6C9CC",
"T 	c #959EB4",
"U 	c #F1F0E8",
"V 	c #FFFFFF",
"W 	c #9298A7",
"X 	c #233F94",
"Y 	c #2A3C84",
"Z 	c #27367C",
"` 	c #263575",
" .	c #2A3F8C",
"..	c #2C4595",
"+.	c #2F4A9D",
"@.	c #334FA4",
"#.	c #3050AC",
"$.	c #3D5BAD",
"%.	c #A2A8B5",
"&.	c #F4F1EA",
"*.	c #E0DCD3",
"=.	c #E2DCCE",
"-.	c #E2DCCD",
";.	c #F2F2EE",
">.	c #FFFFFD",
",.	c #FEFFFC",
"'.	c #EAE9E2",
").	c #4058A1",
"!.	c #2A4596",
"~.	c #283B84",
"{.	c #283980",
"].	c #2B4594",
"^.	c #334FA5",
"/.	c #2F4FB0",
"(.	c #5C72A8",
"_.	c #E6E4DC",
":.	c #DBD9CE",
"<.	c #8395B5",
"[.	c #496BB0",
"}.	c #4976D5",
"|.	c #3768D9",
"1.	c #3E6ED8",
"2.	c #466ABC",
"3.	c #B5B8BD",
"4.	c #FFFFFE",
"5.	c #E3E1DF",
"6.	c #445DA7",
"7.	c #2E499D",
"8.	c #2C4596",
"9.	c #2B408B",
"0.	c #283A80",
"a.	c #263576",
"b.	c #2A4391",
"c.	c #2F4FAF",
"d.	c #657CAA",
"e.	c #FCFAF1",
"f.	c #FEFCF5",
"g.	c #8896AB",
"h.	c #3E6BD3",
"i.	c #3769D9",
"j.	c #3D6EDC",
"k.	c #3D6EDD",
"l.	c #3E70DD",
"m.	c #3D6EDB",
"n.	c #3A6ADA",
"o.	c #5A7ABC",
"p.	c #F2EDE1",
"q.	c #A5A9AD",
"r.	c #304FAA",
"s.	c #2F4A9C",
"t.	c #2B4393",
"u.	c #293A81",
"v.	c #2A418E",
"w.	c #2D4798",
"x.	c #3351AB",
"y.	c #4C67AA",
"z.	c #F5F3E9",
"A.	c #FAF9F0",
"B.	c #6A84B2",
"C.	c #3467DE",
"D.	c #3D70DF",
"E.	c #4073E3",
"F.	c #4175E7",
"G.	c #4276E9",
"H.	c #4377E9",
"I.	c #4074E4",
"J.	c #396EE2",
"K.	c #4C75C6",
"L.	c #7488B6",
"M.	c #5470A8",
"N.	c #C5C8C8",
"O.	c #8D93A7",
"P.	c #2948A4",
"Q.	c #2B4492",
"R.	c #3450A7",
"S.	c #3358B9",
"T.	c #C6C6C2",
"U.	c #7587AA",
"V.	c #3668DE",
"W.	c #4173E1",
"X.	c #4176E8",
"Y.	c #4279EF",
"Z.	c #427CF3",
"`.	c #447EF6",
" +	c #427EF6",
".+	c #427AEE",
"++	c #4176E9",
"@+	c #3F72E3",
"#+	c #3A6CDB",
"$+	c #3A67D2",
"%+	c #4367BE",
"&+	c #E1DFD7",
"*+	c #FEFEF7",
"=+	c #52669F",
"-+	c #2E4A9E",
";+	c #2B4493",
">+	c #2B3E88",
",+	c #27377C",
"'+	c #273779",
")+	c #2A408B",
"!+	c #2D4696",
"~+	c #324DA2",
"{+	c #3251AE",
"]+	c #6476A2",
"^+	c #B4B7B8",
"/+	c #356AE0",
"(+	c #4073E2",
"_+	c #4176EA",
":+	c #427DF4",
"<+	c #4480F9",
"[+	c #4784FD",
"}+	c #4785FD",
"|+	c #4683FD",
"1+	c #4581FA",
"2+	c #437EF5",
"3+	c #4178EB",
"4+	c #4172E2",
"5+	c #3E6DDA",
"6+	c #3764CF",
"7+	c #6279A8",
"8+	c #C0C0C2",
"9+	c #2948A6",
"0+	c #2C4798",
"a+	c #2B408C",
"b+	c #243476",
"c+	c #293A83",
"d+	c #2B4FB4",
"e+	c #C5C7C6",
"f+	c #FFFFFC",
"g+	c #5372B5",
"h+	c #4177E9",
"i+	c #4682FB",
"j+	c #4986FC",
"k+	c #4B89F7",
"l+	c #4B8BFE",
"m+	c #4C97F8",
"n+	c #4B8EFF",
"o+	c #4885FF",
"p+	c #4781FB",
"q+	c #427DF5",
"r+	c #4177EA",
"s+	c #3E71E0",
"t+	c #3E6BD5",
"u+	c #3763CF",
"v+	c #C9C9C2",
"w+	c #FDFCF8",
"x+	c #465E9B",
"y+	c #2F489C",
"z+	c #2A4290",
"A+	c #26357B",
"B+	c #314A9D",
"C+	c #3350A9",
"D+	c #3F60AF",
"E+	c #EEECE6",
"F+	c #D0CFC4",
"G+	c #366AE0",
"H+	c #427AEF",
"I+	c #4680F9",
"J+	c #4986FB",
"K+	c #4C89F6",
"L+	c #4EA5D0",
"M+	c #638D49",
"N+	c #6A7128",
"O+	c #677F32",
"P+	c #57A696",
"Q+	c #4884FF",
"R+	c #4681FA",
"S+	c #417BF0",
"T+	c #4173E4",
"U+	c #3E6ED9",
"V+	c #3763CD",
"W+	c #7A8CB2",
"X+	c #7A85A9",
"Y+	c #2B489D",
"Z+	c #2B4494",
"`+	c #263677",
" @	c #314C9F",
".@	c #3A56A9",
"+@	c #9DA3B0",
"@@	c #C4C6C8",
"#@	c #3F6FD3",
"$@	c #437CF4",
"%@	c #4883FD",
"&@	c #4A89F6",
"*@	c #4C9FE7",
"=@	c #68732D",
"-@	c #695942",
";@	c #695C42",
">@	c #6A5B41",
",@	c #6C5630",
"'@	c #55A5A2",
")@	c #4682FF",
"!@	c #447EF5",
"~@	c #3E6FDE",
"{@	c #3A68D1",
"]@	c #4B66A8",
"^@	c #ACB2C1",
"/@	c #2846A0",
"(@	c #2A3F89",
"_@	c #25377D",
":@	c #29397D",
"<@	c #2D4595",
"[@	c #2947A1",
"}@	c #A5AAB6",
"|@	c #FDFEFC",
"1@	c #B3B9B7",
"2@	c #3A71ED",
"3@	c #4A85FD",
"4@	c #4B8BF6",
"5@	c #57A392",
"6@	c #6B553F",
"7@	c #6B5B46",
"8@	c #6B5B47",
"9@	c #695C43",
"0@	c #6A5B40",
"a@	c #648945",
"b@	c #437FF7",
"c@	c #4178EA",
"d@	c #3E70DE",
"e@	c #3B68D3",
"f@	c #4A6CBB",
"g@	c #EFEFEB",
"h@	c #2845A1",
"i@	c #2C4695",
"j@	c #27397F",
"k@	c #273677",
"l@	c #2C4494",
"m@	c #2A48A5",
"n@	c #E1E0CF",
"o@	c #E4DDCC",
"p@	c #447CED",
"q@	c #4A84FD",
"r@	c #4B8BF7",
"s@	c #5A9F88",
"t@	c #6B5640",
"u@	c #6C5B46",
"v@	c #695C44",
"w@	c #66853A",
"x@	c #4886FF",
"y@	c #447FF7",
"z@	c #3E70E0",
"A@	c #4F6FC2",
"B@	c #E9E9E6",
"C@	c #C9CAC7",
"D@	c #2846A1",
"E@	c #2A3E89",
"F@	c #27387D",
"G@	c #28397D",
"H@	c #29459F",
"I@	c #B4B7C0",
"J@	c #C4C4BC",
"K@	c #3971ED",
"L@	c #4984FE",
"M@	c #4989F6",
"N@	c #50AACB",
"O@	c #6C5E2C",
"P@	c #6A5B44",
"Q@	c #6A5C44",
"R@	c #6A5D42",
"S@	c #6B573C",
"T@	c #5C9B75",
"U@	c #3E6FDD",
"V@	c #3B68D1",
"W@	c #4665AB",
"X@	c #B7BBC5",
"Y@	c #2946A0",
"Z@	c #2A3F88",
"`@	c #25377C",
" #	c #253676",
".#	c #2A3C85",
"+#	c #304A9E",
"@#	c #4059A4",
"##	c #BABCBB",
"$#	c #E1DFD6",
"%#	c #4470CA",
"&#	c #4073E4",
"*#	c #417AF0",
"=#	c #4B89F9",
"-#	c #56A990",
";#	c #6B6428",
">#	c #6B563B",
",#	c #6D5632",
"'#	c #619446",
")#	c #4891FD",
"!#	c #4781FC",
"~#	c #427BF1",
"{#	c #4074E5",
"]#	c #3965CE",
"^#	c #647AAB",
"/#	c #8D98B3",
"(#	c #2A479E",
"_#	c #2A3A82",
":#	c #30499C",
"<#	c #314EA6",
"[#	c #2D52BA",
"}#	c #D7D5C9",
"|#	c #ECE9E3",
"1#	c #4770C8",
"2#	c #3F70DF",
"3#	c #437DF4",
"4#	c #4983FD",
"5#	c #4987FB",
"6#	c #4987FA",
"7#	c #4BA3E1",
"8#	c #53A4A6",
"9#	c #4FA8C4",
"0#	c #4888FF",
"a#	c #4982FD",
"b#	c #4177EB",
"c#	c #4072E1",
"d#	c #3C6BD6",
"e#	c #325ECC",
"f#	c #AFB6BD",
"g#	c #516396",
"h#	c #2E489C",
"i#	c #2A4291",
"j#	c #253476",
"k#	c #2D4697",
"l#	c #324EA2",
"m#	c #2E4FAD",
"n#	c #8591B0",
"o#	c #8A99B1",
"p#	c #3468DC",
"q#	c #4273E2",
"r#	c #4279ED",
"s#	c #4881FB",
"t#	c #4B85FE",
"u#	c #4985FD",
"v#	c #4985FF",
"w#	c #4983FF",
"x#	c #4782FC",
"y#	c #4173E3",
"z#	c #3D6DDB",
"A#	c #3C67D0",
"B#	c #4B6AB5",
"C#	c #F7F4ED",
"D#	c #D7D7CF",
"E#	c #3351A9",
"F#	c #2E4799",
"G#	c #2A418D",
"H#	c #324A9E",
"I#	c #3350A8",
"J#	c #3D5DB0",
"K#	c #EAE7DD",
"L#	c #F4F2EA",
"M#	c #4E72BC",
"N#	c #3A6CDD",
"O#	c #4173E2",
"P#	c #417DF4",
"Q#	c #447FF8",
"R#	c #437EF6",
"S#	c #417BF1",
"T#	c #4078EB",
"U#	c #4273E3",
"V#	c #3B6EDD",
"W#	c #3C69D2",
"X#	c #3762CD",
"Y#	c #B5B7BA",
"Z#	c #707C9F",
"`#	c #2C489E",
" $	c #293E88",
".$	c #2B418F",
"+$	c #2E4899",
"@$	c #324EA3",
"#$	c #707FA5",
"$$	c #D7D5CE",
"%$	c #456CC5",
"&$	c #3A6BDB",
"*$	c #3F71E0",
"=$	c #4274E4",
"-$	c #4278EB",
";$	c #4274E5",
">$	c #366BE1",
",$	c #5277C8",
"'$	c #3F6BD4",
")$	c #8E98A4",
"!$	c #BCBDBE",
"~$	c #2D4899",
"{$	c #293B84",
"]$	c #2A3E87",
"^$	c #304A9C",
"/$	c #3450A6",
"($	c #2E52B5",
"_$	c #949BA8",
":$	c #D9D7D0",
"<$	c #5474B7",
"[$	c #3365D8",
"}$	c #3D6CDB",
"|$	c #4071DF",
"1$	c #3E70DF",
"2$	c #3C6DDA",
"3$	c #416DCF",
"4$	c #BEBEB8",
"5$	c #E8E8E5",
"6$	c #D6D2C6",
"7$	c #DDDCD7",
"8$	c #3C56A2",
"9$	c #2F499D",
"0$	c #283981",
"a$	c #314B9E",
"b$	c #334FA6",
"c$	c #3255B5",
"d$	c #9399A8",
"e$	c #F8F7F0",
"f$	c #9AA6B4",
"g$	c #4D6FB7",
"h$	c #3564D6",
"i$	c #3464D4",
"j$	c #3665D4",
"k$	c #3664D2",
"l$	c #2D5DD1",
"m$	c #9CA5B4",
"n$	c #EAEAE6",
"o$	c #4A62A1",
"p$	c #2E499F",
"q$	c #2C4696",
"r$	c #293A82",
"s$	c #25367A",
"t$	c #324B9E",
"u$	c #2C4FB3",
"v$	c #6A7AA3",
"w$	c #E0DED6",
"x$	c #F9F8F5",
"y$	c #D3D2C7",
"z$	c #ADB5C0",
"A$	c #9BA8BF",
"B$	c #A2ACBC",
"C$	c #C3C7C6",
"D$	c #F3F3EF",
"E$	c #EFEFED",
"F$	c #455A9D",
"G$	c #2B4697",
"H$	c #2B418E",
"I$	c #2A3B83",
"J$	c #2A408D",
"K$	c #2B4696",
"L$	c #334EA3",
"M$	c #2F4EA8",
"N$	c #3857AF",
"O$	c #7381A7",
"P$	c #CACCC7",
"Q$	c #E8E6DF",
"R$	c #F6F5F3",
"S$	c #D7D4C5",
"T$	c #C4C4C0",
"U$	c #26439A",
"V$	c #2A3D86",
"W$	c #2A4493",
"X$	c #2F4899",
"Y$	c #2E4CA6",
"Z$	c #2A4BAD",
"`$	c #4361B0",
" %	c #445B9A",
".%	c #4B6396",
"+%	c #495F9A",
"@%	c #455EA0",
"#%	c #3253B4",
"$%	c #7A85A2",
"%%	c #C7CBCA",
"&%	c #A1A6B6",
"*%	c #354D94",
"=%	c #273981",
"-%	c #2B428E",
";%	c #324B9F",
">%	c #304CA1",
",%	c #314DA3",
"'%	c #304CA4",
")%	c #304CA2",
"!%	c #304A9F",
"~%	c #294398",
"{%	c #243C93",
"]%	c #243C8E",
"^%	c #293E89",
"/%	c #2B408D",
"(%	c #2B4595",
"_%	c #2D4694",
":%	c #2C4495",
"<%	c #2B4290",
"[%	c #263679",
"}%	c #2B3E89",
"|%	c #28357A",
"1%	c #26357A",
"2%	c #28367D",
"3%	c #28387E",
"4%	c #27387E",
"5%	c #28367C",
"6%	c #273579",
"7%	c #27357B",
"      . . . . . . . . + @ # $ % % & # @ + . . . . . . . .       ",
"  * = - - - - - - ; > , ' ) ! ~ ! { ] ' ^ / ; - - - - - ( ; _   ",
"  ; : = = ( = ; / < [ } | 1 2 3 4 5 6 | } [ 7 8 = = ( = ( = : : ",
". ( ; - - 9 ; ^ 0 a 1 b c d e f g h i j k l m ~ n ; 9 ( ; : = _ ",
"o : / / / : p q 1 r d s t u v w x y z A B C D E F ' / ( : ( = _ ",
"> ; ; ; ; ) G H I J K L M N O P Q R S T U V V W X a Y : = : ( Z ",
"` ( = = '  ...+.@.#.$.%.&.V V *.=.-.;.V >.,.>.'.).!.G ~.( ( : _ ",
"$ - ; {.q ].d ^./.(._.V :.<.[.}.|.1.2.3.V ,.4.5.6.7.8.9.0.= : _ ",
"a.: ( [ b.I ^.c.d.e.f.g.h.i.j.k.l.m.n.o.p.V V V q.r.s.t.! % : _ ",
"> = u.v.w.s x.y.z.A.B.C.D.E.F.G.H.F.I.J.K.L.M.N.V O.P.w.v.' : _ ",
"a.8 [ Q.d R.S.T.V U.V.W.X.Y.Z.`. +Z..+++@+#+$+%+&+*+=+-+;+>+,+_ ",
"'+, )+!+~+{+]+V ^+/+(+_+:+<+[+[+}+|+1+2+3+4+5+6+7+V 8+9+0+a+{.( ",
"b+c+| I ^.d+e+f+g+D.h+Z.i+j+k+l+m+n+o+p+q+r+s+t+u+v+w+x+y+z+' A+",
"- ] 6 B+C+D+E+F+G+E.H+I+J+K+L+M+N+O+P+Q+R+S+T+U+V+W+V X+Y+Z+{ _ ",
"`+~ ;+ @.@+@V @@#@F.$@%@&@*@=@-@;@>@,@'@)@!@G.~@{@]@V ^@/@..(@_@",
":@0 <@[@}@V |@V 1@2@2+3@4@5@6@7@8@9@0@a@o+b@c@d@e@f@g@N.h@i@! j@",
"k@! l@m@n@4.,.4.o@p@ +q@r@s@t@u@7@v@0@w@x@y@r+z@e@A@B@C@D@..E@F@",
"G@[ ].H@I@V ,.V J@K@$@L@M@N@O@P@Q@R@S@T@)@2+H.U@V@W@f+X@Y@8.Z@`@",
" #.#Q.+#@###V $#%#&#*#R+J+=#-#;#>#,#'#)#!#~#{#m.]#^#V /#(#2 [ _ ",
"( _#| :#<#[#}#|#1#2#r+3#4#5#6#7#8#9#0#a#2+b#c#d#e#f#V g#h#i#) ( ",
"j#^ G k#l#m#n#V o#p#q#r#:+s#t#u#v#w#x# +r#y#z#A#B#C#D#E#F#G#n : ",
"; ,+! ;+H#I#J#K#L#M#N#O#c@~#P#y@Q#R#S#T#U#V#W#X#Y#V Z#`#]. $% _ ",
"a.= p .$+$@$m##$V $$%$&$*$=$G.-$-$h+;$*$>$,$'$)$V !$u ~$| {$: _ ",
"> ( ,+]$Q.^$/$($_$V :$<$[$}$l.|$1$U@2$3$4$5$6$V 7$8$9$Z+>+F@: _ ",
"a.( = 0$a+..a$b$c$d$V e$f$g$h$i$j$k$l$m$V >.V n$o$p$q$a+r$s$: _ ",
"- ( ( ; {$G#k#t$^.u$v$w$V x$y$z$A$B$C$D$>.,.>.E$F$G$H$.#( : : _ ",
"o : ( = 8 I$J$K$B+L$M$N$O$P$Q$V V V R$S$V 4.V T$U$H$V$Z ( : : _ ",
"> ; ( ( ; 8 {$9.W$X$e @$Y$Z$`$ %.%+%@%#%$%%%&%*%G Y / @ ( : : _ ",
"a.( : = ( ; > =%! -%;+F#^$;%>%,%'%)%!%^$~%{%]%^%r$( ; ( ( : : Z ",
"  = ( ; : ( = = % {$E@/%6 ;+(%.._%:%;+<%v.(@{$% [%( ; : ( : : Z ",
"  : ( ( ; ; = ( ; = ,+< {$[ E@E@}%q V$] u.% ( ; ( ; : ( ( : :   ",
"    > |%@ @ A+@ = @ |%1%1%: 2%3%4%5%. 1%6%1%|%1%1%@ 7%@ 7%-     "};
