<?xml version="1.0" encoding="UTF-8" standalone="no"?>
<!-- Generator: Adobe Illustrator 19.2.1, SVG Export Plug-In . SVG Version: 6.00 Build 0)  -->

<svg
   xmlns:dc="http://purl.org/dc/elements/1.1/"
   xmlns:cc="http://creativecommons.org/ns#"
   xmlns:rdf="http://www.w3.org/1999/02/22-rdf-syntax-ns#"
   xmlns:svg="http://www.w3.org/2000/svg"
   xmlns="http://www.w3.org/2000/svg"
   xmlns:sodipodi="http://sodipodi.sourceforge.net/DTD/sodipodi-0.dtd"
   xmlns:inkscape="http://www.inkscape.org/namespaces/inkscape"
   version="1.1"
   x="0px"
   y="0px"
   viewBox="0 0 2335.7836 412.91667"
   xml:space="preserve"
   id="svg44"
   sodipodi:docname="ionomy_banner_logo_horizontal.svg"
   inkscape:version="0.92.3 (2405546, 2018-03-11)"
   width="2335.7834"
   height="412.91666"
   inkscape:export-filename="/media/dev/M2SSD/go/github.com/cevap/ion/src/qt/res/images/ion_logo_horizontal_regtest.png"
   inkscape:export-xdpi="13.973898"
   inkscape:export-ydpi="13.973898"><title
   id="title30">Ion Core QT banner logo</title><metadata
   id="metadata50"><rdf:RDF><cc:Work
       rdf:about=""><dc:format>image/svg+xml</dc:format><dc:type
         rdf:resource="http://purl.org/dc/dcmitype/StillImage" /><dc:title>Ion Core QT banner logo</dc:title><dc:date>GMT: Monday, 15. April 2019 18:47:35</dc:date><dc:creator><cc:Agent><dc:title>Ionomy limited</dc:title></cc:Agent></dc:creator><dc:rights><cc:Agent><dc:title>https://raw.githubusercontent.com/ioncoincore/ion/master/src/qt/res/src/LICENSE.md</dc:title></cc:Agent></dc:rights><dc:publisher><cc:Agent><dc:title>Ionomy limited</dc:title></cc:Agent></dc:publisher><dc:identifier>ion_logo_horizontal</dc:identifier><dc:source>https://raw.githubusercontent.com/ioncoincore/ion/master/src/qt/res/src/banner.svg</dc:source><dc:relation>https://raw.githubusercontent.com/ioncoincore/ion/master/src/qt/res/images/ion_logo_horizontal.png</dc:relation><dc:language>English</dc:language><dc:subject><rdf:Bag><rdf:li>ion</rdf:li><rdf:li>core</rdf:li><rdf:li>banner</rdf:li><rdf:li>main</rdf:li><rdf:li>testnet</rdf:li><rdf:li>regtest</rdf:li><rdf:li>network</rdf:li></rdf:Bag></dc:subject><dc:coverage>Ion Core banner image for all networks</dc:coverage><dc:description>Ion Core Digital Currency (by Ionomy limited) - https://ionomy.com</dc:description><dc:contributor><cc:Agent><dc:title>CEVAP</dc:title></cc:Agent></dc:contributor><cc:license
         rdf:resource="https://raw.githubusercontent.com/ioncoincore/ion/master/src/qt/res/src/LICENSE.md" /></cc:Work></rdf:RDF></metadata><defs
   id="defs48" /><sodipodi:namedview
   pagecolor="#ffffff"
   bordercolor="#666666"
   borderopacity="1"
   objecttolerance="10"
   gridtolerance="10"
   guidetolerance="10"
   inkscape:pageopacity="0"
   inkscape:pageshadow="2"
   inkscape:window-width="1887"
   inkscape:window-height="1025"
   id="namedview46"
   showgrid="false"
   inkscape:zoom="1.9090811"
   inkscape:cx="214.48933"
   inkscape:cy="292.13912"
   inkscape:window-x="67"
   inkscape:window-y="27"
   inkscape:window-maximized="0"
   inkscape:current-layer="svg44"
   fit-margin-top="0"
   fit-margin-left="0"
   fit-margin-right="0"
   fit-margin-bottom="0" />
<style
   type="text/css"
   id="style2">
	.st0{font-family:'FuturaLT-Book';}
	.st1{font-size:579.1811px;}
	.st2{display:none;fill:none;stroke:#000000;stroke-width:26;stroke-miterlimit:10;}
	.st3{display:none;opacity:0.75;fill:#26A9E0;}
	.st4{display:none;fill:#231F20;}
	.st5{display:none;}
	.st6{display:none;fill:none;stroke:#000000;stroke-width:72;stroke-miterlimit:10;}
	.st7{opacity:0.75;fill:#26A9E0;enable-background:new    ;}
	.st8{fill:#111111;fill-opacity:0;}
</style>

<g
   id="Layer_2"
   transform="translate(15.87887,-85.462833)">
	<g
   id="g41">
		<circle
   class="st6"
   cx="291.20001"
   cy="292"
   r="135.89999"
   id="circle23"
   style="display:none;fill:none;stroke:#000000;stroke-width:72;stroke-miterlimit:10" />
		
		
		
		
		<circle
   class="st8"
   cx="226.10001"
   cy="174"
   r="31.9"
   id="circle33"
   style="fill:#111111;fill-opacity:0" />
		<circle
   class="st8"
   cx="226.10001"
   cy="410.10001"
   r="31.9"
   id="circle35"
   style="fill:#111111;fill-opacity:0" />
		<circle
   class="st8"
   cx="427.10001"
   cy="297.29999"
   r="31.9"
   id="circle37"
   style="fill:#111111;fill-opacity:0" />
		
	</g>
</g>
<g
   inkscape:groupmode="layer"
   id="layer1"
   inkscape:label="banner"
   style="display:inline"
   sodipodi:insensitive="true"><g
     inkscape:groupmode="layer"
     id="layer9"
     inkscape:label="ionomy_logo"
     sodipodi:insensitive="true"
     style="display:inline"><g
       inkscape:groupmode="layer"
       id="layer2"
       inkscape:label="text"
       style="display:inline"><g
         id="Layer_1"
         transform="translate(67.87887,-103.46283)">
	<text
   transform="translate(465.7966,427.6227)"
   class="st0 st1"
   id="text4"
   style="font-size:400px;font-family:FuturaLT-Book"><tspan
     style="font-size:560px"
     id="tspan52" /></text>



	<text
   transform="translate(-26.0872,427.6295)"
   class="st0 st1"
   id="text6"
   style="font-size:426.66665649px;font-family:FuturaLT-Book"
   dx="0 0 0 0.029999999"><tspan
     style="font-style:normal;font-variant:normal;font-weight:normal;font-stretch:normal;font-family:Ubuntu;-inkscape-font-specification:Ubuntu;letter-spacing:51.63001251px"
     id="tspan83628">i  </tspan><tspan
     style="font-style:normal;font-variant:normal;font-weight:normal;font-stretch:normal;font-family:Ubuntu;-inkscape-font-specification:Ubuntu;letter-spacing:51.63001251px"
     id="tspan54">nomy</tspan></text>



	<circle
   class="st2"
   cx="296.39999"
   cy="292.79999"
   r="141.5"
   id="circle8"
   style="display:none;fill:none;stroke:#000000;stroke-width:26;stroke-miterlimit:10" />
	<circle
   class="st3"
   cx="296.39999"
   cy="292.79999"
   r="43.599998"
   id="circle10"
   style="display:none;opacity:0.75;fill:#26a9e0" />
	<circle
   class="st4"
   cx="155"
   cy="298.29999"
   r="33.200001"
   id="circle12"
   style="display:none;fill:#231f20" />
	<circle
   class="st4"
   cx="365.60001"
   cy="420.5"
   r="33.200001"
   id="circle14"
   style="display:none;fill:#231f20" />
	<circle
   class="st5"
   cx="365.60001"
   cy="166.2"
   r="38.700001"
   id="circle16"
   style="display:none" />
	<circle
   class="st5"
   cx="155"
   cy="298.29999"
   r="38.700001"
   id="circle18"
   style="display:none" />
	<circle
   class="st5"
   cx="365.60001"
   cy="420.5"
   r="38.700001"
   id="circle20"
   style="display:none" />
</g></g><g
       inkscape:groupmode="layer"
       id="layer3"
       inkscape:label="trajectory_black"
       style="display:inline"
       sodipodi:insensitive="true"><path
         transform="translate(15.87887,-85.462833)"
         d="m 290.9,145.4 c -81,0 -146.6,65.6 -146.6,146.6 0,81 65.6,146.6 146.6,146.6 81,0 146.6,-65.7 146.6,-146.6 0,-80.9 -65.7,-146.6 -146.6,-146.6 z m 0.3,271.7 c -69,0 -125,-55.9 -125,-125 0,-69.1 55.9,-125 125,-125 69.1,0 125,55.9 125,125 0,69.1 -56,125 -125,125 z"
         id="path39"
         inkscape:connector-curvature="0" /></g><g
       style="display:inline"
       inkscape:label="trajectory_white"
       id="g83659"
       inkscape:groupmode="layer"
       sodipodi:insensitive="true"><path
         inkscape:connector-curvature="0"
         id="path83657"
         d="m 290.9,145.4 c -81,0 -146.6,65.6 -146.6,146.6 0,81 65.6,146.6 146.6,146.6 81,0 146.6,-65.7 146.6,-146.6 0,-80.9 -65.7,-146.6 -146.6,-146.6 z m 0.3,271.7 c -69,0 -125,-55.9 -125,-125 0,-69.1 55.9,-125 125,-125 69.1,0 125,55.9 125,125 0,69.1 -56,125 -125,125 z"
         transform="translate(15.87887,-85.462833)" /></g><g
       inkscape:groupmode="layer"
       id="g83663"
       inkscape:label="trajectory"
       style="display:inline"
       sodipodi:insensitive="true"><path
         transform="translate(15.87887,-85.462833)"
         d="m 290.9,145.4 c -81,0 -146.6,65.6 -146.6,146.6 0,81 65.6,146.6 146.6,146.6 81,0 146.6,-65.7 146.6,-146.6 0,-80.9 -65.7,-146.6 -146.6,-146.6 z m 0.3,271.7 c -69,0 -125,-55.9 -125,-125 0,-69.1 55.9,-125 125,-125 69.1,0 125,55.9 125,125 0,69.1 -56,125 -125,125 z"
         id="path83661"
         inkscape:connector-curvature="0" /></g><g
       inkscape:groupmode="layer"
       id="layer4"
       inkscape:label="planets_black"
       style="display:inline"
       sodipodi:insensitive="true"><circle
         transform="translate(15.87887,-85.462833)"
         cx="155.2"
         cy="297.29999"
         r="31.9"
         id="circle27" /><circle
         transform="translate(15.87887,-85.462833)"
         cx="357.70001"
         cy="410.10001"
         r="31.9"
         id="circle29" /><circle
         transform="translate(15.87887,-85.462833)"
         cx="357.70001"
         cy="174"
         r="31.9"
         id="circle31" /></g><g
       style="display:none"
       inkscape:label="planets_white"
       id="g83674"
       inkscape:groupmode="layer"
       sodipodi:insensitive="true"><circle
         id="circle83668"
         r="31.9"
         cy="297.29999"
         cx="155.2"
         transform="translate(15.87887,-85.462833)" /><circle
         id="circle83670"
         r="31.9"
         cy="410.10001"
         cx="357.70001"
         transform="translate(15.87887,-85.462833)" /><circle
         id="circle83672"
         r="31.9"
         cy="174"
         cx="357.70001"
         transform="translate(15.87887,-85.462833)" /></g><g
       inkscape:groupmode="layer"
       id="g83682"
       inkscape:label="planets_main"
       style="display:none"
       sodipodi:insensitive="true"><circle
         transform="translate(15.87887,-85.462833)"
         cx="155.2"
         cy="297.29999"
         r="31.9"
         id="circle83676" /><circle
         transform="translate(15.87887,-85.462833)"
         cx="357.70001"
         cy="410.10001"
         r="31.9"
         id="circle83678" /><circle
         transform="translate(15.87887,-85.462833)"
         cx="357.70001"
         cy="174"
         r="31.9"
         id="circle83680" /></g><g
       inkscape:groupmode="layer"
       id="layer5"
       inkscape:label="sun_main"
       style="display:inline"
       sodipodi:insensitive="true"><circle
         transform="translate(15.87887,-85.462833)"
         class="st7"
         cx="291.20001"
         cy="292"
         r="41.900002"
         id="circle25"
         style="opacity:0.75;fill:#26a9e0;enable-background:new" /></g></g></g><g
   style="display:none"
   inkscape:label="banner_testnet"
   id="g83937"
   inkscape:groupmode="layer"
   sodipodi:insensitive="true"><g
     inkscape:label="ionomy_logo"
     id="g83935"
     inkscape:groupmode="layer"
     style="display:inline"><g
       style="display:inline"
       inkscape:label="text"
       id="g83893"
       inkscape:groupmode="layer"><g
         transform="translate(67.87887,-103.46283)"
         id="g83891">
	<text
   style="font-size:400px;font-family:FuturaLT-Book"
   id="text83869"
   class="st0 st1"
   transform="translate(465.7966,427.6227)"><tspan
     id="tspan83867"
     style="font-size:560px" /></text>



	<text
   dx="0 0 0 0.029999999"
   style="font-size:426.66665649px;font-family:FuturaLT-Book"
   id="text83875"
   class="st0 st1"
   transform="translate(-26.0872,427.6295)"><tspan
     id="tspan83871"
     style="font-style:normal;font-variant:normal;font-weight:normal;font-stretch:normal;font-family:Ubuntu;-inkscape-font-specification:Ubuntu;letter-spacing:51.63001251px">i  </tspan><tspan
     id="tspan83873"
     style="font-style:normal;font-variant:normal;font-weight:normal;font-stretch:normal;font-family:Ubuntu;-inkscape-font-specification:Ubuntu;letter-spacing:51.63001251px">nomy</tspan></text>



	<circle
   style="display:none;fill:none;stroke:#000000;stroke-width:26;stroke-miterlimit:10"
   id="circle83877"
   r="141.5"
   cy="292.79999"
   cx="296.39999"
   class="st2" />
	<circle
   style="display:none;opacity:0.75;fill:#26a9e0"
   id="circle83879"
   r="43.599998"
   cy="292.79999"
   cx="296.39999"
   class="st3" />
	<circle
   style="display:none;fill:#231f20"
   id="circle83881"
   r="33.200001"
   cy="298.29999"
   cx="155"
   class="st4" />
	<circle
   style="display:none;fill:#231f20"
   id="circle83883"
   r="33.200001"
   cy="420.5"
   cx="365.60001"
   class="st4" />
	<circle
   style="display:none"
   id="circle83885"
   r="38.700001"
   cy="166.2"
   cx="365.60001"
   class="st5" />
	<circle
   style="display:none"
   id="circle83887"
   r="38.700001"
   cy="298.29999"
   cx="155"
   class="st5" />
	<circle
   style="display:none"
   id="circle83889"
   r="38.700001"
   cy="420.5"
   cx="365.60001"
   class="st5" />
</g></g><g
       sodipodi:insensitive="true"
       style="display:inline"
       inkscape:label="trajectory_black"
       id="g83897"
       inkscape:groupmode="layer"><path
         inkscape:connector-curvature="0"
         id="path83895"
         d="m 290.9,145.4 c -81,0 -146.6,65.6 -146.6,146.6 0,81 65.6,146.6 146.6,146.6 81,0 146.6,-65.7 146.6,-146.6 0,-80.9 -65.7,-146.6 -146.6,-146.6 z m 0.3,271.7 c -69,0 -125,-55.9 -125,-125 0,-69.1 55.9,-125 125,-125 69.1,0 125,55.9 125,125 0,69.1 -56,125 -125,125 z"
         transform="translate(15.87887,-85.462833)" /></g><g
       sodipodi:insensitive="true"
       inkscape:groupmode="layer"
       id="g83901"
       inkscape:label="trajectory_white"
       style="display:inline"><path
         transform="translate(15.87887,-85.462833)"
         d="m 290.9,145.4 c -81,0 -146.6,65.6 -146.6,146.6 0,81 65.6,146.6 146.6,146.6 81,0 146.6,-65.7 146.6,-146.6 0,-80.9 -65.7,-146.6 -146.6,-146.6 z m 0.3,271.7 c -69,0 -125,-55.9 -125,-125 0,-69.1 55.9,-125 125,-125 69.1,0 125,55.9 125,125 0,69.1 -56,125 -125,125 z"
         id="path83899"
         inkscape:connector-curvature="0" /></g><g
       sodipodi:insensitive="true"
       style="display:inline"
       inkscape:label="trajectory"
       id="g83905"
       inkscape:groupmode="layer"><path
         inkscape:connector-curvature="0"
         id="path83903"
         d="m 290.9,145.4 c -81,0 -146.6,65.6 -146.6,146.6 0,81 65.6,146.6 146.6,146.6 81,0 146.6,-65.7 146.6,-146.6 0,-80.9 -65.7,-146.6 -146.6,-146.6 z m 0.3,271.7 c -69,0 -125,-55.9 -125,-125 0,-69.1 55.9,-125 125,-125 69.1,0 125,55.9 125,125 0,69.1 -56,125 -125,125 z"
         transform="translate(15.87887,-85.462833)" /></g><g
       inkscape:groupmode="layer"
       id="g83921"
       inkscape:label="planets_white"
       style="display:inline"><circle
         transform="translate(15.87887,-85.462833)"
         cx="155.2"
         cy="297.29999"
         r="31.9"
         id="circle83915"
         style="fill:#ffffff" /><circle
         transform="translate(15.87887,-85.462833)"
         cx="357.70001"
         cy="410.10001"
         r="31.9"
         id="circle83917"
         style="fill:#ffffff" /><circle
         transform="translate(15.87887,-85.462833)"
         cx="357.70001"
         cy="174"
         r="31.9"
         id="circle83919"
         style="fill:#ffffff" /></g><g
       sodipodi:insensitive="true"
       style="display:inline"
       inkscape:label="planets_black"
       id="g83913"
       inkscape:groupmode="layer"><circle
         id="circle83907"
         r="31.9"
         cy="297.29999"
         cx="155.2"
         transform="translate(15.87887,-85.462833)" /><circle
         id="circle83909"
         r="31.9"
         cy="410.10001"
         cx="357.70001"
         transform="translate(15.87887,-85.462833)" /><circle
         id="circle83911"
         r="31.9"
         cy="174"
         cx="357.70001"
         transform="translate(15.87887,-85.462833)" /></g><g
       style="display:inline"
       inkscape:label="planets_testnet"
       id="g83929"
       inkscape:groupmode="layer"><circle
         id="circle83923"
         r="31.9"
         cy="297.29999"
         cx="155.2"
         transform="translate(15.87887,-85.462833)"
         style="fill:#00a440;fill-opacity:0.69019608" /><circle
         id="circle83925"
         r="31.9"
         cy="410.10001"
         cx="357.70001"
         transform="translate(15.87887,-85.462833)"
         style="fill:#00a440;fill-opacity:0.69019608" /><circle
         id="circle83927"
         r="31.9"
         cy="174"
         cx="357.70001"
         transform="translate(15.87887,-85.462833)"
         style="fill:#00a440;fill-opacity:0.69019608" /></g><g
       style="display:inline"
       inkscape:label="sun_testnet"
       id="g83933"
       inkscape:groupmode="layer"><circle
         style="opacity:0.75;fill:#00a440;fill-opacity:0.69019608;enable-background:new"
         id="circle83931"
         r="41.900002"
         cy="292"
         cx="291.20001"
         class="st7"
         transform="translate(15.87887,-85.462833)" /></g></g></g><g
   inkscape:groupmode="layer"
   id="g84009"
   inkscape:label="banner_regtest"
   style="display:none"
   sodipodi:insensitive="true"><g
     inkscape:groupmode="layer"
     id="g84007"
     inkscape:label="ionomy_logo"
     style="display:inline"><g
       inkscape:groupmode="layer"
       id="g83965"
       inkscape:label="text"
       style="display:inline"
       sodipodi:insensitive="true"><g
         id="g83963"
         transform="translate(67.87887,-103.46283)">
	<text
   transform="translate(465.7966,427.6227)"
   class="st0 st1"
   id="text83941"
   style="font-size:400px;font-family:FuturaLT-Book"><tspan
     style="font-size:560px"
     id="tspan83939" /></text>



	<text
   transform="translate(-26.0872,427.6295)"
   class="st0 st1"
   id="text83947"
   style="font-size:426.66665649px;font-family:FuturaLT-Book"
   dx="0 0 0 0.029999999"><tspan
     style="font-style:normal;font-variant:normal;font-weight:normal;font-stretch:normal;font-family:Ubuntu;-inkscape-font-specification:Ubuntu;letter-spacing:51.63001251px"
     id="tspan83943">i  </tspan><tspan
     style="font-style:normal;font-variant:normal;font-weight:normal;font-stretch:normal;font-family:Ubuntu;-inkscape-font-specification:Ubuntu;letter-spacing:51.63001251px"
     id="tspan83945">nomy</tspan></text>



	<circle
   class="st2"
   cx="296.39999"
   cy="292.79999"
   r="141.5"
   id="circle83949"
   style="display:none;fill:none;stroke:#000000;stroke-width:26;stroke-miterlimit:10" />
	<circle
   class="st3"
   cx="296.39999"
   cy="292.79999"
   r="43.599998"
   id="circle83951"
   style="display:none;opacity:0.75;fill:#26a9e0" />
	<circle
   class="st4"
   cx="155"
   cy="298.29999"
   r="33.200001"
   id="circle83953"
   style="display:none;fill:#231f20" />
	<circle
   class="st4"
   cx="365.60001"
   cy="420.5"
   r="33.200001"
   id="circle83955"
   style="display:none;fill:#231f20" />
	<circle
   class="st5"
   cx="365.60001"
   cy="166.2"
   r="38.700001"
   id="circle83957"
   style="display:none" />
	<circle
   class="st5"
   cx="155"
   cy="298.29999"
   r="38.700001"
   id="circle83959"
   style="display:none" />
	<circle
   class="st5"
   cx="365.60001"
   cy="420.5"
   r="38.700001"
   id="circle83961"
   style="display:none" />
</g></g><g
       inkscape:groupmode="layer"
       id="g83969"
       inkscape:label="trajectory_black"
       style="display:inline"
       sodipodi:insensitive="true"><path
         transform="translate(15.87887,-85.462833)"
         d="m 290.9,145.4 c -81,0 -146.6,65.6 -146.6,146.6 0,81 65.6,146.6 146.6,146.6 81,0 146.6,-65.7 146.6,-146.6 0,-80.9 -65.7,-146.6 -146.6,-146.6 z m 0.3,271.7 c -69,0 -125,-55.9 -125,-125 0,-69.1 55.9,-125 125,-125 69.1,0 125,55.9 125,125 0,69.1 -56,125 -125,125 z"
         id="path83967"
         inkscape:connector-curvature="0" /></g><g
       style="display:inline"
       inkscape:label="trajectory_white"
       id="g83973"
       inkscape:groupmode="layer"
       sodipodi:insensitive="true"><path
         inkscape:connector-curvature="0"
         id="path83971"
         d="m 290.9,145.4 c -81,0 -146.6,65.6 -146.6,146.6 0,81 65.6,146.6 146.6,146.6 81,0 146.6,-65.7 146.6,-146.6 0,-80.9 -65.7,-146.6 -146.6,-146.6 z m 0.3,271.7 c -69,0 -125,-55.9 -125,-125 0,-69.1 55.9,-125 125,-125 69.1,0 125,55.9 125,125 0,69.1 -56,125 -125,125 z"
         transform="translate(15.87887,-85.462833)" /></g><g
       inkscape:groupmode="layer"
       id="g83977"
       inkscape:label="trajectory"
       style="display:inline"
       sodipodi:insensitive="true"><path
         transform="translate(15.87887,-85.462833)"
         d="m 290.9,145.4 c -81,0 -146.6,65.6 -146.6,146.6 0,81 65.6,146.6 146.6,146.6 81,0 146.6,-65.7 146.6,-146.6 0,-80.9 -65.7,-146.6 -146.6,-146.6 z m 0.3,271.7 c -69,0 -125,-55.9 -125,-125 0,-69.1 55.9,-125 125,-125 69.1,0 125,55.9 125,125 0,69.1 -56,125 -125,125 z"
         id="path83975"
         inkscape:connector-curvature="0" /></g><g
       style="display:inline"
       inkscape:label="planets_white"
       id="g83985"
       inkscape:groupmode="layer"
       sodipodi:insensitive="true"><circle
         style="fill:#ffffff"
         id="circle83979"
         r="31.9"
         cy="297.29999"
         cx="155.2"
         transform="translate(15.87887,-85.462833)" /><circle
         style="fill:#ffffff"
         id="circle83981"
         r="31.9"
         cy="410.10001"
         cx="357.70001"
         transform="translate(15.87887,-85.462833)" /><circle
         style="fill:#ffffff"
         id="circle83983"
         r="31.9"
         cy="174"
         cx="357.70001"
         transform="translate(15.87887,-85.462833)" /></g><g
       inkscape:groupmode="layer"
       id="g83993"
       inkscape:label="planets_black"
       style="display:inline"
       sodipodi:insensitive="true"><circle
         transform="translate(15.87887,-85.462833)"
         cx="155.2"
         cy="297.29999"
         r="31.9"
         id="circle83987" /><circle
         transform="translate(15.87887,-85.462833)"
         cx="357.70001"
         cy="410.10001"
         r="31.9"
         id="circle83989" /><circle
         transform="translate(15.87887,-85.462833)"
         cx="357.70001"
         cy="174"
         r="31.9"
         id="circle83991" /></g><g
       inkscape:groupmode="layer"
       id="g84001"
       inkscape:label="planets_regtest"
       style="display:inline"
       sodipodi:insensitive="true"><circle
         style="fill:#ff0000;fill-opacity:0.78431373"
         transform="translate(15.87887,-85.462833)"
         cx="155.2"
         cy="297.29999"
         r="31.9"
         id="circle83995" /><circle
         style="fill:#ff0000;fill-opacity:0.78431373"
         transform="translate(15.87887,-85.462833)"
         cx="357.70001"
         cy="410.10001"
         r="31.9"
         id="circle83997" /><circle
         style="fill:#ff0000;fill-opacity:0.78431373"
         transform="translate(15.87887,-85.462833)"
         cx="357.70001"
         cy="174"
         r="31.9"
         id="circle83999" /></g><g
       inkscape:groupmode="layer"
       id="g84005"
       inkscape:label="sun_regtest"
       style="display:inline"
       sodipodi:insensitive="true"><circle
         transform="translate(15.87887,-85.462833)"
         class="st7"
         cx="291.20001"
         cy="292"
         r="41.900002"
         id="circle84003"
         style="opacity:0.75;fill:#ff0000;fill-opacity:0.78431373;enable-background:new" /></g></g></g></svg>